<?xml version="1.0" encoding="utf-8"?>
<!-- Generator: Adobe Illustrator 25.1.0, SVG Export Plug-In . SVG Version: 6.00 Build 0)  -->
<svg version="1.1"
	xmlns="http://www.w3.org/2000/svg"
	xmlns:xlink="http://www.w3.org/1999/xlink" x="0px" y="0px" viewBox="0 0 1417.3 1133.9" style="enable-background:new 0 0 1417.3 1133.9;" xml:space="preserve">
	<style type="text/css">
	.st0{fill:#97A4F6;}
	.st1{fill:#FAB400;}
	.st2{fill:#FA6450;}
	.st3{fill:#DC4632;}
	.st4{fill:#DC9600;}
	.st5{fill:#3CC8B4;}
	.st6{fill:#1EAA96;}
	.st7{fill:#F0F0F0;}
	.st8{opacity:0.8;fill:#647DDD;}
	.st9{fill:#FCCF4F;}
	.st10{fill:#B99255;}
	.st11{fill:#381E60;}
	.st12{opacity:0.5;fill:#647DDD;}
	.st13{fill:#57438E;}
	.st14{fill:#FFFFFF;}
	.st15{fill:#87CEFF;}
	.st16{fill:#FFF9FF;}
	.st17{opacity:0.5;}
	.st18{fill:#298BCC;}
	.st19{fill:#FF9779;}
	.st20{fill:#FFAC8A;}
	.st21{fill:#77BDEC;}
	.st22{opacity:0.5;fill:#57438E;}
	.st23{fill:#1A685A;}
	.st24{fill:#409682;}
	.st25{fill:#4CA6F1;}
	.st26{fill:#FC9740;}
	.st27{fill:#FCCFB0;}
	.st28{fill:#4E0611;}
	.st29{fill:#FFB29E;}
	.st30{fill:#EF6C98;}
	.st31{fill:#FF85AB;}
	.st32{fill:#659CFF;}
	.st33{fill:#77BAFF;}
	.st34{fill:#47338E;}
	.st35{opacity:0.5;fill:#FCCF4F;}
	.st36{fill:#FCA580;}
	.st37{fill:#F37A67;}
	.st38{fill:#F09376;}
	.st39{fill:#D3BAE7;}
	.st40{fill:#752939;}
	.st41{fill:#BCBACE;}
	.st42{fill:#4EAF9D;}
	.st43{font-family:'Arial';}
	.st44{font-size:99px;}
	.st45{font-size:55px;}
	</style>
	<g id="Layer_1">
		<rect x="0" class="st0" width="1417.3" height="1133.9"/>
	</g>
	<g id="Layer_2">
		<g>
			<g>
				<path class="st1" d="M252.3,523.4c-8.5,4.3-15.5,0.3-15.5-9v-28.1l-108.3,55c-2.8,1.4-5.2,5.1-5.2,8.2v101.1c0,3.1,2.3,4.4,5.2,3
				l56.7-28.8v33.7l41.3-54.6l56.7-28.8c2.8-1.4,5.2-5.1,5.2-8.2v-61.8L252.3,523.4z"/>
			</g>
			<g>
				<path class="st2" d="M236.9,413.4c0-9.3,6.9-20.4,15.5-24.7l36.1-18.3v-73c0-3.1-2.3-4.4-5.2-3l-154.8,78.5
				c-2.8,1.4-5.2,5.1-5.2,8.2v101.1c0,3.1,2.3,4.4,5.2,3l56.7-28.8v33.7l41.3-54.6l10.3-5.2V413.4z"/>
			</g>
			<g>
				<path class="st3" d="M133.7,477V375.9c0-3.1,2.3-6.8,5.2-8.2l-10.3,5.2c-2.8,1.4-5.2,5.1-5.2,8.2v101.1c0,3.1,2.3,4.4,5.2,3
				l10.3-5.2C136,481.4,133.7,480.1,133.7,477z"/>
			</g>
			<g>
				<path class="st4" d="M133.7,645.4V544.4c0-3.1,2.3-6.8,5.2-8.2l-10.3,5.2c-2.8,1.4-5.2,5.1-5.2,8.2v101.1c0,3.1,2.3,4.4,5.2,3
				l10.3-5.2C136,649.8,133.7,648.5,133.7,645.4z"/>
			</g>
			<g>
				<path class="st5" d="M252.3,399.9l154.8-78.5c2.8-1.4,5.2-0.1,5.2,3v101.1c0,3.1-2.3,6.8-5.2,8.2l-56.7,28.8v33.7l-41.3-12.7
				l-56.7,28.8c-2.8,1.4-5.2,0.1-5.2-3V408.2C247.2,405.1,249.5,401.4,252.3,399.9z"/>
			</g>
			<g>
				<path class="st6" d="M257.5,504V402.9c0-3.1,2.3-6.8,5.2-8.2l-10.3,5.2c-2.8,1.4-5.2,5.1-5.2,8.2v101.1c0,3.1,2.3,4.4,5.2,3
				l10.3-5.2C259.8,508.4,257.5,507.1,257.5,504z"/>
			</g>
			<g>
				<path class="st7" d="M278.1,409.3l113.5-57.6v11.2l-113.5,57.6V409.3z"/>
			</g>
			<g>
				<path class="st7" d="M278.1,431.8l113.5-57.6v11.2L278.1,443V431.8z"/>
			</g>
			<g>
				<path class="st7" d="M278.1,454.2l61.9-31.4V434l-61.9,31.4V454.2z"/>
			</g>
			<g>
				<path class="st7" d="M154.3,550.7l72.2-36.7v11.2L154.3,562V550.7z"/>
			</g>
			<g>
				<path class="st7" d="M154.3,573.2l113.5-57.6v11.2l-113.5,57.6V573.2z"/>
			</g>
			<g>
				<path class="st7" d="M154.3,595.6l61.9-31.4v11.2l-61.9,31.4V595.6z"/>
			</g>
			<g>
				<path class="st7" d="M154.3,382.3l113.5-57.6v11.2l-113.5,57.6V382.3z"/>
			</g>
			<g>
				<path class="st7" d="M154.3,404.8l113.5-57.6v11.2L154.3,416V404.8z"/>
			</g>
			<g>
				<path class="st7" d="M154.3,427.2l61.9-31.4V407l-61.9,31.4V427.2z"/>
			</g>
		</g>
		<g>
			<g>
				<path class="st8" d="M1382.9,719.3c-2.2,2-100.1,63.8-100.1,63.8s-126.2-73.6-121.9-72.3C1165.3,712.1,1382.9,719.3,1382.9,719.3
				z"/>
				<polygon class="st9" points="1382.9,719.3 1264.4,650.9 1160.9,710.8 1265,770.8 1294.1,770.5 			"/>
				<polygon class="st10" points="1279.3,753.7 1294.1,770.5 1265,770.8 			"/>
			</g>
			<g>
				<polygon class="st11" points="361.5,707.4 343.4,721.5 387.2,794.3 403.6,772.8 			"/>
			</g>
			<g>
				<path class="st12" d="M723.5,1071.3L213.9,848.7l512.8-282.3c0,0,530.4,227.6,491.2,238.1C1178.7,815,723.5,1071.3,723.5,1071.3z
				"/>
				<g>
					<g>
						<g>
							<path class="st13" d="M368.8,403.4l441.8-253.1c7.9-4.5,18.2-6.7,27.2-4.7c12.5,2.9,24.3,6.8,24.2,17.8l0.7,410.6l-38.9,23
							c12.7,6.2,400.5,194.9,401.2,195.4l0.9,15.8c0,6.8-3.6,13.1-9.5,16.6c-66,38.2-452.7,261.8-452.7,261.8
							c-12.7,7.4-28.4,7.4-41.1,0L355,874.2c-3.8-2.2-6.2-6.3-6.2-10.7L348.2,439C348.2,424.3,356.1,410.7,368.8,403.4z"/>
							<g>
								<path class="st11" d="M361.2,862.1l501.9-286.4l1-409.7c0-11.8-12.8-19.3-23-13.4L378.3,417.8c-10.1,5.8-16.3,16.5-16.3,28.1
								L361.2,862.1z"/>
								<polygon class="st11" points="843.5,176.4 384,440.2 383,825.9 843.5,561.6 							"/>
							</g>
							<g>
								<g>
									<polygon class="st9" points="843.9,238 383,500.7 384,440.2 843.5,176.4 								"/>
								</g>
								<g>
									<polygon class="st14" points="524.9,402.2 406.3,469 406.3,437.3 523.3,372.2 								"/>
								</g>
								<g>
									<path class="st14" d="M809.1,226.1c-0.1,10.1-5,20.8-10.9,23.9c-5.9,3.1-10.6-2.5-10.4-12.6c0.1-10.1,5-20.8,10.9-23.9
									C804.5,210.3,809.2,216,809.1,226.1z"/>
								</g>
								<g>
									<g>
										<polygon class="st15" points="697.9,369.4 447.5,501.6 447.6,492.4 698,360.2 									"/>
									</g>
									<g>
										<polygon class="st15" points="489.2,509.8 447.1,532 447.3,522.9 489.3,500.7 									"/>
									</g>
									<g>
										<polygon class="st15" points="697.5,399.8 616.4,442.6 616.6,433.5 697.7,390.7 									"/>
									</g>
									<g>
										<polygon class="st15" points="697,446.4 446.6,578.6 446.7,569.5 697.1,437.3 									"/>
									</g>
									<g>
										<polygon class="st15" points="694.5,641.1 444.1,773.3 444.3,764.2 694.7,632 									"/>
									</g>
									<g>
										<polygon class="st15" points="696.6,476.8 446.2,609 446.3,599.9 696.7,467.7 									"/>
									</g>
									<g>
										<polygon class="st15" points="506.2,604.5 445.8,636.4 446,627.3 506.3,595.4 									"/>
									</g>
									<g>
										<polygon class="st15" points="505.4,673.4 445,705.2 445.1,696.1 505.5,664.2 									"/>
									</g>
									<g>
										<polygon class="st15" points="585.9,630.8 514.2,668.7 514.4,659.5 586,621.7 									"/>
									</g>
									<g>
										<polygon class="st15" points="585.5,664.5 513.8,702.3 513.9,693.1 585.6,655.3 									"/>
									</g>
									<g>
										<polygon class="st15" points="695.4,573 611.3,617.4 611.4,608.3 695.5,563.9 									"/>
									</g>
									<g>
										<polygon class="st15" points="695.8,537.7 611.8,582.1 611.9,572.9 695.9,528.6 									"/>
									</g>
									<g>
										<polygon class="st15" points="768,499.6 710.6,529.9 710.7,520.7 768.2,490.4 									"/>
									</g>
									<g>
										<polygon class="st15" points="768.8,438.7 711.4,469 711.5,459.9 768.9,429.6 									"/>
									</g>
									<g>
										<polygon class="st15" points="769.8,361.6 712.3,392 712.5,382.8 769.9,352.5 									"/>
									</g>
								</g>
							</g>
							<g>
								<path class="st16" d="M361.5,862.1l501.6-289.3l354.8,205c10.2,5.9,10.2,20.7,0,26.6L756,1071.3c-10.1,5.8-22.4,5.8-32.5,0
								L361.5,862.1z"/>
							</g>
							<g>
								<g>
									<path class="st13" d="M500.3,871c-10,5.7-15,8.6-25,14.3c-10.1-5.7-15.2-8.6-25.3-14.3c10-5.7,15-8.6,25-14.3
									C485.2,862.4,490.2,865.3,500.3,871z"/>
									<path class="st13" d="M537.2,849.8c-10,5.7-15,8.6-25,14.3c-10.1-5.7-15.1-8.6-25.3-14.3c10-5.7,15-8.6,25-14.3
									C522,841.2,527.1,844.1,537.2,849.8z"/>
									<path class="st13" d="M574.1,828.6c-10,5.7-15,8.6-25,14.3c-10.1-5.7-15.1-8.6-25.3-14.3c10-5.7,15-8.6,25-14.3
									C558.9,820.1,564,822.9,574.1,828.6z"/>
									<path class="st13" d="M610.9,807.5c-10,5.7-15,8.6-25,14.3c-10.1-5.7-15.1-8.6-25.2-14.3c10-5.7,15-8.6,25-14.3
									C595.8,798.9,600.8,801.8,610.9,807.5z"/>
									<path class="st13" d="M647.8,786.3c-10,5.7-15,8.6-25,14.3c-10.1-5.7-15.1-8.6-25.2-14.3c10-5.7,15-8.6,25-14.3
									C632.6,777.7,637.7,780.6,647.8,786.3z"/>
									<path class="st13" d="M684.7,765.1c-10,5.7-15,8.6-25,14.3c-10.1-5.7-15.1-8.6-25.2-14.3c10-5.7,15-8.6,25-14.3
									C669.5,756.6,674.6,759.4,684.7,765.1z"/>
									<path class="st13" d="M721.5,744c-10,5.7-15,8.6-25,14.3c-10.1-5.7-15.2-8.6-25.3-14.3c10-5.7,15-8.6,25-14.3
									C706.4,735.4,711.4,738.2,721.5,744z"/>
									<path class="st13" d="M758.4,722.8c-10,5.7-15,8.6-25,14.3c-10.1-5.7-15.1-8.6-25.3-14.3c10-5.7,15-8.6,25-14.3
									C743.2,714.2,748.3,717.1,758.4,722.8z"/>
									<path class="st13" d="M795.3,701.6c-10,5.7-15,8.6-25,14.3c-10.1-5.7-15.2-8.6-25.3-14.3c10-5.7,15-8.6,25-14.3
									C780.1,693.1,785.2,695.9,795.3,701.6z"/>
									<path class="st13" d="M832.1,680.5c-10,5.7-15,8.6-25,14.3c-10.1-5.7-15.1-8.6-25.3-14.3c10-5.7,15-8.6,25-14.3
									C817,671.9,822,674.7,832.1,680.5z"/>
									<path class="st13" d="M869,659.3c-10,5.7-15,8.6-25,14.3c-10.1-5.7-15.1-8.6-25.2-14.3c10-5.7,15-8.6,25-14.3
									C853.8,650.7,858.9,653.6,869,659.3z"/>
									<path class="st13" d="M905.9,638.1c-10,5.7-15,8.6-25,14.3c-10.1-5.7-15.2-8.6-25.3-14.3c10-5.7,15-8.6,25-14.3
									C890.7,629.5,895.8,632.4,905.9,638.1z"/>
									<path class="st13" d="M535.8,891c-10,5.7-15,8.6-25,14.3c-10.1-5.7-15.1-8.6-25.3-14.3c10-5.7,15-8.6,25-14.3
									C520.6,882.5,525.7,885.3,535.8,891z"/>
									<path class="st13" d="M572.6,869.8c-10,5.7-15,8.6-25,14.3c-10.1-5.7-15.1-8.6-25.3-14.3c10-5.7,15-8.6,25-14.3
									C557.5,861.3,562.5,864.1,572.6,869.8z"/>
									<path class="st13" d="M609.5,848.7c-10,5.7-15,8.6-25,14.3c-10.1-5.7-15.2-8.6-25.3-14.3c10-5.7,15-8.6,25-14.3
									C594.3,840.1,599.4,843,609.5,848.7z"/>
									<path class="st13" d="M646.4,827.5c-10,5.7-15,8.6-25,14.3c-10.1-5.7-15.2-8.6-25.3-14.3c10-5.7,15-8.6,25-14.3
									C631.2,818.9,636.3,821.8,646.4,827.5z"/>
									<path class="st13" d="M683.2,806.3c-10,5.7-15,8.6-25,14.3c-10.1-5.7-15.1-8.6-25.2-14.3c10-5.7,15-8.6,25-14.3
									C668.1,797.8,673.1,800.6,683.2,806.3z"/>
									<path class="st13" d="M720.1,785.2c-10,5.7-15,8.6-25,14.3c-10.1-5.7-15.1-8.6-25.3-14.3c10-5.7,15-8.6,25-14.3
									C704.9,776.6,710,779.5,720.1,785.2z"/>
									<path class="st13" d="M757,764c-10,5.7-15,8.6-25,14.3c-10.1-5.7-15.2-8.6-25.3-14.3c10-5.7,15-8.6,25-14.3
									C741.8,755.4,746.9,758.3,757,764z"/>
									<path class="st13" d="M793.8,742.8c-10,5.7-15,8.6-25,14.3c-10.1-5.7-15.2-8.6-25.3-14.3c10-5.7,15-8.6,25-14.3
									C778.7,734.3,783.7,737.1,793.8,742.8z"/>
									<path class="st13" d="M830.7,721.7c-10,5.7-15,8.6-25,14.3c-10.1-5.7-15.2-8.6-25.2-14.3c10-5.7,15-8.6,25-14.3
									C815.5,713.1,820.6,715.9,830.7,721.7z"/>
									<path class="st13" d="M867.6,700.5c-10,5.7-15,8.6-25,14.3c-10.1-5.7-15.2-8.6-25.2-14.3c10-5.7,15-8.6,25-14.3
									C852.4,691.9,857.5,694.8,867.6,700.5z"/>
									<path class="st13" d="M904.4,679.3c-10,5.7-15,8.6-25,14.3c-10.1-5.7-15.1-8.6-25.3-14.3c10-5.7,15-8.6,25-14.3
									C889.3,670.8,894.3,673.6,904.4,679.3z"/>
									<path class="st13" d="M941.3,658.1c-16.7,9.6-25.1,14.4-41.9,24c-10.1-5.7-15.2-8.6-25.3-14.3c16.8-9.6,25.1-14.4,41.9-24
									C926.1,649.6,931.2,652.4,941.3,658.1z"/>
									<path class="st13" d="M587.7,901.6c-16.6,9.5-24.9,14.3-41.5,23.8c-10.1-5.7-15.1-8.6-25.3-14.3
									c16.6-9.5,24.9-14.3,41.5-23.8C572.6,893,577.6,895.9,587.7,901.6z"/>
									<path class="st13" d="M608.1,889.9c-10,5.7-15,8.6-25,14.3c-10.1-5.7-15.1-8.6-25.3-14.3c10-5.7,15-8.6,25-14.3
									C592.9,881.3,598,884.2,608.1,889.9z"/>
									<path class="st13" d="M644.9,868.7c-10,5.7-15,8.6-25,14.3c-10.1-5.7-15.2-8.6-25.2-14.3c10-5.7,15-8.6,25-14.3
									C629.8,860.2,634.8,863,644.9,868.7z"/>
									<path class="st13" d="M681.8,847.5c-10,5.7-15,8.6-25,14.3c-10.1-5.7-15.2-8.6-25.3-14.3c10-5.7,15-8.6,25-14.3
									C666.7,839,671.7,841.8,681.8,847.5z"/>
									<path class="st13" d="M718.7,826.4c-10,5.7-15,8.6-25,14.3c-10.1-5.7-15.1-8.6-25.3-14.3c10-5.7,15-8.6,25-14.3
									C703.5,817.8,708.6,820.7,718.7,826.4z"/>
									<path class="st13" d="M755.5,805.2c-10,5.7-15,8.6-25,14.3c-10.1-5.7-15.1-8.6-25.3-14.3c10-5.7,15-8.6,25-14.3
									C740.4,796.6,745.4,799.5,755.5,805.2z"/>
									<path class="st13" d="M792.4,784c-10,5.7-15,8.6-25,14.3c-10.1-5.7-15.1-8.6-25.3-14.3c10-5.7,15-8.6,25-14.3
									C777.3,775.5,782.3,778.3,792.4,784z"/>
									<path class="st13" d="M829.3,762.9c-10,5.7-15,8.6-25,14.3c-10.1-5.7-15.2-8.6-25.3-14.3c10-5.7,15-8.6,25-14.3
									C814.1,754.3,819.2,757.2,829.3,762.9z"/>
									<path class="st13" d="M866.1,741.7c-10,5.7-15,8.6-25,14.3c-10.1-5.7-15.2-8.6-25.3-14.3c10-5.7,15-8.6,25-14.3
									C851,733.1,856,736,866.1,741.7z"/>
									<path class="st13" d="M903,720.5c-10,5.7-15,8.6-25,14.3c-10.1-5.7-15.2-8.6-25.3-14.3c10-5.7,15-8.6,25-14.3
									C887.9,712,892.9,714.8,903,720.5z"/>
									<path class="st13" d="M939.9,699.4c-10,5.7-15,8.6-25,14.3c-10.1-5.7-15.1-8.6-25.3-14.3c10-5.7,15-8.6,25-14.3
									C924.7,690.8,929.8,693.6,939.9,699.4z"/>
									<path class="st13" d="M976.7,678.2c-10,5.7-15,8.6-25,14.3c-10.1-5.7-15.2-8.6-25.3-14.3c10-5.7,15-8.6,25-14.3
									C961.6,669.6,966.6,672.5,976.7,678.2z"/>
									<path class="st13" d="M606.6,931.1c-10,5.7-15,8.6-25,14.3c-10.1-5.7-15.1-8.6-25.3-14.3c10-5.7,15-8.6,25-14.3
									C591.5,922.5,596.5,925.4,606.6,931.1z"/>
									<path class="st13" d="M643.5,909.9c-10,5.7-15,8.6-25,14.3c-10.1-5.7-15.1-8.6-25.3-14.3c10-5.7,15-8.6,25-14.3
									C628.4,901.4,633.4,904.2,643.5,909.9z"/>
									<path class="st13" d="M680.4,888.8c-10,5.7-15,8.6-25,14.3c-10.1-5.7-15.2-8.6-25.3-14.3c10-5.7,15-8.6,25-14.3
									C665.2,880.2,670.3,883,680.4,888.8z"/>
									<path class="st13" d="M717.2,867.6c-10,5.7-15,8.6-25,14.3c-10.1-5.7-15.2-8.6-25.3-14.3c10-5.7,15-8.6,25-14.3
									C702.1,859,707.1,861.9,717.2,867.6z"/>
									<path class="st13" d="M754.1,846.4c-10,5.7-15,8.6-25,14.3c-10.1-5.7-15.1-8.6-25.3-14.3c10-5.7,15-8.6,25-14.3
									C739,837.8,744,840.7,754.1,846.4z"/>
									<path class="st13" d="M791,825.2c-10,5.7-15,8.6-25,14.3c-10.1-5.7-15.1-8.6-25.2-14.3c10-5.7,15-8.6,25-14.3
									C775.8,816.7,780.9,819.5,791,825.2z"/>
									<path class="st13" d="M827.8,804.1c-10,5.7-15,8.6-25,14.3c-10.1-5.7-15.1-8.6-25.3-14.3c10-5.7,15-8.6,25-14.3
									C812.7,795.5,817.8,798.4,827.8,804.1z"/>
									<path class="st13" d="M864.7,782.9c-10,5.7-15,8.6-25,14.3c-10.1-5.7-15.2-8.6-25.3-14.3c10-5.7,15-8.6,25-14.3
									C849.6,774.3,854.6,777.2,864.7,782.9z"/>
									<path class="st13" d="M901.6,761.7c-10,5.7-15,8.6-25,14.3c-10.1-5.7-15.2-8.6-25.3-14.3c10-5.7,15-8.6,25-14.3
									C886.4,753.2,891.5,756,901.6,761.7z"/>
									<path class="st13" d="M938.4,740.6c-10,5.7-15,8.6-25,14.3c-10.1-5.7-15.1-8.6-25.2-14.3c10-5.7,15-8.6,25-14.3
									C923.3,732,928.3,734.8,938.4,740.6z"/>
									<path class="st13" d="M991.2,710.2c-16.4,9.4-24.5,14.1-40.9,23.5c-10.1-5.7-15.2-8.6-25.3-14.3
									c16.4-9.4,24.5-14.1,40.9-23.5C976.1,701.7,981.1,704.5,991.2,710.2z"/>
									<path class="st13" d="M1012.2,698.2c-10,5.7-15,8.6-25,14.3c-10.1-5.7-15.1-8.6-25.3-14.3c10-5.7,15-8.6,25-14.3
									C997,689.7,1002.1,692.5,1012.2,698.2z"/>
									<path class="st13" d="M647,953.9c-10,5.7-15,8.6-25,14.3c-10.1-5.7-15.1-8.6-25.3-14.3c10-5.7,15-8.6,25-14.3
									C631.8,945.3,636.9,948.2,647,953.9z"/>
									<path class="st13" d="M683.9,932.7c-10,5.7-15,8.6-25,14.3c-10.1-5.7-15.1-8.6-25.3-14.3c10-5.7,15-8.6,25-14.3
									C668.7,924.2,673.8,927,683.9,932.7z"/>
									<path class="st13" d="M720.7,911.6c-10,5.7-15,8.6-25,14.3c-10.1-5.7-15.1-8.6-25.2-14.3c10-5.7,15-8.6,25-14.3
									C705.6,903,710.6,905.8,720.7,911.6z"/>
									<path class="st13" d="M941.9,784.5c-69.8,40.1-139.5,80.1-209.3,120.2c-10.1-5.7-15.2-8.6-25.3-14.3
									c69.8-40.1,139.5-80.1,209.3-120.2C926.8,776,931.8,778.8,941.9,784.5z"/>
									<path class="st13" d="M978.8,763.4c-10,5.7-15,8.6-25,14.3c-10.1-5.7-15.1-8.6-25.2-14.3c10-5.7,15-8.6,25-14.3
									C963.6,754.8,968.7,757.7,978.8,763.4z"/>
									<path class="st13" d="M1015.7,742.2c-10,5.7-15,8.6-25,14.3c-10.1-5.7-15.1-8.6-25.3-14.3c10-5.7,15-8.6,25-14.3
									C1000.5,733.6,1005.6,736.5,1015.7,742.2z"/>
									<path class="st13" d="M1052.5,721c-10,5.7-15,8.6-25,14.3c-10.1-5.7-15.1-8.6-25.2-14.3c10-5.7,15-8.6,25-14.3
									C1037.4,712.5,1042.4,715.3,1052.5,721z"/>
								</g>
							</g>
							<polygon class="st13" points="770.9,915 943,815.6 1041.4,876.2 869.3,975.6 						"/>
						</g>
					</g>
				</g>
			</g>
			<g>
				<g class="st17">
					<g>
						<g>
							<path class="st18" d="M912.6,863.6C912.5,863.6,912.5,863.6,912.6,863.6c-1.6,0-3.2-0.1-4.8-0.1c-1.3,0-2.3-1.1-2.3-2.4
							c0-1.3,1.1-2.3,2.4-2.3c1.6,0.1,3.1,0.1,4.6,0.1c1.3,0,2.3,1.1,2.3,2.4C914.9,862.5,913.8,863.6,912.6,863.6z"/>
						</g>
						<g>
							<path class="st18" d="M921.9,863.6c-1.3,0-2.3-1-2.3-2.3c0-1.3,1-2.3,2.3-2.4c3.2,0,6.3-0.1,9.2-0.2c1.4-0.1,2.4,1,2.4,2.2
							c0,1.3-1,2.4-2.2,2.4C928.3,863.5,925.1,863.6,921.9,863.6C921.9,863.6,921.9,863.6,921.9,863.6z M940.5,862.9
							c-1.2,0-2.2-0.9-2.3-2.2c-0.1-1.3,0.9-2.4,2.1-2.5c3.1-0.2,6.2-0.6,9.2-0.9c1.3-0.2,2.4,0.8,2.6,2c0.2,1.3-0.7,2.4-2,2.6
							c-3,0.4-6.2,0.7-9.4,0.9C940.6,862.9,940.6,862.9,940.5,862.9z M959,860.6c-1.1,0-2.1-0.8-2.3-1.9c-0.2-1.3,0.6-2.5,1.9-2.7
							c3.1-0.5,6.1-1.2,9-1.8c1.2-0.3,2.5,0.5,2.8,1.7c0.3,1.3-0.5,2.5-1.7,2.8c-3,0.7-6.1,1.3-9.3,1.9
							C959.3,860.6,959.1,860.6,959,860.6z M977.1,856.3c-1,0-1.9-0.7-2.2-1.7c-0.4-1.2,0.3-2.5,1.6-2.9c2.9-0.9,5.9-1.9,8.7-2.9
							c1.2-0.5,2.6,0.2,3,1.4c0.5,1.2-0.2,2.6-1.4,3c-2.9,1.1-5.9,2.1-9,3C977.6,856.3,977.4,856.3,977.1,856.3z M994.6,849.8
							c-0.9,0-1.7-0.5-2.1-1.4c-0.5-1.2,0-2.6,1.2-3.1c2.8-1.3,5.5-2.6,8.2-4.1c1.1-0.6,2.6-0.2,3.2,0.9c0.6,1.1,0.2,2.6-0.9,3.2
							c-2.8,1.5-5.6,2.9-8.5,4.2C995.2,849.7,994.9,849.8,994.6,849.8z M1011,840.9c-0.8,0-1.5-0.4-2-1.1c-0.7-1.1-0.4-2.5,0.7-3.2
							c2.6-1.6,5.1-3.4,7.6-5.2c1-0.8,2.5-0.5,3.3,0.5c0.8,1,0.5,2.5-0.5,3.3c-2.5,1.9-5.2,3.7-7.8,5.3
							C1011.8,840.8,1011.4,840.9,1011,840.9z M1026,829.9c-0.7,0-1.3-0.3-1.8-0.8c-0.8-1-0.7-2.5,0.3-3.3c1.7-1.4,3.3-2.9,5-4.3
							c0.6-0.6,1.2-1.2,1.8-1.8c0.9-0.9,2.4-0.9,3.3,0c0.9,0.9,0.9,2.4,0,3.3c-0.6,0.6-1.3,1.2-1.9,1.9c-1.7,1.6-3.4,3.1-5.1,4.5
							C1027.1,829.7,1026.5,829.9,1026,829.9z M482.4,824.3C482.4,824.3,482.4,824.3,482.4,824.3c-3.2-0.1-6.4-0.2-9.5-0.4
							c-1.3-0.1-2.3-1.2-2.2-2.5c0.1-1.3,1.2-2.3,2.5-2.2c3,0.2,6.1,0.4,9.2,0.4c1.3,0,2.3,1.1,2.3,2.4
							C484.7,823.3,483.7,824.3,482.4,824.3z M491.7,824.2c-1.3,0-2.3-1-2.3-2.2c0-1.3,1-2.4,2.2-2.4c3-0.1,6.1-0.3,9.2-0.6
							c1.3-0.1,2.4,0.8,2.5,2.1c0.1,1.3-0.8,2.4-2.1,2.5C498.1,823.9,494.9,824.1,491.7,824.2C491.8,824.2,491.8,824.2,491.7,824.2z
							 M463.8,822.9c-0.1,0-0.2,0-0.3,0c-3.1-0.4-6.3-0.9-9.3-1.5c-1.3-0.2-2.1-1.5-1.8-2.7c0.2-1.3,1.5-2.1,2.7-1.8
							c3,0.6,6,1.1,9.1,1.5c1.3,0.2,2.2,1.3,2,2.6C466,822,465,822.9,463.8,822.9z M510.3,822.5c-1.1,0-2.1-0.8-2.3-2
							c-0.2-1.3,0.7-2.5,2-2.6c3-0.4,6.1-1,9.1-1.5c1.3-0.2,2.5,0.6,2.7,1.8c0.2,1.3-0.6,2.5-1.8,2.7c-3.1,0.6-6.2,1.1-9.3,1.6
							C510.5,822.5,510.4,822.5,510.3,822.5z M445.6,819.3c-0.2,0-0.4,0-0.6-0.1c-3-0.8-6.1-1.7-9.1-2.7c-1.2-0.4-1.9-1.7-1.5-3
							c0.4-1.2,1.7-1.9,3-1.5c2.9,1,5.8,1.9,8.8,2.6c1.2,0.3,2,1.6,1.7,2.9C447.5,818.6,446.6,819.3,445.6,819.3z M528.6,818.9
							c-1,0-2-0.7-2.3-1.8c-0.3-1.3,0.5-2.5,1.7-2.8c3-0.7,5.9-1.6,8.9-2.4c1.2-0.4,2.5,0.3,2.9,1.6c0.4,1.2-0.3,2.5-1.6,2.9
							c-3,0.9-6.1,1.8-9.1,2.5C529,818.9,528.8,818.9,528.6,818.9z M1039.4,817c-0.6,0-1.1-0.2-1.6-0.6c-0.9-0.9-1-2.4-0.1-3.3
							c2.1-2.3,4.1-4.6,6-6.9c0.8-1,2.3-1.1,3.3-0.3c1,0.8,1.1,2.3,0.3,3.3c-2,2.4-4.1,4.8-6.2,7.1
							C1040.7,816.7,1040.1,817,1039.4,817z M546.4,813.5c-1,0-1.9-0.6-2.2-1.6c-0.4-1.2,0.2-2.6,1.4-3l1.4-0.5
							c2.3-0.9,4.7-1.9,7.1-3c1.2-0.5,2.6,0,3.1,1.2c0.5,1.2,0,2.6-1.2,3.1c-2.4,1.1-4.9,2.1-7.3,3.1l-1.4,0.5
							C546.9,813.5,546.7,813.5,546.4,813.5z M427.9,813.3c-0.3,0-0.6-0.1-0.9-0.2c-2.9-1.2-5.8-2.5-8.6-3.9c-1.2-0.6-1.6-2-1.1-3.1
							c0.6-1.2,2-1.6,3.1-1.1c2.7,1.3,5.5,2.6,8.4,3.8c1.2,0.5,1.8,1.9,1.3,3.1C429.7,812.8,428.8,813.3,427.9,813.3z M563.5,806.1
							c-0.9,0-1.7-0.5-2.1-1.3c-0.6-1.2-0.1-2.6,1.1-3.1c2.8-1.3,5.5-2.8,8.2-4.2c1.1-0.6,2.6-0.2,3.2,0.9c0.6,1.1,0.2,2.6-0.9,3.2
							c-2.7,1.5-5.6,2.9-8.4,4.3C564.2,806,563.9,806.1,563.5,806.1z M411.2,805.1c-0.4,0-0.8-0.1-1.2-0.3c-2.7-1.6-5.4-3.3-8-5.1
							c-1.1-0.7-1.3-2.2-0.6-3.2c0.7-1.1,2.2-1.3,3.2-0.6c2.5,1.7,5.1,3.4,7.8,4.9c1.1,0.7,1.5,2.1,0.8,3.2
							C412.8,804.7,412,805.1,411.2,805.1z M1051.3,802.6c-0.5,0-1-0.1-1.4-0.4c-1-0.8-1.3-2.2-0.5-3.3c1.8-2.5,3.6-5.1,5.2-7.6
							c0.7-1.1,2.1-1.4,3.2-0.7c1.1,0.7,1.4,2.1,0.7,3.2c-1.7,2.6-3.5,5.2-5.3,7.8C1052.7,802.3,1052,802.6,1051.3,802.6z
							 M579.9,797.3c-0.8,0-1.6-0.4-2-1.2c-0.7-1.1-0.3-2.5,0.8-3.2c2.6-1.5,5.3-3.2,7.9-4.8c1.1-0.7,2.5-0.4,3.2,0.7
							c0.7,1.1,0.4,2.5-0.7,3.2c-2.6,1.7-5.3,3.4-8,4.9C580.8,797.2,580.3,797.3,579.9,797.3z M395.8,794.6c-0.5,0-1-0.2-1.4-0.5
							c-0.8-0.6-1.6-1.2-2.3-1.9c-0.1,0-0.1-0.1-0.2-0.2c-1.6-1.6-3.1-3.2-4.5-4.7c-0.9-1-0.8-2.4,0.2-3.3c1-0.9,2.4-0.8,3.3,0.2
							c1.3,1.5,2.7,3,4.2,4.5c0.7,0.6,1.4,1.2,2.2,1.7c1,0.8,1.2,2.3,0.4,3.3C397.1,794.3,396.5,794.6,395.8,794.6z M595.6,787.2
							c-0.7,0-1.5-0.3-1.9-1c-0.7-1.1-0.5-2.5,0.6-3.3c2.5-1.8,5-3.6,7.5-5.4c1-0.8,2.5-0.6,3.3,0.5c0.8,1,0.6,2.5-0.5,3.3
							c-2.5,1.9-5.1,3.7-7.6,5.5C596.5,787.1,596.1,787.2,595.6,787.2z M1061.2,786.8c-0.4,0-0.7-0.1-1.1-0.3c-1.1-0.6-1.6-2-1-3.2
							c1.5-2.8,2.8-5.5,3.9-8.2c0.5-1.2,1.9-1.8,3.1-1.2c1.2,0.5,1.8,1.9,1.3,3.1c-1.2,2.8-2.6,5.7-4.1,8.6
							C1062.9,786.4,1062.1,786.8,1061.2,786.8z M383.3,780.9c-0.7,0-1.4-0.3-1.9-1c-1.9-2.6-3.6-5.3-5.2-8
							c-0.6-1.1-0.2-2.6,0.9-3.2c1.1-0.6,2.5-0.2,3.2,0.9c1.5,2.6,3.1,5.2,4.9,7.6c0.8,1.1,0.5,2.5-0.5,3.3
							C384.2,780.7,383.8,780.9,383.3,780.9z M610.5,776c-0.7,0-1.4-0.3-1.8-0.9c-0.8-1-0.7-2.5,0.3-3.3c2.4-1.9,4.7-3.9,7.1-5.9
							c1-0.8,2.5-0.7,3.3,0.2c0.8,1,0.7,2.5-0.2,3.3c-2.4,2.1-4.8,4.1-7.2,6C611.5,775.8,611,776,610.5,776z M1068.4,769.6
							c-0.2,0-0.4,0-0.6-0.1c-1.2-0.4-2-1.7-1.6-2.9c0.9-3,1.5-5.9,1.9-8.8c0.2-1.3,1.3-2.2,2.6-2c1.3,0.2,2.2,1.3,2,2.6
							c-0.4,3.1-1.1,6.2-2,9.5C1070.3,769,1069.4,769.6,1068.4,769.6z M374.1,764.7c-0.9,0-1.8-0.5-2.1-1.4
							c-1.3-2.9-2.4-5.9-3.4-8.9c-0.4-1.2,0.3-2.5,1.5-2.9c1.2-0.4,2.5,0.3,2.9,1.5c0.9,2.9,2,5.8,3.2,8.5c0.5,1.2,0,2.6-1.2,3.1
							C374.7,764.6,374.4,764.7,374.1,764.7z M624.6,763.8c-0.6,0-1.3-0.2-1.7-0.7c-0.9-0.9-0.8-2.4,0.1-3.3
							c2.2-2.1,4.5-4.2,6.7-6.4c0.9-0.9,2.4-0.9,3.3,0c0.9,0.9,0.9,2.4,0,3.3c-2.2,2.2-4.5,4.4-6.8,6.5
							C625.7,763.6,625.2,763.8,624.6,763.8z M1070.6,751.2c-1.2,0-2.3-1-2.3-2.2c-0.2-3-0.7-5.9-1.5-8.6c-0.4-1.2,0.3-2.5,1.6-2.9
							c1.2-0.4,2.5,0.3,2.9,1.6c0.9,3.1,1.5,6.3,1.7,9.7c0.1,1.3-0.9,2.4-2.2,2.5C1070.7,751.2,1070.7,751.2,1070.6,751.2z
							 M637.8,750.7c-0.6,0-1.2-0.2-1.6-0.6c-0.9-0.9-1-2.4-0.1-3.3c2.1-2.2,4.2-4.5,6.3-6.8c0.9-1,2.3-1,3.3-0.2
							c1,0.9,1,2.3,0.2,3.3c-2.1,2.3-4.2,4.6-6.4,6.9C639.1,750.4,638.5,750.7,637.8,750.7z M368.8,746.9c-1.1,0-2.1-0.8-2.3-2
							c-0.5-3.1-0.9-6.3-1.2-9.4c-0.1-1.3,0.8-2.4,2.1-2.6c1.3-0.1,2.4,0.8,2.6,2.1c0.3,3,0.7,6.1,1.2,9.1c0.2,1.3-0.7,2.5-1.9,2.7
							C369,746.9,368.9,746.9,368.8,746.9z M650.3,736.8c-0.5,0-1.1-0.2-1.5-0.5c-1-0.8-1.1-2.3-0.3-3.3c2-2.3,3.9-4.8,5.9-7.2
							c0.8-1,2.3-1.2,3.3-0.4c1,0.8,1.2,2.3,0.4,3.3c-1.9,2.4-3.9,4.9-5.9,7.3C651.6,736.5,650.9,736.8,650.3,736.8z M1065.3,733.6
							c-0.8,0-1.6-0.4-2-1.1c-1.5-2.4-3.2-4.8-5.3-7c-0.9-0.9-0.8-2.4,0.1-3.3c0.9-0.9,2.4-0.8,3.3,0.1c2.3,2.4,4.3,5.1,5.9,7.8
							c0.7,1.1,0.3,2.5-0.8,3.2C1066.1,733.5,1065.7,733.6,1065.3,733.6z M367,728.3c-1.3,0-2.3-1-2.3-2.3c-0.1-1.7-0.1-3.4-0.1-5
							c0-1.5,0-3,0.1-4.4c0-1.3,1.1-2.4,2.4-2.3c1.3,0,2.3,1.1,2.3,2.4c0,1.4-0.1,2.9-0.1,4.3c0,1.6,0,3.3,0.1,4.9
							C369.4,727.2,368.4,728.3,367,728.3C367,728.3,367,728.3,367,728.3z M661.9,722.2c-0.5,0-1-0.2-1.4-0.5
							c-1-0.8-1.2-2.2-0.5-3.3c1.8-2.4,3.7-5,5.5-7.5c0.7-1.1,2.2-1.3,3.3-0.6c1.1,0.7,1.3,2.2,0.6,3.3c-1.8,2.6-3.7,5.1-5.5,7.6
							C663.3,721.9,662.6,722.2,661.9,722.2z M1052.7,720c-0.5,0-1-0.2-1.4-0.5c-2.2-1.6-4.6-3.3-7.6-5.1c-1.1-0.7-1.4-2.1-0.8-3.2
							c0.7-1.1,2.1-1.4,3.2-0.8c3,1.9,5.6,3.6,7.9,5.3c1,0.8,1.2,2.2,0.5,3.3C1054.1,719.7,1053.4,720,1052.7,720z M1036.9,710.1
							c-0.4,0-0.8-0.1-1.2-0.3l-0.9-0.5c-2.4-1.4-4.9-2.8-7.2-4.2c-1.1-0.7-1.5-2.1-0.8-3.2c0.7-1.1,2.1-1.5,3.2-0.8
							c2.3,1.4,4.7,2.8,7.1,4.2l0.9,0.5c1.1,0.6,1.5,2.1,0.9,3.2C1038.5,709.6,1037.7,710.1,1036.9,710.1z M367.5,709.7
							c-0.1,0-0.1,0-0.2,0c-1.3-0.1-2.2-1.3-2.1-2.5c0.3-3.1,0.7-6.3,1.2-9.4c0.2-1.3,1.4-2.1,2.7-2c1.3,0.2,2.1,1.4,2,2.7
							c-0.5,3-0.8,6.1-1.1,9.1C369.8,708.8,368.7,709.7,367.5,709.7z M672.6,707c-0.4,0-0.9-0.1-1.3-0.4c-1.1-0.7-1.4-2.2-0.6-3.2
							c1.7-2.5,3.4-5.1,5-7.8c0.7-1.1,2.1-1.4,3.2-0.7c1.1,0.7,1.4,2.1,0.7,3.2c-1.7,2.7-3.4,5.3-5.1,7.9
							C674.1,706.6,673.4,707,672.6,707z M1021,700.3c-0.5,0-0.9-0.1-1.4-0.4c-2.9-2.1-5.3-4.1-7.4-6.2c-0.9-0.9-0.9-2.4,0-3.3
							c0.4-0.4,1-0.6,1.5-0.7c0-0.1,0-0.3,0-0.4c0-1.3,1-2.3,2.3-2.3h0.2c0,0,0,0,0,0c2.9,0,5.8-0.3,8.5-0.9
							c1.3-0.3,2.5,0.5,2.8,1.8c0.3,1.3-0.5,2.5-1.8,2.8c-2.9,0.6-5.9,0.9-9,1c1.6,1.5,3.5,3,5.6,4.5c1.1,0.8,1.3,2.2,0.5,3.3
							C1022.5,699.9,1021.7,700.3,1021,700.3z M370.4,691.3c-0.2,0-0.3,0-0.5-0.1c-1.3-0.3-2.1-1.5-1.8-2.8c0.7-3.1,1.4-6.1,2.3-9.2
							c0.3-1.2,1.6-2,2.9-1.6c1.2,0.3,2,1.6,1.6,2.9c-0.8,2.9-1.6,5.9-2.2,8.9C372.4,690.5,371.5,691.3,370.4,691.3z M1006.8,690.6
							c-0.2,0-0.3,0-0.5,0c-3.1-0.6-6.2-1.6-9.3-2.8c-1.2-0.5-1.8-1.8-1.3-3c0.5-1.2,1.8-1.8,3-1.3c2.4,1,4.9,1.7,7.4,2.3
							c-1.6-2.9-2.8-6-3.5-9.3c-0.3-1.3,0.6-2.5,1.8-2.8c1.3-0.2,2.5,0.6,2.8,1.8c0.6,2.8,1.5,5.4,3,8c0.6,1.1,0.3,2.6-0.9,3.2
							c-0.2,0.1-0.4,0.2-0.6,0.3c0.3,0.5,0.5,1.1,0.4,1.8C1008.8,689.8,1007.9,690.6,1006.8,690.6z M1034.1,687.7
							c-0.9,0-1.7-0.5-2.1-1.4c-0.5-1.2,0-2.6,1.2-3.1c2.6-1.2,5.2-2.7,7.6-4.5c1-0.8,2.5-0.6,3.3,0.5c0.8,1,0.6,2.5-0.5,3.3
							c-2.6,2-5.5,3.7-8.4,5C1034.8,687.6,1034.5,687.7,1034.1,687.7z M989.5,683.8c-0.4,0-0.8-0.1-1.2-0.3
							c-2.7-1.7-5.4-3.6-7.8-5.8c-1-0.9-1.1-2.3-0.2-3.3c0.9-1,2.3-1.1,3.3-0.2c2.2,2,4.6,3.8,7.2,5.3c1.1,0.7,1.4,2.1,0.8,3.2
							C991.1,683.4,990.3,683.8,989.5,683.8z M1049,676.7c-0.6,0-1.1-0.2-1.6-0.6c-1-0.9-1-2.3-0.2-3.3c2.1-2.3,3.8-4.7,5-7.1
							c0.6-1.1,2-1.6,3.2-1c1.1,0.6,1.6,2,1,3.2c-1.5,2.8-3.4,5.5-5.7,8.1C1050.3,676.4,1049.7,676.7,1049,676.7z M375.4,673.3
							c-0.2,0-0.5,0-0.8-0.1c-1.2-0.4-1.9-1.7-1.5-3c0.8-2.3,1.6-4.6,2.5-6.9c0-0.1,0.1-0.1,0.1-0.2c0.3-0.6,0.6-1.2,0.9-1.8
							c0.5-1.2,1.9-1.7,3.1-1.1c1.2,0.5,1.7,1.9,1.1,3.1c-0.3,0.6-0.6,1.2-0.9,1.8c-0.9,2.2-1.7,4.4-2.4,6.6
							C377.3,672.7,376.4,673.3,375.4,673.3z M975.6,671.5c-0.7,0-1.4-0.3-1.8-0.9c-2-2.5-3.9-5.2-5.4-8c-0.6-1.1-0.2-2.6,0.9-3.2
							c1.1-0.6,2.6-0.2,3.2,0.9c1.4,2.6,3.1,5.1,5,7.4c0.8,1,0.7,2.5-0.4,3.3C976.6,671.3,976.1,671.5,975.6,671.5z M1004.4,669
							c-0.1,0-0.1,0-0.2,0c-1.3-0.1-2.2-1.2-2.2-2.5c0-0.3,0.1-0.7,0.1-1c0.4-3,1.2-5.9,2.2-8.7c0.5-1.2,1.8-1.8,3-1.3
							c1.2,0.5,1.8,1.8,1.3,3c-0.9,2.4-1.6,5-2,7.6c0,0.2,0,0.5-0.1,0.8C1006.7,668.1,1005.7,669,1004.4,669z M1057.3,660.3
							c-0.1,0-0.2,0-0.3,0c-1.3-0.2-2.2-1.3-2-2.6c0.1-0.8,0.1-1.5,0.1-2.3c0-2-0.3-4-1-5.9c-0.4-1.2,0.2-2.6,1.5-3
							c1.2-0.4,2.6,0.2,3,1.5c0.8,2.4,1.2,4.9,1.2,7.4c0,0.9-0.1,1.9-0.2,2.9C1059.4,659.4,1058.4,660.3,1057.3,660.3z M382.5,656.1
							c-0.3,0-0.6-0.1-0.9-0.2c-1.2-0.5-1.8-1.9-1.3-3.1l0.2-0.4c1.1-2.7,2.3-5.5,3.5-8.2c0.5-1.2,1.9-1.7,3.1-1.2
							c1.2,0.5,1.7,1.9,1.2,3.1c-1.2,2.7-2.3,5.4-3.4,8.1l-0.2,0.4C384.3,655.6,383.4,656.1,382.5,656.1z M966.6,655.3
							c-1,0-1.9-0.6-2.2-1.6c-1.1-3.1-1.9-6.3-2.3-9.5c-0.2-1.3,0.7-2.5,2-2.7c1.3-0.2,2.5,0.7,2.7,2c0.4,2.9,1.1,5.8,2.1,8.6
							c0.4,1.2-0.2,2.6-1.4,3C967.1,655.2,966.8,655.3,966.6,655.3z M1011,651.8c-0.5,0-0.9-0.1-1.4-0.4c-1.1-0.7-1.3-2.2-0.6-3.3
							c1.9-2.6,4.1-5.1,6.6-7.3c1-0.8,2.5-0.7,3.3,0.2c0.8,1,0.7,2.5-0.2,3.3c-2.2,1.9-4.2,4.1-5.9,6.5
							C1012.5,651.5,1011.8,651.8,1011,651.8z M1051.5,643.2c-0.6,0-1.2-0.2-1.6-0.7c-1.9-1.9-4.3-3.2-7-3.9c-1.2-0.3-2-1.6-1.6-2.9
							c0.3-1.2,1.6-2,2.9-1.6c3.5,1,6.5,2.7,9,5.1c0.9,0.9,1,2.4,0.1,3.3C1052.7,643,1052.1,643.2,1051.5,643.2z M1025.1,640.1
							c-1,0-1.8-0.6-2.2-1.5c-0.5-1.2,0.2-2.6,1.4-3c3.1-1.2,6.5-1.9,9.7-2.2c1.3-0.1,2.4,0.8,2.5,2.1c0.1,1.3-0.8,2.4-2.1,2.5
							c-2.8,0.3-5.7,0.9-8.5,2C1025.7,640,1025.4,640.1,1025.1,640.1z M390.4,639.2c-0.4,0-0.8-0.1-1.2-0.3
							c-1.1-0.7-1.5-2.1-0.8-3.2c0.5-0.8,1-1.7,1.6-2.5c1-1.7,2.2-3.5,3.7-5.5c0.8-1,2.2-1.3,3.3-0.5c1,0.8,1.3,2.2,0.5,3.3
							c-1.4,1.9-2.5,3.6-3.5,5.3c-0.6,0.8-1,1.6-1.5,2.4C392,638.8,391.2,639.2,390.4,639.2z M963.8,636.9
							C963.8,636.9,963.7,636.9,963.8,636.9c-1.3,0-2.4-1.1-2.3-2.4c0.1-3.2,0.4-6.5,1-9.7c0.2-1.3,1.4-2.1,2.7-1.9
							c1.3,0.2,2.1,1.5,1.9,2.7c-0.5,2.9-0.8,5.9-0.9,8.9C966.1,635.9,965,636.9,963.8,636.9z M401.2,624.1c-0.5,0-1-0.2-1.4-0.5
							c-1-0.8-1.2-2.3-0.4-3.3c1.8-2.3,3.6-4.8,5.3-7.4c0.7-1.1,2.1-1.4,3.2-0.7c1.1,0.7,1.4,2.1,0.7,3.2c-1.8,2.8-3.7,5.4-5.5,7.7
							C402.6,623.7,401.9,624.1,401.2,624.1z M967.1,618.7c-0.3,0-0.5,0-0.8-0.1c-1.2-0.4-1.8-1.8-1.4-3c1.1-3,2.4-5.9,4-8.8
							c0.6-1.1,2-1.6,3.2-0.9c1.1,0.6,1.6,2,0.9,3.2c-1.4,2.7-2.7,5.4-3.7,8.2C969,618.1,968.1,618.7,967.1,618.7z M412.6,609.4
							c-0.6,0-1.2-0.2-1.6-0.7c-0.9-0.9-0.9-2.4,0-3.3c2.1-2.1,4.4-4.3,7-6.5c1-0.8,2.5-0.7,3.3,0.3c0.8,1,0.7,2.5-0.3,3.3
							c-2.5,2.1-4.7,4.1-6.7,6.2C413.8,609.1,413.2,609.4,412.6,609.4z M976,602.4c-0.5,0-1-0.1-1.4-0.5c-1-0.8-1.3-2.2-0.5-3.3
							c1.2-1.5,2.4-3.1,3.7-4.6c0.7-0.9,1.5-1.8,2.3-2.7c0.8-1,2.3-1.1,3.3-0.3c1,0.8,1.1,2.3,0.3,3.3c-0.8,0.9-1.5,1.8-2.3,2.7
							c-1.3,1.4-2.4,2.9-3.5,4.3C977.4,602,976.7,602.4,976,602.4z M426.8,597.3c-0.7,0-1.4-0.3-1.9-0.9c-0.8-1-0.6-2.5,0.5-3.3
							c1.9-1.4,3.8-2.8,5.7-4.2l1.8-1.4c1-0.8,2.5-0.5,3.3,0.5c0.8,1,0.5,2.5-0.5,3.3l-1.8,1.4c-1.9,1.4-3.8,2.8-5.6,4.2
							C427.8,597.1,427.3,597.3,426.8,597.3z M988,588.1c-0.5,0-1.1-0.2-1.5-0.6c-1-0.8-1.1-2.3-0.2-3.3c2-2.4,4.1-4.7,6.2-7
							c0.8-1,2.3-1.1,3.3-0.2c1,0.9,1.1,2.3,0.2,3.3c-2,2.3-4.1,4.6-6.1,7C989.3,587.8,988.6,588.1,988,588.1z M441.7,586.1
							c-0.7,0-1.4-0.3-1.8-0.9c-0.8-1-0.6-2.5,0.4-3.3c2.6-2.1,4.9-4,7-5.9c0.9-0.9,2.4-0.8,3.3,0.1c0.9,0.9,0.8,2.4-0.1,3.3
							c-2.1,2-4.5,4-7.2,6.1C442.7,585.9,442.2,586.1,441.7,586.1z M1000.3,574.1c-0.6,0-1.1-0.2-1.5-0.6c-1-0.9-1.1-2.3-0.2-3.3
							l0.4-0.5c1.9-2.2,3.9-4.3,5.8-6.5c0.9-1,2.3-1.1,3.3-0.2c1,0.9,1.1,2.3,0.2,3.3c-1.9,2.2-3.8,4.3-5.8,6.5l-0.4,0.5
							C1001.6,573.8,1001,574.1,1000.3,574.1z M455.3,573.4c-0.5,0-1.1-0.2-1.5-0.6c-1-0.8-1.1-2.3-0.3-3.3c1.9-2.2,3.5-4.7,5-7.3
							c0.6-1.1,2-1.6,3.2-0.9c1.1,0.6,1.6,2,0.9,3.2c-1.6,2.9-3.4,5.6-5.5,8.1C456.6,573.1,455.9,573.4,455.3,573.4z M1012.7,560.1
							c-0.5,0-1.1-0.2-1.5-0.6c-1-0.8-1.1-2.3-0.2-3.3c2-2.3,4.1-4.7,6.1-7c0.8-1,2.3-1.1,3.3-0.3c1,0.8,1.1,2.3,0.3,3.3
							c-2,2.4-4.1,4.7-6.1,7.1C1014,559.9,1013.3,560.1,1012.7,560.1z M464.2,557.1c-0.2,0-0.5,0-0.7-0.1c-1.2-0.4-1.9-1.7-1.5-2.9
							c0.9-2.8,1.5-5.7,1.9-8.7c0.2-1.3,1.3-2.2,2.6-2c1.3,0.2,2.2,1.3,2,2.6c-0.4,3.2-1.1,6.4-2.1,9.5
							C466.1,556.5,465.2,557.1,464.2,557.1z M417.2,546.2c-1.5,0-2.9-0.1-4.2-0.4c-1.3-0.3-2.1-1.5-1.8-2.8
							c0.3-1.3,1.5-2.1,2.8-1.8c2.2,0.5,5,0.4,8.3-0.2c1.3-0.2,2.5,0.6,2.7,1.9c0.2,1.3-0.6,2.5-1.9,2.7
							C421,546,419,546.2,417.2,546.2z M1024.8,545.9c-0.5,0-1-0.2-1.5-0.5c-1-0.8-1.1-2.3-0.3-3.3c2-2.4,3.9-4.8,5.8-7.2
							c0.8-1,2.3-1.2,3.3-0.4c1,0.8,1.2,2.3,0.4,3.3c-1.9,2.4-3.9,4.9-5.9,7.3C1026.1,545.7,1025.4,545.9,1024.8,545.9z
							 M431.7,543.2c-1,0-1.9-0.6-2.2-1.6c-0.4-1.2,0.2-2.6,1.4-3c2.9-1,5.8-2.2,8.6-3.3c1.2-0.5,2.6,0.1,3.1,1.3
							c0.5,1.2-0.1,2.6-1.3,3.1c-2.8,1.1-5.8,2.4-8.8,3.4C432.2,543.1,432,543.2,431.7,543.2z M406.1,540.7c-0.8,0-1.6-0.4-2-1.1
							c-1.3-2.3-2.2-5.1-2.6-8.5c-0.1-0.5-0.1-1-0.1-1.5c-0.1-1.3,0.9-2.4,2.2-2.4c1.3-0.1,2.4,0.9,2.4,2.2c0,0.4,0.1,0.8,0.1,1.3
							c0.3,2.7,0.9,4.9,1.9,6.6c0.7,1.1,0.3,2.5-0.8,3.2C406.9,540.6,406.5,540.7,406.1,540.7z M466.4,538.7c-1.2,0-2.2-0.9-2.3-2.2
							c-0.2-3-0.8-5.9-1.6-8.6c-0.4-1.2,0.3-2.5,1.5-2.9c0.3-0.1,0.5-0.1,0.8-0.1c0.1-0.1,0.3-0.2,0.5-0.3c3-1.4,5.7-2.8,8.2-4.1
							c1.1-0.6,2.6-0.2,3.2,1c0.6,1.1,0.2,2.6-1,3.2c-2.5,1.3-5.3,2.7-8.2,4.1c0.6,2.4,1,4.9,1.2,7.5c0.1,1.3-0.9,2.4-2.2,2.5
							C466.5,538.7,466.5,538.7,466.4,538.7z M449.1,536.3c-0.9,0-1.8-0.6-2.2-1.5c-0.5-1.2,0.1-2.6,1.3-3c3.2-1.3,6-2.4,8.6-3.5
							c1.2-0.5,2.6,0.1,3.1,1.2c0.5,1.2-0.1,2.6-1.2,3.1c-2.7,1.1-5.4,2.2-8.7,3.5C449.6,536.3,449.4,536.3,449.1,536.3z
							 M1036.3,531.3c-0.5,0-1-0.1-1.4-0.5c-1-0.8-1.2-2.2-0.5-3.3c1.9-2.6,3.7-5.1,5.4-7.5c0.7-1.1,2.2-1.3,3.3-0.6
							c1.1,0.7,1.3,2.2,0.6,3.3c-1.7,2.5-3.6,5-5.5,7.6C1037.7,531,1037,531.3,1036.3,531.3z M405.4,522.7c-0.3,0-0.7-0.1-1-0.2
							c-1.2-0.5-1.7-1.9-1.1-3.1c1.4-3,3.6-5.7,6.4-8.1c1-0.8,2.5-0.7,3.3,0.3c0.8,1,0.7,2.5-0.3,3.3c-2.3,1.9-4,4-5.1,6.4
							C407.2,522.2,406.3,522.7,405.4,522.7z M460.8,521.2c-0.8,0-1.5-0.4-2-1.1c-1.6-2.5-3.5-4.6-5.6-6.5c-1-0.8-1.1-2.3-0.3-3.3
							c0.8-1,2.3-1.1,3.3-0.3c2.5,2.2,4.7,4.7,6.5,7.5c0.7,1.1,0.4,2.5-0.7,3.2C461.7,521,461.3,521.2,460.8,521.2z M482.7,520.2
							c-0.8,0-1.5-0.4-2-1.1c-0.7-1.1-0.4-2.5,0.7-3.2c2.8-1.8,5.2-3.6,7.2-5.3c1-0.8,2.4-0.7,3.3,0.2c0.8,1,0.7,2.5-0.2,3.3
							c-2.2,1.9-4.8,3.8-7.8,5.7C483.6,520.1,483.1,520.2,482.7,520.2z M1046.9,516c-0.4,0-0.9-0.1-1.3-0.4
							c-1.1-0.7-1.4-2.1-0.7-3.2c1.7-2.6,3.3-5.3,4.8-7.9c0.6-1.1,2.1-1.5,3.2-0.8c1.1,0.6,1.5,2.1,0.8,3.2c-1.5,2.6-3.2,5.3-4.9,8
							C1048.4,515.6,1047.7,516,1046.9,516z M419.2,510.8c-0.9,0-1.8-0.6-2.2-1.5c-0.5-1.2,0.1-2.6,1.3-3c3-1.2,6.2-2.1,9.5-2.6
							c1.3-0.2,2.5,0.7,2.7,2c0.2,1.3-0.7,2.5-2,2.7c-3,0.5-5.8,1.2-8.5,2.3C419.8,510.8,419.5,510.8,419.2,510.8z M446.6,509.7
							c-0.2,0-0.5,0-0.7-0.1c-2.6-0.9-5.5-1.4-8.5-1.6c-1.3-0.1-2.3-1.2-2.2-2.5c0.1-1.3,1.2-2.3,2.5-2.2c3.5,0.2,6.7,0.8,9.7,1.8
							c1.2,0.4,1.9,1.7,1.5,3C448.5,509.1,447.6,509.7,446.6,509.7z M496.2,507.7c-0.4,0-0.8-0.1-1.1-0.3c-1.1-0.6-1.5-2.1-0.9-3.2
							l0.1-0.2c1.4-2.5,2.4-5.2,3-7.9c0.3-1.3,1.5-2.1,2.8-1.8c1.3,0.3,2.1,1.5,1.8,2.8c-0.7,3.2-1.9,6.2-3.5,9.1l-0.1,0.2
							C497.9,507.3,497.1,507.7,496.2,507.7z M1056.3,499.9c-0.4,0-0.7-0.1-1.1-0.3c-1.1-0.6-1.6-2-1-3.2c1.4-2.7,2.8-5.5,4-8.3
							c0.5-1.2,1.9-1.7,3.1-1.2c1.2,0.5,1.7,1.9,1.2,3.1c-1.3,2.8-2.7,5.7-4.1,8.5C1057.9,499.4,1057.1,499.9,1056.3,499.9z
							 M500.2,489.7c-1.2,0-2.2-0.9-2.3-2.2c-0.2-2.8-0.8-5.7-1.8-8.6c-0.4-1.2,0.3-2.5,1.5-3c1.2-0.4,2.5,0.3,3,1.5
							c1.1,3.2,1.8,6.5,2,9.7c0.1,1.3-0.9,2.4-2.1,2.5C500.3,489.7,500.2,489.7,500.2,489.7z M1064,482.9c-0.3,0-0.6-0.1-0.9-0.2
							c-1.2-0.5-1.8-1.8-1.3-3c0.4-1.1,0.9-2.3,1.3-3.4c0.6-1.7,1.1-3.4,1.7-5.2c0.4-1.2,1.7-1.9,2.9-1.6c1.2,0.4,1.9,1.7,1.6,2.9
							c-0.6,1.8-1.1,3.6-1.7,5.4c-0.5,1.2-0.9,2.4-1.4,3.6C1065.8,482.4,1064.9,482.9,1064,482.9z M494.5,472.1
							c-0.8,0-1.6-0.4-2-1.2c-1.2-2.2-2.6-4.3-4.2-6.5c-0.2-0.3-0.5-0.6-0.7-0.9c-0.8-1-0.7-2.5,0.3-3.3c1-0.8,2.5-0.7,3.3,0.3
							c0.3,0.3,0.6,0.7,0.9,1c1.7,2.3,3.3,4.7,4.6,7c0.6,1.1,0.2,2.6-0.9,3.2C495.3,472,494.9,472.1,494.5,472.1z M1069.6,465.1
							c-0.2,0-0.4,0-0.6-0.1c-1.3-0.3-2-1.6-1.7-2.8c0.8-3,1.5-6,2.1-9c0.3-1.3,1.5-2.1,2.8-1.8c1.3,0.3,2.1,1.5,1.8,2.8
							c-0.6,3-1.3,6.1-2.1,9.2C1071.5,464.4,1070.6,465.1,1069.6,465.1z M482.8,457.7c-0.5,0-1.1-0.2-1.5-0.6
							c-2.2-1.9-4.6-3.8-7.2-5.4c-1.1-0.7-1.4-2.1-0.7-3.2c0.7-1.1,2.1-1.4,3.2-0.7c2.7,1.7,5.3,3.7,7.7,5.8c1,0.9,1.1,2.3,0.2,3.3
							C484.1,457.5,483.4,457.7,482.8,457.7z M467.1,447.7c-0.3,0-0.7-0.1-1-0.2c-2.6-1.2-5.5-2.3-8.4-3.2c-1.2-0.4-1.9-1.7-1.5-2.9
							c0.4-1.2,1.7-1.9,2.9-1.5c3.1,1,6.2,2.2,9,3.4c1.2,0.5,1.7,1.9,1.2,3.1C468.9,447.2,468,447.7,467.1,447.7z M1073.2,446.9
							c-0.1,0-0.2,0-0.3,0c-1.3-0.2-2.2-1.4-2-2.6c0.4-3.1,0.8-6.2,1-9.1c0.1-1.3,1.2-2.3,2.5-2.2c1.3,0.1,2.3,1.2,2.2,2.5
							c-0.2,3-0.5,6.2-1,9.4C1075.4,446,1074.4,446.9,1073.2,446.9z M449.5,442c-0.2,0-0.3,0-0.5-0.1c-2.4-0.5-4.9-1-7.5-1.5
							c-0.5-0.1-1.1-0.2-1.6-0.3c-1.3-0.3-2.1-1.5-1.8-2.8c0.3-1.3,1.5-2.1,2.8-1.8c0.5,0.1,0.9,0.2,1.4,0.3c2.7,0.5,5.3,1,7.8,1.5
							c1.3,0.3,2.1,1.5,1.8,2.8C451.5,441.2,450.5,442,449.5,442z M431.6,436.9c-0.4,0-0.8-0.1-1.1-0.3c-2.8-1.5-5.5-3.4-8-5.6
							c-1-0.8-1.1-2.3-0.2-3.3c0.8-1,2.3-1.1,3.3-0.2c2.3,2,4.7,3.7,7.2,5c1.1,0.6,1.6,2,0.9,3.2
							C433.2,436.5,432.4,436.9,431.6,436.9z M1074.4,428.3c-1.3,0-2.3-1-2.3-2.3c-0.1-3.1-0.3-6.2-0.7-9c-0.2-1.3,0.7-2.5,2-2.6
							c1.3-0.2,2.5,0.7,2.6,2c0.4,3,0.7,6.2,0.7,9.6C1076.8,427.2,1075.8,428.3,1074.4,428.3
							C1074.5,428.3,1074.5,428.3,1074.4,428.3z M417.5,424.9c-0.7,0-1.4-0.3-1.8-0.9c-2-2.5-3.9-5.2-5.5-8
							c-0.7-1.1-0.3-2.5,0.8-3.2c1.1-0.7,2.5-0.3,3.2,0.8c1.5,2.6,3.2,5.1,5.1,7.4c0.8,1,0.7,2.5-0.3,3.3
							C418.6,424.7,418.1,424.9,417.5,424.9z M1071.9,409.9c-1,0-2-0.7-2.2-1.7c-0.8-3-1.9-5.7-3.2-8.3c-0.6-1.2-0.1-2.6,1.1-3.1
							c1.2-0.6,2.6-0.1,3.1,1.1c1.4,2.8,2.6,5.9,3.5,9.1c0.4,1.2-0.4,2.5-1.6,2.9C1072.3,409.8,1072.1,409.9,1071.9,409.9z
							 M409.2,408.5c-1.2,0-2.2-0.9-2.3-2.1c-0.1-0.9-0.1-1.8-0.1-2.8c0-2.3,0.3-4.7,0.9-7.3c0.3-1.3,1.5-2,2.8-1.7
							c1.3,0.3,2,1.5,1.7,2.8c-0.5,2.2-0.8,4.3-0.8,6.2c0,0.8,0,1.5,0.1,2.3c0.1,1.3-0.8,2.4-2.1,2.6
							C409.3,408.5,409.2,408.5,409.2,408.5z M1063.6,393.3c-0.7,0-1.4-0.3-1.8-0.9c-1.8-2.3-3.9-4.4-6.2-6.2
							c-1-0.8-1.2-2.3-0.4-3.3c0.8-1,2.3-1.2,3.3-0.4c2.6,2,4.9,4.4,6.9,6.9c0.8,1,0.6,2.5-0.4,3.3
							C1064.6,393.2,1064.1,393.3,1063.6,393.3z M412.9,390.5c-0.3,0-0.7-0.1-1-0.2c-1.2-0.5-1.7-1.9-1.2-3.1
							c1.2-2.7,2.8-5.6,4.6-8.5c0.7-1.1,2.1-1.4,3.2-0.8c1.1,0.7,1.4,2.1,0.8,3.2c-1.7,2.7-3.1,5.4-4.3,7.9
							C414.7,390,413.8,390.5,412.9,390.5z M1049.1,381.7c-0.4,0-0.7-0.1-1.1-0.3c-0.3-0.2-0.6-0.3-0.9-0.5
							c-2.3-1.2-4.8-2.3-7.3-3.3c-1.2-0.5-1.8-1.8-1.4-3c0.5-1.2,1.8-1.8,3-1.4c2.7,1,5.3,2.2,7.8,3.5c0.3,0.1,0.6,0.3,0.9,0.5
							c1.2,0.6,1.6,2,1,3.1C1050.8,381.3,1050,381.7,1049.1,381.7z M1031.8,375c-0.2,0-0.4,0-0.6-0.1c-2.6-0.7-5.6-1.4-8.9-2.1
							c-1.3-0.3-2.1-1.5-1.8-2.8c0.3-1.3,1.5-2.1,2.8-1.8c3.5,0.7,6.5,1.4,9.2,2.2c1.2,0.3,2,1.6,1.6,2.9
							C1033.8,374.3,1032.8,375,1031.8,375z M422.6,374.6c-0.5,0-1-0.2-1.4-0.5c-1-0.8-1.2-2.2-0.5-3.3c1.9-2.5,3.9-4.9,6-7.4
							c0.9-1,2.3-1.1,3.3-0.2c1,0.9,1.1,2.3,0.2,3.3c-2.1,2.3-4,4.7-5.8,7.1C424.1,374.3,423.4,374.6,422.6,374.6z M1013.1,371.1
							l0.4-2.3l-0.5,2.3c-3-0.6-6.1-1.1-9.1-1.8c-1.3-0.3-2.1-1.5-1.8-2.8c0.3-1.3,1.5-2.1,2.8-1.8c3,0.6,6,1.2,9,1.7l-0.3,2.3
							L1013.1,371.1z M995.3,367.2c-0.2,0-0.4,0-0.6-0.1c-0.4-0.1-0.8-0.2-1.3-0.4c-2.6-0.7-5.2-1.6-7.8-2.7c-1.2-0.5-1.8-1.8-1.3-3
							c0.5-1.2,1.9-1.8,3-1.3c2.5,1,4.9,1.9,7.3,2.5l1.2,0.3c1.2,0.3,2,1.6,1.7,2.9C997.3,366.6,996.4,367.2,995.3,367.2z
							 M435,360.6c-0.6,0-1.2-0.2-1.7-0.7c-0.9-0.9-0.9-2.4,0-3.3c1.7-1.7,3.4-3.3,5-4.6c0.7-0.6,1.3-1.1,2-1.7
							c1-0.8,2.5-0.7,3.3,0.3c0.8,1,0.7,2.5-0.3,3.3c-0.7,0.6-1.3,1.1-2,1.7c-1.5,1.3-3.1,2.8-4.8,4.4
							C436.1,360.4,435.6,360.6,435,360.6z M978.1,360.3c-0.4,0-0.8-0.1-1.1-0.3c-2.7-1.5-5.5-3.1-8.2-4.9c-1.1-0.7-1.4-2.2-0.7-3.2
							c0.7-1.1,2.2-1.4,3.2-0.7c2.6,1.7,5.2,3.3,7.8,4.7c1.1,0.6,1.6,2,1,3.2C979.7,359.9,978.9,360.3,978.1,360.3z M962.5,350.1
							c-0.5,0-1-0.2-1.4-0.5c-2.5-1.9-4.9-4-7.2-6.1c-1-0.9-1-2.4-0.1-3.3c0.9-1,2.4-1,3.3-0.1c2.2,2.1,4.6,4,7,5.9
							c1,0.8,1.2,2.3,0.4,3.3C963.9,349.8,963.2,350.1,962.5,350.1z M449.1,348.4c-0.7,0-1.4-0.3-1.8-0.9c-0.8-1-0.7-2.5,0.4-3.3
							c2.4-1.9,4.9-3.9,7.4-5.8c1-0.8,2.5-0.6,3.3,0.4c0.8,1,0.6,2.5-0.4,3.3c-2.4,1.9-4.9,3.8-7.3,5.7
							C450.1,348.2,449.6,348.4,449.1,348.4z M948.9,337.4c-0.7,0-1.3-0.3-1.8-0.8c-2.3-2.7-4-5.6-5.2-8.6c-0.5-1.2,0.1-2.6,1.4-3
							c1.2-0.5,2.6,0.1,3,1.4c0.9,2.5,2.4,4.9,4.4,7.3c0.8,1,0.7,2.5-0.3,3.3C949.9,337.2,949.4,337.4,948.9,337.4z M463.9,337
							c-0.7,0-1.4-0.3-1.9-1c-0.8-1-0.5-2.5,0.5-3.3c2.5-1.8,5.1-3.7,7.6-5.5c1.1-0.7,2.5-0.5,3.3,0.6c0.7,1.1,0.5,2.5-0.6,3.3
							c-2.5,1.8-5,3.6-7.5,5.4C464.8,336.9,464.3,337,463.9,337z M479.1,326.3c-0.8,0-1.5-0.4-1.9-1c-0.7-1.1-0.4-2.5,0.6-3.2
							c2.6-1.7,5.2-3.5,7.8-5.1c1.1-0.7,2.5-0.4,3.2,0.7c0.7,1.1,0.4,2.5-0.7,3.2c-2.6,1.7-5.2,3.4-7.8,5.1
							C480,326.2,479.6,326.3,479.1,326.3z M942.6,320.3c0,0-0.1,0-0.1,0c-1.3-0.1-2.3-1.2-2.2-2.4c0.2-3.2,0.9-6.5,2.3-9.8
							c0.5-1.2,1.9-1.7,3.1-1.2c1.2,0.5,1.7,1.9,1.2,3.1c-1.2,2.8-1.8,5.5-2,8.2C944.9,319.4,943.9,320.3,942.6,320.3z M494.8,316.3
							c-0.8,0-1.6-0.4-2-1.1c-0.7-1.1-0.3-2.5,0.8-3.2c2.7-1.6,5.3-3.2,8-4.8c1.1-0.7,2.5-0.3,3.2,0.8c0.7,1.1,0.3,2.5-0.8,3.2
							c-2.7,1.6-5.3,3.2-8,4.8C495.7,316.2,495.2,316.3,494.8,316.3z M510.9,306.9c-0.8,0-1.6-0.4-2-1.2c-0.6-1.1-0.2-2.6,0.9-3.2
							c1.4-0.8,2.8-1.5,4.1-2.3l4-2.2c1.1-0.6,2.6-0.2,3.2,0.9c0.6,1.1,0.2,2.6-0.9,3.2l-4,2.2c-1.4,0.8-2.7,1.5-4.1,2.3
							C511.7,306.8,511.3,306.9,510.9,306.9z M968.3,306.7c0,0-0.1,0-0.1,0c-3.5-0.2-6.7-0.8-9.7-1.6c-1.2-0.4-2-1.6-1.6-2.9
							c0.4-1.2,1.7-2,2.9-1.6c2.6,0.7,5.5,1.2,8.7,1.4c1.3,0.1,2.3,1.2,2.2,2.5C970.5,305.8,969.5,306.7,968.3,306.7z M977.6,306.6
							c-1.2,0-2.2-0.9-2.3-2.1c-0.1-1.3,0.8-2.4,2.1-2.5c1.3-0.1,2.6-0.3,3.9-0.5c1.7-0.3,3.3-0.6,5-1c1.3-0.3,2.5,0.5,2.8,1.8
							c0.3,1.3-0.5,2.5-1.8,2.8c-1.8,0.4-3.5,0.7-5.3,1c-1.4,0.2-2.8,0.4-4.2,0.5C977.7,306.6,977.6,306.6,977.6,306.6z
							 M949.5,303.3c-0.5,0-1-0.2-1.4-0.5c-1-0.8-1.2-2.2-0.5-3.3c0,0,0,0,0,0c-2.1-1.9-3.8-4.1-5-6.6c-0.6-1.2-0.1-2.6,1.1-3.1
							c1.2-0.6,2.6-0.1,3.1,1.1c0.9,1.9,2.2,3.6,3.8,5c1.1-1.2,2.2-2.4,3.5-3.6c0.9-0.9,2.4-0.8,3.3,0.1c0.9,0.9,0.8,2.4-0.1,3.3
							c-2.3,2.1-4.3,4.4-6,6.6C950.9,303,950.2,303.3,949.5,303.3z M995.7,302.5c-1,0-1.9-0.6-2.2-1.5c-0.4-1.2,0.2-2.6,1.4-3
							c3.1-1.1,5.8-2.4,8-3.8c1.1-0.7,2.5-0.4,3.2,0.7c0.7,1.1,0.4,2.5-0.7,3.2c-2.5,1.6-5.5,3-8.9,4.2
							C996.3,302.4,996,302.5,995.7,302.5z M527.2,297.8c-0.8,0-1.6-0.4-2-1.2c-0.6-1.1-0.2-2.6,0.9-3.2l8.2-4.5
							c1.1-0.6,2.6-0.2,3.2,0.9c0.6,1.1,0.2,2.6-0.9,3.2l-8.2,4.5C528,297.7,527.6,297.8,527.2,297.8z M1010.9,292.2
							c-0.4,0-0.9-0.1-1.2-0.4c-1.1-0.7-1.4-2.1-0.7-3.2c1.1-1.8,1.7-3.6,1.7-5.7l0-0.3c0-0.5-0.1-0.9-0.1-1.3
							c-0.2-1.3,0.7-2.5,1.9-2.7c1.3-0.2,2.5,0.7,2.7,1.9c0.1,0.6,0.1,1.2,0.2,1.9c0,0.1,0,0.3,0,0.5c0,2.9-0.8,5.7-2.4,8.2
							C1012.4,291.8,1011.7,292.2,1010.9,292.2z M962.9,290.4c-0.7,0-1.4-0.3-1.9-1c-0.8-1-0.5-2.5,0.5-3.3c2.6-1.9,5.3-3.6,8.1-5.1
							c1.1-0.6,2.6-0.2,3.2,0.9c0.6,1.1,0.2,2.6-0.9,3.2c-2.7,1.5-5.2,3.1-7.7,4.8C963.8,290.3,963.4,290.4,962.9,290.4z
							 M543.5,288.8c-0.8,0-1.6-0.4-2-1.2c-0.6-1.1-0.2-2.6,0.9-3.2c2.7-1.5,5.4-3,8.2-4.5c1.1-0.6,2.6-0.2,3.2,0.9
							c0.6,1.1,0.2,2.6-0.9,3.2c-2.7,1.5-5.4,3-8.2,4.5C544.3,288.7,543.9,288.8,543.5,288.8z M942.6,285.2c-1.2,0-2.2-0.9-2.3-2.2
							c-0.1-1.1-0.1-2.3-0.1-3.5c0-2.2,0.1-4.2,0.3-6.1c0.1-1.3,1.2-2.2,2.5-2.2c1.3,0.1,2.2,1.2,2.2,2.5c-0.1,1.8-0.3,3.8-0.3,5.8
							c0,1.1,0,2.2,0.1,3.2c0.1,1.3-0.9,2.4-2.1,2.5C942.7,285.2,942.6,285.2,942.6,285.2z M979.2,281.5c-0.9,0-1.8-0.6-2.2-1.5
							c-0.5-1.2,0.1-2.6,1.3-3c3.2-1.3,6.3-2.2,9.3-2.9c1.3-0.3,2.5,0.5,2.8,1.8c0.3,1.3-0.5,2.5-1.8,2.8c-2.7,0.6-5.6,1.5-8.5,2.6
							C979.8,281.5,979.5,281.5,979.2,281.5z M559.9,279.8c-0.8,0-1.6-0.4-2.1-1.2c-0.6-1.1-0.2-2.6,0.9-3.2c2.7-1.5,5.5-3,8.2-4.5
							c1.1-0.6,2.6-0.2,3.2,0.9c0.6,1.1,0.2,2.6-0.9,3.2c-2.7,1.5-5.5,3-8.2,4.4C560.6,279.7,560.3,279.8,559.9,279.8z M997.3,277.4
							c-1.2,0-2.2-0.9-2.3-2c-0.2-1.3,0.7-2.5,2-2.6c1.8-0.2,4.1-0.5,6.3-0.5c1.4,0,2.6,0.1,3.7,0.3c1.3,0.2,2.1,1.5,1.9,2.7
							c-0.2,1.3-1.5,2.1-2.7,1.9c-0.8-0.2-1.8-0.2-2.8-0.2c-1.9,0-4.1,0.2-5.7,0.5C997.5,277.4,997.4,277.4,997.3,277.4z M576.3,271
							c-0.8,0-1.6-0.5-2.1-1.2c-0.6-1.1-0.2-2.6,1-3.2c2.8-1.5,5.5-2.9,8.3-4.4c1.1-0.6,2.6-0.2,3.2,1c0.6,1.1,0.2,2.6-1,3.2
							c-2.7,1.4-5.5,2.9-8.2,4.3C577,270.9,576.7,271,576.3,271z M943.2,266.6c-1.3,0-2.3-1-2.3-2.3c-0.1-3.1-0.5-5.8-1.4-8.4
							c-0.4-1.2,0.2-2.6,1.4-3c1.2-0.4,2.6,0.2,3,1.5c1.1,3.1,1.6,6.2,1.7,9.9C945.5,265.5,944.5,266.6,943.2,266.6
							C943.2,266.6,943.2,266.6,943.2,266.6z M592.8,262.3c-0.8,0-1.7-0.5-2.1-1.3c-0.6-1.1-0.1-2.6,1-3.1l3.3-1.7
							c1.7-0.9,3.4-1.7,5.1-2.5c1.2-0.6,2.6-0.1,3.1,1.1c0.6,1.2,0.1,2.6-1.1,3.1c-1.7,0.8-3.4,1.7-5,2.5l-3.3,1.7
							C593.5,262.2,593.2,262.3,592.8,262.3z M609.6,254.1c-0.9,0-1.7-0.5-2.1-1.4c-0.5-1.2,0-2.6,1.1-3.1c2.8-1.3,5.7-2.6,8.5-3.9
							c1.2-0.5,2.6,0,3.1,1.2c0.5,1.2,0,2.6-1.2,3.1c-2.8,1.2-5.6,2.5-8.4,3.8C610.2,254.1,609.9,254.1,609.6,254.1z M937.4,249.2
							c-0.8,0-1.5-0.4-1.9-1c-1.6-2.4-3.5-4.8-5.6-7c-0.9-0.9-0.8-2.4,0.1-3.3c0.9-0.9,2.4-0.8,3.3,0.1c2.2,2.4,4.3,4.9,6.1,7.6
							c0.7,1.1,0.4,2.5-0.6,3.2C938.3,249.1,937.8,249.2,937.4,249.2z M626.6,246.6c-0.9,0-1.8-0.5-2.2-1.4
							c-0.5-1.2,0.1-2.6,1.3-3.1c2.9-1.2,5.8-2.4,8.7-3.5c1.2-0.5,2.6,0.1,3,1.3c0.5,1.2-0.1,2.6-1.3,3c-2.9,1.1-5.7,2.3-8.6,3.5
							C627.2,246.5,626.9,246.6,626.6,246.6z M644,239.8c-1,0-1.8-0.6-2.2-1.5c-0.4-1.2,0.2-2.6,1.4-3c2.9-1.1,5.9-2.1,8.8-3.2
							c1.2-0.4,2.6,0.2,3,1.4c0.4,1.2-0.2,2.6-1.4,3c-2.9,1-5.8,2.1-8.7,3.1C644.5,239.7,644.2,239.8,644,239.8z M924.6,235.7
							c-0.5,0-1-0.2-1.4-0.5c-2.3-1.8-4.8-3.5-7.5-5c-1.1-0.7-1.5-2.1-0.8-3.2c0.7-1.1,2.1-1.5,3.2-0.8c2.8,1.7,5.5,3.5,8,5.4
							c1,0.8,1.2,2.3,0.4,3.3C926,235.4,925.3,235.7,924.6,235.7z M661.6,233.7c-1,0-1.9-0.6-2.2-1.6c-0.4-1.2,0.3-2.5,1.5-2.9
							c3-1,5.9-1.9,8.9-2.8c1.2-0.4,2.5,0.3,2.9,1.6c0.4,1.2-0.3,2.5-1.6,2.9c-3,0.9-5.9,1.8-8.9,2.8
							C662.1,233.6,661.8,233.7,661.6,233.7z M679.4,228.3c-1,0-2-0.7-2.2-1.7c-0.3-1.2,0.4-2.5,1.6-2.9c3-0.8,6-1.7,9-2.4
							c1.2-0.3,2.5,0.4,2.8,1.7c0.3,1.2-0.4,2.5-1.7,2.8c-3,0.8-6,1.6-9,2.4C679.8,228.2,679.6,228.3,679.4,228.3z M908.7,226.3
							c-0.3,0-0.6-0.1-1-0.2c-2.7-1.2-5.5-2.3-8.5-3.4c-1.2-0.4-1.9-1.8-1.4-3c0.4-1.2,1.8-1.9,3-1.4c3.1,1.1,6.1,2.3,8.8,3.5
							c1.2,0.5,1.7,1.9,1.2,3.1C910.4,225.7,909.5,226.3,908.7,226.3z M697.5,223.6c-1.1,0-2-0.7-2.3-1.8c-0.3-1.3,0.5-2.5,1.7-2.8
							c3-0.7,6.1-1.4,9.1-2.1c1.3-0.3,2.5,0.5,2.8,1.8c0.3,1.3-0.5,2.5-1.8,2.8c-3,0.7-6,1.3-9,2
							C697.8,223.6,697.6,223.6,697.5,223.6z M891.1,220c-0.2,0-0.4,0-0.6-0.1c-2.8-0.8-5.8-1.5-8.9-2.2c-1.3-0.3-2.1-1.5-1.8-2.8
							c0.3-1.3,1.5-2.1,2.8-1.8c3.2,0.7,6.3,1.5,9.2,2.3c1.2,0.3,2,1.6,1.6,2.9C893.1,219.3,892.1,220,891.1,220z M715.7,219.7
							c-1.1,0-2.1-0.8-2.3-1.9c-0.2-1.3,0.6-2.5,1.9-2.7c3.1-0.6,6.1-1.2,9.2-1.7c1.3-0.2,2.5,0.6,2.7,1.9c0.2,1.3-0.6,2.5-1.9,2.7
							c-3,0.5-6.1,1.1-9.1,1.7C716,219.7,715.8,219.7,715.7,219.7z M734.1,216.6c-1.2,0-2.2-0.9-2.3-2.1c-0.2-1.3,0.8-2.4,2-2.6
							c2.9-0.4,6-0.7,9.4-0.9c1.3-0.1,2.4,0.9,2.5,2.1c0.1,1.3-0.9,2.4-2.1,2.5c-3.4,0.3-6.4,0.6-9.2,0.9
							C734.3,216.6,734.2,216.6,734.1,216.6z M872.9,215.9c-0.1,0-0.3,0-0.4,0c-2.8-0.5-5.8-1-9.1-1.6c-1.3-0.2-2.1-1.4-1.9-2.7
							c0.2-1.3,1.4-2.1,2.7-1.9c3.4,0.5,6.4,1,9.3,1.6c1.3,0.2,2.1,1.5,1.9,2.7C875,215.1,874,215.9,872.9,215.9z M752.7,215.1
							c-1.2,0-2.3-1-2.3-2.2c-0.1-1.3,0.9-2.4,2.2-2.5c2-0.1,4-0.2,5.9-0.3l3.4-0.2c1.3-0.1,2.4,0.9,2.5,2.2
							c0.1,1.3-0.9,2.4-2.2,2.5l-3.4,0.2c-2,0.1-4,0.2-5.9,0.3C752.8,215.1,752.7,215.1,752.7,215.1z M771.3,214
							c-1.2,0-2.2-0.9-2.3-2.2c-0.1-1.3,0.9-2.4,2.2-2.5c3.4-0.2,6.4-0.5,9.2-0.8c1.3-0.1,2.4,0.8,2.6,2.1c0.1,1.3-0.8,2.4-2.1,2.6
							c-2.9,0.3-5.9,0.6-9.4,0.8C771.4,214,771.3,214,771.3,214z M854.5,213c-0.1,0-0.2,0-0.3,0l-0.8-0.1c-2.7-0.4-5.3-0.8-7.9-1.2
							l-0.6-0.1c-1.3-0.2-2.2-1.4-2-2.7c0.2-1.3,1.4-2.2,2.7-2l0.6,0.1c2.5,0.4,5.1,0.8,7.8,1.2l0.8,0.1c1.3,0.2,2.2,1.4,2,2.7
							C856.6,212.1,855.6,213,854.5,213z M789.8,211.9c-1.1,0-2.1-0.8-2.3-2c-0.2-1.3,0.6-2.5,1.9-2.7c2-0.3,3.9-0.7,5.7-1.1
							c1.1-0.2,2.3-0.5,3.4-0.7c1.3-0.2,2.5,0.6,2.7,1.9c0.2,1.3-0.6,2.5-1.9,2.7c-1.1,0.2-2.1,0.4-3.2,0.6c-1.9,0.4-3.9,0.8-6,1.1
							C790.1,211.9,789.9,211.9,789.8,211.9z M836.1,210.2c-0.1,0-0.2,0-0.3,0c-3.5-0.5-6.4-0.8-9.1-1.1c-1.3-0.1-2.2-1.3-2.1-2.5
							c0.1-1.3,1.3-2.2,2.5-2.1c2.8,0.3,5.8,0.6,9.4,1.1c1.3,0.2,2.2,1.4,2,2.6C838.2,209.4,837.2,210.2,836.1,210.2z M808.2,208.9
							c-1.2,0-2.2-0.9-2.3-2.1c-0.1-1.3,0.9-2.4,2.1-2.5c2.6-0.2,5.2-0.3,7.9-0.3c0.6,0,1.1,0,1.7,0c1.3,0,2.3,1.1,2.3,2.4
							c0,1.3-1.1,2.3-2.4,2.3c-0.5,0-1.1,0-1.6,0c-2.6,0-5,0.1-7.5,0.3C808.3,208.9,808.2,208.9,808.2,208.9z"/>
						</g>
						<g>
							<path class="st18" d="M682.9,690.6c-0.4,0-0.8-0.1-1.2-0.3c-1.1-0.7-1.5-2.1-0.8-3.2c0.8-1.3,1.6-2.7,2.3-4
							c0.6-1.1,2.1-1.5,3.2-0.9c1.1,0.6,1.5,2.1,0.9,3.2c-0.8,1.4-1.6,2.7-2.4,4.1C684.5,690.2,683.7,690.6,682.9,690.6z"/>
						</g>
					</g>
					<g>
						<polygon class="st18" points="697.4,677.1 672.8,656 638.6,649.4 737.7,587.1 725.8,658 712.6,658.9 					"/>
						<g class="st17">
							<polygon class="st18" points="692.4,656.2 737.7,587.1 672.8,656 697.6,677.2 						"/>
						</g>
						<g class="st17">
							<path class="st18" d="M692,657.8c5.6,0.1,18.1,0.4,20.6,1.1l-15.3,18.2L692,657.8z"/>
						</g>
						<g class="st17">
							<path class="st18" d="M692,657.8c5.6,0.1,18.1,0.4,20.6,1.1l-15.3,18.2L692,657.8z"/>
						</g>
					</g>
				</g>
				<g>
					<g>
						<g>
							<path class="st14" d="M911,855.8C911,855.8,911,855.8,911,855.8c-1.6,0-3.2-0.1-4.8-0.1c-1.3,0-2.3-1.1-2.3-2.4
							c0-1.3,1.1-2.3,2.4-2.3c1.6,0.1,3.1,0.1,4.6,0.1c1.3,0,2.3,1.1,2.3,2.4C913.3,854.8,912.3,855.8,911,855.8z"/>
						</g>
						<g>
							<path class="st14" d="M920.3,855.8c-1.3,0-2.3-1-2.3-2.3c0-1.3,1-2.3,2.3-2.4c3.2,0,6.3-0.1,9.2-0.2c1.4-0.1,2.4,1,2.4,2.2
							c0,1.3-1,2.4-2.2,2.4C926.7,855.7,923.5,855.8,920.3,855.8C920.3,855.8,920.3,855.8,920.3,855.8z M938.9,855.1
							c-1.2,0-2.2-0.9-2.3-2.2c-0.1-1.3,0.9-2.4,2.1-2.5c3.1-0.2,6.2-0.6,9.2-0.9c1.3-0.2,2.4,0.8,2.6,2c0.2,1.3-0.7,2.4-2,2.6
							c-3,0.4-6.2,0.7-9.4,0.9C939.1,855.1,939,855.1,938.9,855.1z M957.4,852.8c-1.1,0-2.1-0.8-2.3-1.9c-0.2-1.3,0.6-2.5,1.9-2.7
							c3.1-0.5,6.1-1.2,9-1.8c1.2-0.3,2.5,0.5,2.8,1.7c0.3,1.3-0.5,2.5-1.7,2.8c-3,0.7-6.1,1.3-9.3,1.9
							C957.7,852.8,957.6,852.8,957.4,852.8z M975.6,848.5c-1,0-1.9-0.7-2.2-1.7c-0.4-1.2,0.3-2.5,1.6-2.9c2.9-0.9,5.9-1.9,8.7-2.9
							c1.2-0.5,2.6,0.2,3,1.4c0.5,1.2-0.2,2.6-1.4,3c-2.9,1.1-5.9,2.1-9,3C976,848.5,975.8,848.5,975.6,848.5z M993,842
							c-0.9,0-1.7-0.5-2.1-1.4c-0.5-1.2,0-2.6,1.2-3.1c2.8-1.3,5.5-2.6,8.2-4.1c1.1-0.6,2.6-0.2,3.2,0.9c0.6,1.1,0.2,2.6-0.9,3.2
							c-2.8,1.5-5.6,2.9-8.5,4.2C993.7,841.9,993.3,842,993,842z M1009.4,833.1c-0.8,0-1.5-0.4-2-1.1c-0.7-1.1-0.4-2.5,0.7-3.2
							c2.6-1.6,5.1-3.4,7.6-5.2c1-0.8,2.5-0.5,3.3,0.5c0.8,1,0.5,2.5-0.5,3.3c-2.5,1.9-5.2,3.7-7.8,5.3
							C1010.3,833,1009.8,833.1,1009.4,833.1z M1024.4,822.1c-0.7,0-1.3-0.3-1.8-0.8c-0.8-1-0.7-2.5,0.3-3.3c1.7-1.4,3.3-2.9,5-4.3
							c0.6-0.6,1.2-1.2,1.8-1.8c0.9-0.9,2.4-0.9,3.3,0c0.9,0.9,0.9,2.4,0,3.3c-0.6,0.6-1.3,1.2-1.9,1.9c-1.7,1.5-3.4,3.1-5.1,4.5
							C1025.5,821.9,1025,822.1,1024.4,822.1z M480.9,816.5C480.8,816.5,480.8,816.5,480.9,816.5c-3.2-0.1-6.4-0.2-9.5-0.4
							c-1.3-0.1-2.3-1.2-2.2-2.5c0.1-1.3,1.2-2.3,2.5-2.2c3,0.2,6.1,0.4,9.2,0.4c1.3,0,2.3,1.1,2.3,2.4
							C483.2,815.5,482.1,816.5,480.9,816.5z M490.2,816.4c-1.3,0-2.3-1-2.3-2.2c0-1.3,1-2.4,2.2-2.4c3-0.1,6.1-0.3,9.2-0.6
							c1.3-0.1,2.4,0.8,2.5,2.1c0.1,1.3-0.8,2.4-2.1,2.5C496.6,816.1,493.4,816.3,490.2,816.4C490.2,816.4,490.2,816.4,490.2,816.4z
							 M462.3,815.1c-0.1,0-0.2,0-0.3,0c-3.1-0.4-6.3-0.9-9.3-1.6c-1.3-0.2-2.1-1.5-1.8-2.7c0.2-1.3,1.5-2.1,2.7-1.8
							c3,0.6,6,1.1,9.1,1.5c1.3,0.2,2.2,1.3,2,2.6C464.4,814.2,463.4,815.1,462.3,815.1z M508.7,814.7c-1.1,0-2.1-0.8-2.3-2
							c-0.2-1.3,0.7-2.5,2-2.6c3-0.4,6.1-1,9.1-1.6c1.3-0.2,2.5,0.6,2.7,1.8c0.2,1.3-0.6,2.5-1.8,2.7c-3.1,0.6-6.2,1.1-9.3,1.6
							C509,814.7,508.8,814.7,508.7,814.7z M444,811.5c-0.2,0-0.4,0-0.6-0.1c-3-0.8-6.1-1.7-9.1-2.7c-1.2-0.4-1.9-1.7-1.5-3
							c0.4-1.2,1.7-1.9,3-1.5c2.9,1,5.8,1.8,8.8,2.6c1.2,0.3,2,1.6,1.7,2.9C446,810.8,445,811.5,444,811.5z M527,811.1
							c-1,0-2-0.7-2.3-1.8c-0.3-1.3,0.5-2.5,1.7-2.8c3-0.7,5.9-1.6,8.9-2.4c1.2-0.4,2.5,0.3,2.9,1.6c0.4,1.2-0.3,2.5-1.6,2.9
							c-3,0.9-6.1,1.8-9.1,2.5C527.4,811.1,527.2,811.1,527,811.1z M1037.9,809.2c-0.6,0-1.1-0.2-1.6-0.6c-0.9-0.9-1-2.4-0.1-3.3
							c2.1-2.3,4.1-4.6,6-6.9c0.8-1,2.3-1.1,3.3-0.3c1,0.8,1.1,2.3,0.3,3.3c-2,2.4-4.1,4.8-6.2,7.1
							C1039.1,808.9,1038.5,809.2,1037.9,809.2z M544.9,805.7c-1,0-1.9-0.6-2.2-1.6c-0.4-1.2,0.2-2.6,1.4-3l1.4-0.5
							c2.3-0.9,4.7-1.9,7.1-3c1.2-0.5,2.6,0,3.1,1.2c0.5,1.2,0,2.6-1.2,3.1c-2.4,1.1-4.9,2.1-7.3,3.1l-1.4,0.5
							C545.4,805.7,545.1,805.7,544.9,805.7z M426.3,805.5c-0.3,0-0.6-0.1-0.9-0.2c-2.9-1.2-5.8-2.5-8.6-3.9c-1.2-0.6-1.6-2-1.1-3.1
							c0.6-1.2,2-1.6,3.1-1.1c2.7,1.3,5.5,2.6,8.4,3.8c1.2,0.5,1.8,1.9,1.3,3.1C428.1,805,427.3,805.5,426.3,805.5z M562,798.3
							c-0.9,0-1.7-0.5-2.1-1.3c-0.6-1.2-0.1-2.6,1.1-3.1c2.8-1.3,5.5-2.8,8.2-4.2c1.1-0.6,2.6-0.2,3.2,0.9c0.6,1.1,0.2,2.6-0.9,3.2
							c-2.7,1.5-5.6,2.9-8.4,4.3C562.7,798.2,562.3,798.3,562,798.3z M409.6,797.3c-0.4,0-0.8-0.1-1.2-0.3c-2.7-1.6-5.4-3.3-8-5.1
							c-1.1-0.7-1.3-2.2-0.6-3.2c0.7-1.1,2.2-1.3,3.2-0.6c2.5,1.7,5.1,3.4,7.8,4.9c1.1,0.7,1.5,2.1,0.8,3.2
							C411.2,796.9,410.4,797.3,409.6,797.3z M1049.7,794.8c-0.5,0-1-0.1-1.4-0.5c-1-0.8-1.3-2.2-0.5-3.3c1.8-2.5,3.6-5.1,5.2-7.6
							c0.7-1.1,2.1-1.4,3.2-0.7s1.4,2.1,0.7,3.2c-1.6,2.6-3.4,5.2-5.3,7.8C1051.1,794.5,1050.4,794.8,1049.7,794.8z M578.4,789.5
							c-0.8,0-1.6-0.4-2-1.2c-0.7-1.1-0.3-2.5,0.8-3.2c2.6-1.5,5.3-3.2,7.9-4.8c1.1-0.7,2.5-0.4,3.2,0.7c0.7,1.1,0.4,2.5-0.7,3.2
							c-2.6,1.7-5.3,3.4-8,4.9C579.2,789.4,578.8,789.5,578.4,789.5z M394.2,786.8c-0.5,0-1-0.2-1.4-0.5c-0.8-0.6-1.6-1.2-2.3-1.9
							c-0.1,0-0.1-0.1-0.2-0.2c-1.6-1.6-3.1-3.2-4.5-4.7c-0.9-1-0.8-2.4,0.2-3.3c1-0.9,2.4-0.8,3.3,0.2c1.3,1.5,2.7,3,4.2,4.5
							c0.7,0.6,1.4,1.2,2.2,1.7c1,0.8,1.2,2.3,0.4,3.3C395.6,786.5,394.9,786.8,394.2,786.8z M594.1,779.4c-0.7,0-1.5-0.3-1.9-1
							c-0.7-1.1-0.5-2.5,0.6-3.3c2.5-1.8,5-3.6,7.5-5.4c1-0.8,2.5-0.6,3.3,0.5c0.8,1,0.6,2.5-0.5,3.3c-2.5,1.9-5.1,3.7-7.6,5.5
							C595,779.3,594.5,779.4,594.1,779.4z M1059.7,779c-0.4,0-0.7-0.1-1.1-0.3c-1.1-0.6-1.6-2-1-3.2c1.5-2.8,2.8-5.5,3.9-8.2
							c0.5-1.2,1.9-1.8,3.1-1.3s1.8,1.9,1.3,3.1c-1.2,2.8-2.6,5.7-4.1,8.6C1061.3,778.6,1060.5,779,1059.7,779z M381.7,773.1
							c-0.7,0-1.4-0.3-1.9-1c-1.9-2.6-3.6-5.3-5.2-8c-0.6-1.1-0.2-2.6,0.9-3.2c1.1-0.6,2.5-0.2,3.2,0.9c1.5,2.6,3.1,5.2,4.9,7.6
							c0.8,1,0.5,2.5-0.5,3.3C382.7,772.9,382.2,773.1,381.7,773.1z M609,768.2c-0.7,0-1.4-0.3-1.8-0.9c-0.8-1-0.7-2.5,0.3-3.3
							c2.4-1.9,4.7-3.9,7.1-5.9c1-0.8,2.5-0.7,3.3,0.2c0.8,1,0.7,2.5-0.2,3.3c-2.4,2.1-4.8,4.1-7.2,6C610,768,609.5,768.2,609,768.2
							z M1066.8,761.8c-0.2,0-0.4,0-0.6-0.1c-1.2-0.4-2-1.7-1.6-2.9c0.9-3,1.5-5.9,1.9-8.8c0.2-1.3,1.3-2.2,2.6-2
							c1.3,0.2,2.2,1.3,2,2.6c-0.4,3.1-1.1,6.2-2,9.5C1068.8,761.2,1067.8,761.8,1066.8,761.8z M372.5,756.9c-0.9,0-1.8-0.5-2.1-1.4
							c-1.3-2.9-2.4-5.9-3.4-8.9c-0.4-1.2,0.3-2.5,1.5-2.9c1.2-0.4,2.5,0.3,2.9,1.5c0.9,2.9,2,5.8,3.2,8.5c0.5,1.2,0,2.6-1.2,3.1
							C373.1,756.8,372.8,756.9,372.5,756.9z M623,756c-0.6,0-1.3-0.2-1.7-0.7c-0.9-0.9-0.8-2.4,0.1-3.3c2.2-2.1,4.5-4.2,6.7-6.4
							c0.9-0.9,2.4-0.9,3.3,0c0.9,0.9,0.9,2.4,0,3.3c-2.2,2.2-4.5,4.4-6.8,6.5C624.2,755.8,623.6,756,623,756z M1069.1,743.4
							c-1.2,0-2.3-1-2.3-2.2c-0.2-3-0.7-5.9-1.5-8.6c-0.4-1.2,0.3-2.5,1.6-2.9c1.2-0.4,2.5,0.3,2.9,1.6c0.9,3.1,1.5,6.3,1.7,9.7
							c0.1,1.3-0.9,2.4-2.2,2.5C1069.2,743.4,1069.1,743.4,1069.1,743.4z M636.3,742.9c-0.6,0-1.2-0.2-1.6-0.6
							c-0.9-0.9-1-2.4-0.1-3.3c2.1-2.2,4.2-4.5,6.3-6.8c0.9-1,2.3-1,3.3-0.2c1,0.9,1,2.3,0.2,3.3c-2.1,2.3-4.2,4.6-6.4,6.9
							C637.5,742.6,636.9,742.9,636.3,742.9z M367.2,739.1c-1.1,0-2.1-0.8-2.3-2c-0.5-3.1-0.9-6.3-1.2-9.4c-0.1-1.3,0.8-2.4,2.1-2.6
							c1.3-0.1,2.4,0.8,2.6,2.1c0.3,3,0.7,6.1,1.2,9.1c0.2,1.3-0.7,2.5-1.9,2.7C367.5,739.1,367.4,739.1,367.2,739.1z M648.7,729
							c-0.5,0-1.1-0.2-1.5-0.5c-1-0.8-1.1-2.3-0.3-3.3c2-2.3,3.9-4.8,5.9-7.2c0.8-1,2.3-1.2,3.3-0.4c1,0.8,1.2,2.3,0.4,3.3
							c-1.9,2.4-3.9,4.9-5.9,7.3C650,728.7,649.4,729,648.7,729z M1063.7,725.8c-0.8,0-1.6-0.4-2-1.1c-1.5-2.4-3.2-4.8-5.3-7
							c-0.9-0.9-0.8-2.4,0.1-3.3c0.9-0.9,2.4-0.8,3.3,0.1c2.3,2.4,4.3,5.1,5.9,7.8c0.7,1.1,0.3,2.5-0.8,3.2
							C1064.5,725.7,1064.1,725.8,1063.7,725.8z M365.4,720.5c-1.3,0-2.3-1-2.3-2.3c-0.1-1.7-0.1-3.4-0.1-5c0-1.5,0-3,0.1-4.4
							c0-1.3,1.1-2.4,2.4-2.3c1.3,0,2.3,1.1,2.3,2.4c0,1.4-0.1,2.9-0.1,4.3c0,1.6,0,3.3,0.1,4.9
							C367.8,719.4,366.8,720.5,365.4,720.5C365.5,720.5,365.5,720.5,365.4,720.5z M660.3,714.4c-0.5,0-1-0.2-1.4-0.5
							c-1-0.8-1.2-2.2-0.5-3.3c1.8-2.4,3.7-5,5.5-7.5c0.7-1.1,2.2-1.3,3.3-0.6c1.1,0.7,1.3,2.2,0.6,3.3c-1.8,2.6-3.7,5.1-5.5,7.6
							C661.7,714.1,661,714.4,660.3,714.4z M1051.1,712.2c-0.5,0-1-0.1-1.4-0.5c-2.2-1.6-4.6-3.3-7.6-5.1c-1.1-0.7-1.4-2.1-0.8-3.2
							c0.7-1.1,2.1-1.4,3.2-0.8c3,1.9,5.6,3.6,7.9,5.3c1,0.8,1.2,2.2,0.5,3.3C1052.5,711.9,1051.8,712.2,1051.1,712.2z
							 M1035.3,702.3c-0.4,0-0.8-0.1-1.2-0.3l-0.9-0.5c-2.4-1.4-4.9-2.8-7.2-4.2c-1.1-0.7-1.5-2.1-0.8-3.2c0.7-1.1,2.1-1.5,3.2-0.8
							c2.3,1.4,4.7,2.8,7.1,4.2l0.9,0.5c1.1,0.6,1.5,2.1,0.9,3.2C1036.9,701.9,1036.1,702.3,1035.3,702.3z M366,701.9
							c-0.1,0-0.1,0-0.2,0c-1.3-0.1-2.2-1.3-2.1-2.5c0.3-3.1,0.7-6.3,1.2-9.4c0.2-1.3,1.4-2.1,2.7-2c1.3,0.2,2.1,1.4,2,2.7
							c-0.5,3-0.8,6.1-1.1,9.1C368.2,701,367.2,701.9,366,701.9z M671.1,699.2c-0.4,0-0.9-0.1-1.3-0.4c-1.1-0.7-1.4-2.2-0.6-3.2
							c1.7-2.5,3.4-5.1,5-7.8c0.7-1.1,2.1-1.4,3.2-0.7c1.1,0.7,1.4,2.1,0.7,3.2c-1.7,2.7-3.4,5.3-5.1,7.9
							C672.6,698.8,671.8,699.2,671.1,699.2z M1019.5,692.5c-0.5,0-0.9-0.1-1.4-0.4c-2.9-2.1-5.3-4.1-7.4-6.2
							c-0.9-0.9-0.9-2.4,0-3.3c0.4-0.4,1-0.6,1.5-0.7c0-0.1,0-0.3,0-0.4c0-1.3,1-2.3,2.3-2.3h0.2c0,0,0,0,0,0c2.9,0,5.8-0.3,8.5-0.9
							c1.3-0.3,2.5,0.5,2.8,1.8c0.3,1.3-0.5,2.5-1.8,2.8c-2.9,0.6-5.9,0.9-9,1c1.6,1.5,3.5,3,5.6,4.5c1.1,0.8,1.3,2.2,0.5,3.3
							C1020.9,692.1,1020.2,692.5,1019.5,692.5z M368.8,683.5c-0.2,0-0.3,0-0.5-0.1c-1.3-0.3-2.1-1.5-1.8-2.8
							c0.7-3.1,1.4-6.1,2.3-9.2c0.3-1.2,1.6-2,2.9-1.6c1.2,0.3,2,1.6,1.6,2.9c-0.8,3-1.6,5.9-2.2,8.9
							C370.9,682.7,369.9,683.5,368.8,683.5z M1005.2,682.8c-0.2,0-0.3,0-0.5,0c-3.1-0.6-6.2-1.6-9.3-2.8c-1.2-0.5-1.8-1.8-1.3-3
							c0.5-1.2,1.8-1.8,3-1.3c2.4,1,4.9,1.7,7.4,2.3c-1.6-2.9-2.8-6-3.5-9.3c-0.3-1.3,0.6-2.5,1.8-2.8c1.3-0.2,2.5,0.6,2.8,1.8
							c0.6,2.8,1.5,5.4,3,8c0.6,1.1,0.3,2.6-0.9,3.2c-0.2,0.1-0.4,0.2-0.6,0.3c0.3,0.5,0.5,1.1,0.4,1.8
							C1007.3,682,1006.3,682.8,1005.2,682.8z M1032.6,679.9c-0.9,0-1.7-0.5-2.1-1.4c-0.5-1.2,0-2.6,1.2-3.1
							c2.6-1.2,5.2-2.7,7.6-4.5c1-0.8,2.5-0.6,3.3,0.5c0.8,1,0.6,2.5-0.5,3.3c-2.6,2-5.5,3.7-8.4,5
							C1033.2,679.8,1032.9,679.9,1032.6,679.9z M988,676c-0.4,0-0.8-0.1-1.2-0.3c-2.7-1.7-5.4-3.6-7.8-5.8c-1-0.9-1.1-2.3-0.2-3.3
							c0.9-1,2.3-1.1,3.3-0.2c2.2,2,4.6,3.8,7.2,5.3c1.1,0.7,1.4,2.1,0.8,3.2C989.5,675.6,988.7,676,988,676z M1047.5,668.9
							c-0.6,0-1.1-0.2-1.6-0.6c-1-0.9-1-2.3-0.2-3.3c2.1-2.3,3.8-4.7,5-7.1c0.6-1.1,2-1.6,3.2-1c1.1,0.6,1.6,2,1,3.2
							c-1.5,2.8-3.4,5.5-5.7,8.1C1048.7,668.6,1048.1,668.9,1047.5,668.9z M373.8,665.5c-0.2,0-0.5,0-0.8-0.1
							c-1.2-0.4-1.9-1.7-1.5-3c0.8-2.3,1.6-4.6,2.5-6.9c0-0.1,0.1-0.1,0.1-0.2c0.3-0.6,0.6-1.2,0.9-1.8c0.5-1.2,1.9-1.7,3.1-1.1
							c1.2,0.5,1.7,1.9,1.1,3.1c-0.3,0.6-0.6,1.2-0.9,1.8c-0.9,2.2-1.7,4.4-2.4,6.6C375.7,664.9,374.8,665.5,373.8,665.5z
							 M974,663.7c-0.7,0-1.4-0.3-1.8-0.9c-2-2.5-3.9-5.2-5.4-8c-0.6-1.1-0.2-2.6,0.9-3.2c1.1-0.6,2.6-0.2,3.2,0.9
							c1.4,2.6,3.1,5.1,5,7.4c0.8,1,0.7,2.5-0.4,3.3C975.1,663.5,974.6,663.7,974,663.7z M1002.9,661.2c-0.1,0-0.1,0-0.2,0
							c-1.3-0.1-2.2-1.2-2.2-2.5c0-0.3,0.1-0.7,0.1-1c0.4-3,1.2-5.9,2.2-8.7c0.5-1.2,1.8-1.8,3-1.3c1.2,0.5,1.8,1.8,1.3,3
							c-0.9,2.4-1.6,5-2,7.6c0,0.2,0,0.5-0.1,0.8C1005.1,660.3,1004.1,661.2,1002.9,661.2z M1055.7,652.5c-0.1,0-0.2,0-0.3,0
							c-1.3-0.2-2.2-1.3-2-2.6c0.1-0.8,0.1-1.5,0.1-2.3c0-2-0.3-4-1-5.9c-0.4-1.2,0.2-2.6,1.5-3c1.2-0.4,2.6,0.2,3,1.5
							c0.8,2.4,1.2,4.9,1.2,7.4c0,0.9-0.1,1.9-0.2,2.9C1057.9,651.6,1056.9,652.5,1055.7,652.5z M380.9,648.3
							c-0.3,0-0.6-0.1-0.9-0.2c-1.2-0.5-1.8-1.9-1.3-3.1l0.2-0.4c1.1-2.7,2.3-5.5,3.5-8.2c0.5-1.2,1.9-1.7,3.1-1.2
							c1.2,0.5,1.7,1.9,1.2,3.1c-1.2,2.7-2.3,5.4-3.4,8.1l-0.2,0.4C382.7,647.8,381.8,648.3,380.9,648.3z M965,647.5
							c-1,0-1.9-0.6-2.2-1.6c-1.1-3.1-1.9-6.3-2.3-9.5c-0.2-1.3,0.7-2.5,2-2.7c1.3-0.2,2.5,0.7,2.7,2c0.4,2.9,1.1,5.8,2.1,8.6
							c0.4,1.2-0.2,2.6-1.4,3C965.5,647.4,965.3,647.5,965,647.5z M1009.5,644c-0.5,0-0.9-0.1-1.4-0.4c-1.1-0.7-1.3-2.2-0.6-3.3
							c1.9-2.6,4.1-5.1,6.6-7.3c1-0.8,2.5-0.7,3.3,0.2c0.8,1,0.8,2.5-0.2,3.3c-2.2,1.9-4.2,4.1-5.9,6.5
							C1010.9,643.7,1010.2,644,1009.5,644z M1049.9,635.4c-0.6,0-1.2-0.2-1.6-0.7c-1.9-1.9-4.3-3.2-7-3.9c-1.2-0.3-2-1.6-1.6-2.9
							c0.3-1.2,1.6-2,2.9-1.6c3.5,1,6.5,2.7,9,5.1c0.9,0.9,1,2.4,0.1,3.3C1051.1,635.2,1050.5,635.4,1049.9,635.4z M1023.6,632.3
							c-0.9,0-1.8-0.6-2.2-1.5c-0.5-1.2,0.2-2.6,1.4-3c3.1-1.2,6.5-1.9,9.7-2.2c1.3-0.1,2.4,0.8,2.5,2.1c0.1,1.3-0.8,2.4-2.1,2.5
							c-2.8,0.3-5.7,0.9-8.5,2C1024.1,632.2,1023.9,632.3,1023.6,632.3z M388.9,631.5c-0.4,0-0.8-0.1-1.2-0.3
							c-1.1-0.7-1.5-2.1-0.8-3.2c0.5-0.8,1-1.6,1.6-2.5c1-1.7,2.2-3.5,3.7-5.5c0.8-1,2.2-1.3,3.3-0.5c1,0.8,1.3,2.2,0.5,3.3
							c-1.4,1.9-2.5,3.6-3.5,5.3c-0.6,0.8-1,1.6-1.5,2.4C390.4,631.1,389.6,631.5,388.9,631.5z M962.2,629.1
							C962.2,629.1,962.2,629.1,962.2,629.1c-1.3,0-2.4-1.1-2.3-2.4c0.1-3.2,0.4-6.5,1-9.7c0.2-1.3,1.4-2.1,2.7-1.9
							c1.3,0.2,2.1,1.5,1.9,2.7c-0.5,2.9-0.8,5.9-0.9,8.9C964.5,628.1,963.5,629.1,962.2,629.1z M399.6,616.3c-0.5,0-1-0.2-1.4-0.5
							c-1-0.8-1.2-2.3-0.4-3.3c1.8-2.3,3.6-4.8,5.3-7.4c0.7-1.1,2.1-1.4,3.2-0.7c1.1,0.7,1.4,2.1,0.7,3.2c-1.8,2.8-3.7,5.4-5.5,7.7
							C401,615.9,400.3,616.3,399.6,616.3z M965.6,610.9c-0.3,0-0.5,0-0.8-0.1c-1.2-0.4-1.8-1.8-1.4-3c1.1-3,2.4-5.9,4-8.8
							c0.6-1.1,2-1.6,3.2-0.9c1.1,0.6,1.6,2,0.9,3.2c-1.4,2.7-2.7,5.4-3.7,8.2C967.4,610.3,966.5,610.9,965.6,610.9z M411.1,601.6
							c-0.6,0-1.2-0.2-1.6-0.7c-0.9-0.9-0.9-2.4,0-3.3c2.1-2.1,4.4-4.3,7-6.5c1-0.8,2.5-0.7,3.3,0.3c0.8,1,0.7,2.5-0.3,3.3
							c-2.5,2.1-4.7,4.1-6.7,6.2C412.3,601.4,411.7,601.6,411.1,601.6z M974.4,594.6c-0.5,0-1-0.1-1.4-0.5c-1-0.8-1.3-2.2-0.5-3.3
							c1.2-1.5,2.4-3.1,3.7-4.6c0.7-0.9,1.5-1.8,2.3-2.7c0.8-1,2.3-1.1,3.3-0.3c1,0.8,1.1,2.3,0.3,3.3c-0.8,0.9-1.5,1.8-2.3,2.7
							c-1.3,1.4-2.4,2.9-3.5,4.3C975.9,594.2,975.1,594.6,974.4,594.6z M425.2,589.5c-0.7,0-1.4-0.3-1.9-0.9c-0.8-1-0.6-2.5,0.5-3.3
							c1.9-1.4,3.8-2.8,5.7-4.2l1.8-1.4c1-0.8,2.5-0.5,3.3,0.5c0.8,1,0.5,2.5-0.5,3.3l-1.8,1.4c-1.9,1.4-3.8,2.8-5.6,4.2
							C426.2,589.3,425.7,589.5,425.2,589.5z M986.4,580.3c-0.5,0-1.1-0.2-1.5-0.6c-1-0.8-1.1-2.3-0.2-3.3c2-2.4,4.1-4.7,6.2-7
							c0.8-1,2.3-1.1,3.3-0.2c1,0.9,1.1,2.3,0.2,3.3c-2,2.3-4.1,4.6-6.1,7C987.7,580,987.1,580.3,986.4,580.3z M440.1,578.3
							c-0.7,0-1.4-0.3-1.8-0.9c-0.8-1-0.6-2.5,0.4-3.3c2.6-2.1,4.9-4,7-5.9c0.9-0.9,2.4-0.8,3.3,0.1c0.9,0.9,0.8,2.4-0.1,3.3
							c-2.1,2-4.5,4-7.2,6.1C441.1,578.1,440.6,578.3,440.1,578.3z M998.8,566.3c-0.6,0-1.1-0.2-1.5-0.6c-1-0.9-1.1-2.3-0.2-3.3
							l0.4-0.5c1.9-2.2,3.9-4.3,5.8-6.5c0.9-1,2.3-1.1,3.3-0.2c1,0.9,1.1,2.3,0.2,3.3c-1.9,2.2-3.8,4.3-5.8,6.5l-0.4,0.5
							C1000.1,566,999.4,566.3,998.8,566.3z M453.7,565.6c-0.5,0-1.1-0.2-1.5-0.6c-1-0.8-1.1-2.3-0.3-3.3c1.9-2.2,3.5-4.7,5-7.3
							c0.6-1.1,2-1.6,3.2-0.9c1.1,0.6,1.6,2,0.9,3.2c-1.6,2.9-3.4,5.6-5.5,8.1C455,565.3,454.4,565.6,453.7,565.6z M1011.1,552.3
							c-0.5,0-1.1-0.2-1.5-0.6c-1-0.8-1.1-2.3-0.2-3.3c2-2.3,4.1-4.7,6.1-7c0.8-1,2.3-1.1,3.3-0.3c1,0.8,1.1,2.3,0.3,3.3
							c-2,2.4-4.1,4.7-6.1,7.1C1012.4,552.1,1011.8,552.3,1011.1,552.3z M462.6,549.3c-0.2,0-0.5,0-0.7-0.1
							c-1.2-0.4-1.9-1.7-1.5-2.9c0.9-2.8,1.5-5.7,1.9-8.7c0.2-1.3,1.3-2.2,2.6-2c1.3,0.2,2.2,1.3,2,2.6c-0.4,3.2-1.1,6.4-2.1,9.5
							C464.5,548.7,463.6,549.3,462.6,549.3z M415.6,538.5c-1.5,0-2.9-0.1-4.2-0.4c-1.3-0.3-2.1-1.5-1.8-2.8
							c0.3-1.3,1.5-2.1,2.8-1.8c2.2,0.5,5,0.4,8.3-0.2c1.3-0.2,2.5,0.6,2.7,1.9c0.2,1.3-0.6,2.5-1.9,2.7
							C419.4,538.2,417.4,538.5,415.6,538.5z M1023.2,538.1c-0.5,0-1.1-0.2-1.5-0.5c-1-0.8-1.1-2.3-0.3-3.3c2-2.4,3.9-4.8,5.8-7.2
							c0.8-1,2.3-1.2,3.3-0.4c1,0.8,1.2,2.3,0.4,3.3c-1.9,2.4-3.9,4.9-5.9,7.3C1024.5,537.9,1023.9,538.1,1023.2,538.1z
							 M430.2,535.4c-1,0-1.9-0.6-2.2-1.6c-0.4-1.2,0.2-2.6,1.4-3c2.9-1,5.8-2.2,8.6-3.3c1.2-0.5,2.6,0.1,3.1,1.3
							c0.5,1.2-0.1,2.6-1.3,3.1c-2.8,1.1-5.8,2.4-8.8,3.4C430.7,535.3,430.4,535.4,430.2,535.4z M404.5,532.9c-0.8,0-1.6-0.4-2-1.1
							c-1.3-2.3-2.2-5.1-2.6-8.5c-0.1-0.5-0.1-1-0.1-1.5c-0.1-1.3,0.9-2.4,2.2-2.4c1.3-0.1,2.4,0.9,2.4,2.2c0,0.4,0.1,0.8,0.1,1.3
							c0.3,2.7,0.9,4.9,1.9,6.6c0.7,1.1,0.3,2.5-0.8,3.2C405.3,532.8,404.9,532.9,404.5,532.9z M464.9,530.9c-1.2,0-2.2-0.9-2.3-2.2
							c-0.2-3-0.8-5.9-1.6-8.6c-0.4-1.2,0.3-2.5,1.5-2.9c0.3-0.1,0.5-0.1,0.8-0.1c0.1-0.1,0.3-0.2,0.5-0.3c3-1.4,5.7-2.8,8.2-4.1
							c1.1-0.6,2.6-0.2,3.2,1c0.6,1.1,0.2,2.6-1,3.2c-2.5,1.3-5.3,2.7-8.2,4.1c0.6,2.4,1,4.9,1.2,7.5c0.1,1.3-0.9,2.4-2.2,2.5
							C465,530.9,464.9,530.9,464.9,530.9z M447.5,528.5c-0.9,0-1.8-0.6-2.2-1.5c-0.5-1.2,0.1-2.6,1.3-3c3.2-1.3,6-2.4,8.6-3.5
							c1.2-0.5,2.6,0.1,3.1,1.2c0.5,1.2-0.1,2.6-1.2,3.1c-2.7,1.1-5.4,2.2-8.7,3.5C448.1,528.5,447.8,528.5,447.5,528.5z
							 M1034.7,523.5c-0.5,0-1-0.1-1.4-0.5c-1-0.8-1.2-2.2-0.5-3.3c1.9-2.6,3.7-5.1,5.4-7.5c0.7-1.1,2.2-1.3,3.3-0.6
							c1.1,0.7,1.3,2.2,0.6,3.3c-1.7,2.5-3.6,5-5.5,7.6C1036.1,523.2,1035.4,523.5,1034.7,523.5z M403.9,514.9c-0.3,0-0.7-0.1-1-0.2
							c-1.2-0.5-1.7-1.9-1.1-3.1c1.4-3,3.6-5.7,6.4-8.1c1-0.8,2.5-0.7,3.3,0.3c0.8,1,0.7,2.5-0.3,3.3c-2.3,1.9-4,4-5.1,6.4
							C405.6,514.5,404.8,514.9,403.9,514.9z M459.3,513.4c-0.8,0-1.5-0.4-2-1.1c-1.6-2.5-3.5-4.6-5.6-6.5c-1-0.8-1.1-2.3-0.3-3.3
							c0.8-1,2.3-1.1,3.3-0.3c2.5,2.2,4.7,4.7,6.5,7.5c0.7,1.1,0.4,2.5-0.7,3.2C460.1,513.2,459.7,513.4,459.3,513.4z M481.1,512.4
							c-0.8,0-1.5-0.4-2-1.1c-0.7-1.1-0.4-2.5,0.7-3.2c2.8-1.8,5.2-3.6,7.2-5.3c1-0.8,2.4-0.7,3.3,0.2c0.8,1,0.7,2.5-0.2,3.3
							c-2.2,1.9-4.8,3.8-7.8,5.7C482,512.3,481.6,512.4,481.1,512.4z M1045.4,508.2c-0.4,0-0.9-0.1-1.3-0.4
							c-1.1-0.7-1.4-2.1-0.7-3.2c1.7-2.6,3.3-5.3,4.8-7.9c0.6-1.1,2.1-1.5,3.2-0.8c1.1,0.6,1.5,2.1,0.8,3.2c-1.5,2.6-3.2,5.3-4.9,8
							C1046.9,507.8,1046.1,508.2,1045.4,508.2z M417.6,503c-0.9,0-1.8-0.6-2.2-1.5c-0.5-1.2,0.1-2.6,1.3-3c3-1.2,6.2-2.1,9.5-2.6
							c1.3-0.2,2.5,0.7,2.7,2c0.2,1.3-0.7,2.5-2,2.7c-3,0.5-5.8,1.2-8.5,2.3C418.2,503,417.9,503,417.6,503z M445.1,501.9
							c-0.2,0-0.5,0-0.7-0.1c-2.6-0.9-5.5-1.4-8.5-1.6c-1.3-0.1-2.3-1.2-2.2-2.5c0.1-1.3,1.2-2.3,2.5-2.2c3.5,0.2,6.7,0.8,9.7,1.8
							c1.2,0.4,1.9,1.7,1.5,3C447,501.3,446,501.9,445.1,501.9z M494.7,499.9c-0.4,0-0.8-0.1-1.1-0.3c-1.1-0.6-1.5-2.1-0.9-3.2
							l0.1-0.2c1.4-2.5,2.4-5.2,3-7.9c0.3-1.3,1.5-2.1,2.8-1.8c1.3,0.3,2.1,1.5,1.8,2.8c-0.7,3.2-1.9,6.2-3.5,9.1l-0.1,0.2
							C496.3,499.5,495.5,499.9,494.7,499.9z M1054.7,492.1c-0.4,0-0.7-0.1-1.1-0.3c-1.1-0.6-1.6-2-1-3.2c1.4-2.7,2.8-5.5,4-8.3
							c0.5-1.2,1.9-1.7,3.1-1.2c1.2,0.5,1.7,1.9,1.2,3.1c-1.3,2.8-2.7,5.7-4.1,8.5C1056.4,491.6,1055.6,492.1,1054.7,492.1z
							 M498.6,481.9c-1.2,0-2.2-0.9-2.3-2.2c-0.2-2.8-0.8-5.7-1.8-8.6c-0.4-1.2,0.3-2.6,1.5-3c1.2-0.4,2.5,0.3,3,1.5
							c1.1,3.2,1.8,6.5,2,9.7c0.1,1.3-0.9,2.4-2.1,2.5C498.7,481.9,498.7,481.9,498.6,481.9z M1062.4,475.1c-0.3,0-0.6-0.1-0.9-0.2
							c-1.2-0.5-1.8-1.8-1.3-3c0.4-1.1,0.9-2.3,1.3-3.4c0.6-1.7,1.1-3.4,1.7-5.2c0.4-1.2,1.7-1.9,2.9-1.6c1.2,0.4,1.9,1.7,1.6,2.9
							c-0.6,1.8-1.1,3.6-1.7,5.4c-0.5,1.2-0.9,2.4-1.4,3.6C1064.3,474.6,1063.4,475.1,1062.4,475.1z M492.9,464.3
							c-0.8,0-1.6-0.4-2-1.2c-1.2-2.2-2.6-4.3-4.2-6.5c-0.2-0.3-0.5-0.6-0.7-0.9c-0.8-1-0.7-2.5,0.3-3.3c1-0.8,2.5-0.7,3.3,0.3
							c0.3,0.3,0.6,0.7,0.9,1c1.7,2.3,3.3,4.7,4.6,7c0.6,1.1,0.2,2.6-0.9,3.2C493.7,464.2,493.3,464.3,492.9,464.3z M1068,457.3
							c-0.2,0-0.4,0-0.6-0.1c-1.3-0.3-2-1.6-1.7-2.8c0.8-3,1.5-6,2.1-9c0.3-1.3,1.5-2.1,2.8-1.8c1.3,0.3,2.1,1.5,1.8,2.8
							c-0.6,3-1.3,6.1-2.1,9.2C1070,456.6,1069,457.3,1068,457.3z M481.2,449.9c-0.5,0-1.1-0.2-1.5-0.6c-2.2-1.9-4.6-3.8-7.2-5.4
							c-1.1-0.7-1.4-2.1-0.7-3.2c0.7-1.1,2.1-1.4,3.2-0.7c2.7,1.7,5.3,3.7,7.7,5.8c1,0.9,1.1,2.3,0.2,3.3
							C482.5,449.7,481.9,449.9,481.2,449.9z M465.6,439.9c-0.3,0-0.7-0.1-1-0.2c-2.6-1.2-5.5-2.3-8.4-3.2c-1.2-0.4-1.9-1.7-1.5-2.9
							c0.4-1.2,1.7-1.9,2.9-1.5c3.1,1,6.2,2.2,9,3.4c1.2,0.5,1.7,1.9,1.2,3.1C467.3,439.4,466.5,439.9,465.6,439.9z M1071.7,439.1
							c-0.1,0-0.2,0-0.3,0c-1.3-0.2-2.2-1.4-2-2.6c0.4-3.1,0.8-6.2,1-9.1c0.1-1.3,1.2-2.3,2.5-2.2c1.3,0.1,2.3,1.2,2.2,2.5
							c-0.2,3-0.5,6.2-1,9.4C1073.8,438.2,1072.8,439.1,1071.7,439.1z M447.9,434.2c-0.2,0-0.3,0-0.5-0.1c-2.4-0.5-4.9-1-7.5-1.5
							c-0.5-0.1-1.1-0.2-1.6-0.3c-1.3-0.3-2.1-1.5-1.8-2.8c0.3-1.3,1.5-2.1,2.8-1.8c0.5,0.1,0.9,0.2,1.4,0.3c2.7,0.5,5.3,1,7.8,1.5
							c1.3,0.3,2.1,1.5,1.8,2.8C449.9,433.4,449,434.2,447.9,434.2z M430.1,429.1c-0.4,0-0.8-0.1-1.1-0.3c-2.8-1.5-5.5-3.4-8-5.6
							c-1-0.8-1.1-2.3-0.2-3.3c0.8-1,2.3-1.1,3.3-0.2c2.3,2,4.7,3.7,7.2,5c1.1,0.6,1.6,2,0.9,3.2
							C431.7,428.7,430.9,429.1,430.1,429.1z M1072.9,420.5c-1.3,0-2.3-1-2.3-2.3c-0.1-3.1-0.3-6.2-0.7-9c-0.2-1.3,0.7-2.5,2-2.6
							c1.3-0.2,2.5,0.7,2.6,2c0.4,3,0.7,6.2,0.7,9.6C1075.2,419.4,1074.2,420.5,1072.9,420.5
							C1072.9,420.5,1072.9,420.5,1072.9,420.5z M416,417.1c-0.7,0-1.4-0.3-1.8-0.9c-2-2.5-3.9-5.2-5.5-8c-0.6-1.1-0.3-2.5,0.8-3.2
							c1.1-0.7,2.5-0.3,3.2,0.8c1.5,2.6,3.2,5.1,5.1,7.4c0.8,1,0.7,2.5-0.3,3.3C417,416.9,416.5,417.1,416,417.1z M1070.3,402.1
							c-1,0-2-0.7-2.2-1.7c-0.8-3-1.9-5.7-3.2-8.3c-0.6-1.2-0.1-2.6,1.1-3.1c1.2-0.6,2.6-0.1,3.1,1.1c1.4,2.8,2.6,5.9,3.5,9.1
							c0.4,1.2-0.4,2.5-1.6,2.9C1070.7,402,1070.5,402.1,1070.3,402.1z M407.6,400.7c-1.2,0-2.2-0.9-2.3-2.1
							c-0.1-0.9-0.1-1.8-0.1-2.8c0-2.3,0.3-4.7,0.9-7.3c0.3-1.3,1.5-2,2.8-1.7c1.3,0.3,2,1.5,1.7,2.8c-0.5,2.2-0.8,4.3-0.8,6.2
							c0,0.8,0,1.5,0.1,2.3c0.1,1.3-0.8,2.4-2.1,2.6C407.8,400.7,407.7,400.7,407.6,400.7z M1062,385.5c-0.7,0-1.4-0.3-1.8-0.9
							c-1.8-2.3-3.9-4.4-6.2-6.2c-1-0.8-1.2-2.3-0.4-3.3c0.8-1,2.3-1.2,3.3-0.4c2.6,2,4.9,4.4,6.9,6.9c0.8,1,0.6,2.5-0.4,3.3
							C1063,385.4,1062.5,385.5,1062,385.5z M411.4,382.7c-0.3,0-0.7-0.1-1-0.2c-1.2-0.5-1.7-1.9-1.2-3.1c1.2-2.7,2.8-5.6,4.6-8.5
							c0.7-1.1,2.1-1.4,3.2-0.8c1.1,0.7,1.4,2.1,0.8,3.2c-1.7,2.7-3.1,5.4-4.3,7.9C413.1,382.2,412.3,382.7,411.4,382.7z
							 M1047.6,373.9c-0.4,0-0.7-0.1-1.1-0.3c-0.3-0.2-0.6-0.3-0.9-0.5c-2.3-1.2-4.8-2.3-7.3-3.3c-1.2-0.5-1.8-1.8-1.4-3
							c0.5-1.2,1.8-1.8,3-1.4c2.7,1,5.3,2.2,7.8,3.5c0.3,0.1,0.6,0.3,0.9,0.5c1.2,0.6,1.6,2,1,3.1
							C1049.3,373.5,1048.4,373.9,1047.6,373.9z M1030.2,367.2c-0.2,0-0.4,0-0.6-0.1c-2.6-0.7-5.6-1.4-8.9-2.1
							c-1.3-0.3-2.1-1.5-1.8-2.8c0.3-1.3,1.5-2.1,2.8-1.8c3.5,0.7,6.5,1.4,9.2,2.2c1.2,0.3,2,1.6,1.6,2.9
							C1032.2,366.6,1031.3,367.2,1030.2,367.2z M421.1,366.8c-0.5,0-1-0.2-1.4-0.5c-1-0.8-1.2-2.2-0.5-3.3c1.9-2.5,3.9-4.9,6-7.4
							c0.9-1,2.3-1.1,3.3-0.2c1,0.9,1.1,2.3,0.2,3.3c-2.1,2.3-4,4.7-5.8,7.1C422.5,366.5,421.8,366.8,421.1,366.8z M1011.6,363.3
							l0.4-2.3l-0.5,2.3c-3-0.6-6.1-1.1-9.1-1.8c-1.3-0.3-2.1-1.5-1.8-2.8c0.3-1.3,1.5-2.1,2.8-1.8c3,0.6,6,1.2,9,1.7l-0.3,2.3
							L1011.6,363.3z M993.8,359.5c-0.2,0-0.4,0-0.6-0.1c-0.4-0.1-0.8-0.2-1.3-0.4c-2.6-0.7-5.2-1.6-7.8-2.7c-1.2-0.5-1.8-1.8-1.3-3
							c0.5-1.2,1.9-1.8,3-1.3c2.5,1,4.9,1.9,7.3,2.5l1.2,0.3c1.2,0.3,2,1.6,1.6,2.9C995.8,358.8,994.8,359.5,993.8,359.5z
							 M433.4,352.8c-0.6,0-1.2-0.2-1.7-0.7c-0.9-0.9-0.9-2.4,0-3.3c1.7-1.7,3.4-3.3,5-4.6c0.7-0.6,1.3-1.2,2-1.7
							c1-0.8,2.5-0.7,3.3,0.3c0.8,1,0.7,2.5-0.3,3.3c-0.7,0.6-1.3,1.1-2,1.7c-1.5,1.3-3.1,2.8-4.8,4.4
							C434.6,352.6,434,352.8,433.4,352.8z M976.5,352.5c-0.4,0-0.8-0.1-1.1-0.3c-2.7-1.5-5.5-3.1-8.2-4.9c-1.1-0.7-1.4-2.2-0.7-3.2
							c0.7-1.1,2.2-1.4,3.2-0.7c2.6,1.7,5.2,3.3,7.8,4.7c1.1,0.6,1.6,2,1,3.2C978.2,352.1,977.4,352.5,976.5,352.5z M961,342.3
							c-0.5,0-1-0.2-1.4-0.5c-2.5-1.9-4.9-4-7.2-6.1c-1-0.9-1-2.4-0.1-3.3c0.9-1,2.4-1,3.3-0.1c2.2,2.1,4.6,4,7,5.9
							c1,0.8,1.2,2.3,0.4,3.3C962.3,342,961.7,342.3,961,342.3z M447.5,340.6c-0.7,0-1.4-0.3-1.8-0.9c-0.8-1-0.7-2.5,0.4-3.3
							c2.4-1.9,4.9-3.9,7.4-5.8c1-0.8,2.5-0.6,3.3,0.4c0.8,1,0.6,2.5-0.4,3.3c-2.4,1.9-4.9,3.8-7.3,5.7
							C448.6,340.4,448,340.6,447.5,340.6z M947.3,329.6c-0.7,0-1.3-0.3-1.8-0.8c-2.3-2.7-4-5.6-5.2-8.6c-0.5-1.2,0.1-2.6,1.4-3
							c1.2-0.5,2.6,0.1,3,1.4c0.9,2.5,2.4,4.9,4.4,7.3c0.8,1,0.7,2.5-0.3,3.3C948.4,329.4,947.8,329.6,947.3,329.6z M462.3,329.3
							c-0.7,0-1.4-0.3-1.9-1c-0.8-1-0.5-2.5,0.5-3.3c2.5-1.8,5.1-3.7,7.6-5.5c1.1-0.7,2.5-0.5,3.3,0.6c0.7,1.1,0.5,2.5-0.6,3.3
							c-2.5,1.8-5,3.6-7.5,5.4C463.3,329.1,462.8,329.3,462.3,329.3z M477.6,318.6c-0.8,0-1.5-0.4-1.9-1c-0.7-1.1-0.4-2.5,0.6-3.2
							c2.6-1.7,5.2-3.5,7.8-5.1c1.1-0.7,2.5-0.4,3.2,0.7c0.7,1.1,0.4,2.5-0.7,3.2c-2.6,1.7-5.2,3.4-7.8,5.1
							C478.5,318.4,478,318.6,477.6,318.6z M941.1,312.5c0,0-0.1,0-0.1,0c-1.3-0.1-2.3-1.2-2.2-2.4c0.2-3.2,0.9-6.5,2.3-9.8
							c0.5-1.2,1.9-1.7,3.1-1.2c1.2,0.5,1.7,1.9,1.2,3.1c-1.2,2.8-1.8,5.5-2,8.2C943.3,311.6,942.3,312.5,941.1,312.5z M493.3,308.5
							c-0.8,0-1.6-0.4-2-1.1c-0.7-1.1-0.3-2.5,0.8-3.2c2.7-1.6,5.3-3.2,8-4.8c1.1-0.7,2.5-0.3,3.2,0.8c0.7,1.1,0.3,2.5-0.8,3.2
							c-2.7,1.6-5.3,3.2-8,4.8C494.1,308.4,493.7,308.5,493.3,308.5z M509.4,299.1c-0.8,0-1.6-0.4-2-1.2c-0.6-1.1-0.2-2.6,0.9-3.2
							c1.4-0.8,2.8-1.5,4.1-2.3l4-2.2c1.1-0.6,2.6-0.2,3.2,0.9c0.6,1.1,0.2,2.6-0.9,3.2l-4,2.2c-1.4,0.8-2.7,1.5-4.1,2.3
							C510.1,299,509.7,299.1,509.4,299.1z M966.7,298.9c0,0-0.1,0-0.1,0c-3.5-0.2-6.7-0.8-9.7-1.6c-1.2-0.4-2-1.6-1.6-2.9
							c0.4-1.2,1.7-2,2.9-1.6c2.6,0.7,5.5,1.2,8.7,1.4c1.3,0.1,2.3,1.2,2.2,2.5C969,298,967.9,298.9,966.7,298.9z M976,298.8
							c-1.2,0-2.2-0.9-2.3-2.1c-0.1-1.3,0.8-2.4,2.1-2.5c1.3-0.1,2.6-0.3,3.9-0.5c1.7-0.3,3.3-0.6,5-1c1.3-0.3,2.5,0.5,2.8,1.8
							c0.3,1.3-0.5,2.5-1.8,2.8c-1.8,0.4-3.5,0.7-5.3,1c-1.4,0.2-2.8,0.4-4.2,0.5C976.2,298.8,976.1,298.8,976,298.8z M947.9,295.5
							c-0.5,0-1-0.2-1.4-0.5c-1-0.8-1.2-2.2-0.5-3.3c0,0,0,0,0,0c-2.1-1.9-3.8-4.1-5-6.6c-0.6-1.2-0.1-2.6,1.1-3.1
							c1.2-0.6,2.6-0.1,3.1,1.1c0.9,1.9,2.2,3.6,3.8,5c1.1-1.2,2.2-2.4,3.5-3.6c0.9-0.9,2.4-0.8,3.3,0.1c0.9,0.9,0.8,2.4-0.1,3.3
							c-2.3,2.1-4.3,4.4-6,6.6C949.3,295.2,948.6,295.5,947.9,295.5z M994.2,294.7c-1,0-1.9-0.6-2.2-1.5c-0.4-1.2,0.2-2.6,1.4-3
							c3.1-1.1,5.8-2.4,8-3.8c1.1-0.7,2.5-0.4,3.2,0.7c0.7,1.1,0.4,2.5-0.7,3.2c-2.5,1.6-5.5,3-8.9,4.2
							C994.7,294.7,994.4,294.7,994.2,294.7z M525.7,290c-0.8,0-1.6-0.4-2-1.2c-0.6-1.1-0.2-2.6,0.9-3.2l8.2-4.5
							c1.1-0.6,2.6-0.2,3.2,0.9c0.6,1.1,0.2,2.6-0.9,3.2l-8.2,4.5C526.4,289.9,526.1,290,525.7,290z M1009.3,284.4
							c-0.4,0-0.9-0.1-1.2-0.4c-1.1-0.7-1.4-2.1-0.7-3.2c1.1-1.8,1.7-3.6,1.7-5.7l0-0.3c0-0.5-0.1-0.9-0.1-1.3
							c-0.2-1.3,0.7-2.5,1.9-2.7c1.3-0.2,2.5,0.7,2.7,1.9c0.1,0.6,0.1,1.2,0.2,1.9c0,0.1,0,0.3,0,0.5c0,2.9-0.8,5.7-2.4,8.2
							C1010.9,284,1010.1,284.4,1009.3,284.4z M961.3,282.7c-0.7,0-1.4-0.3-1.9-1c-0.8-1-0.5-2.5,0.5-3.3c2.6-1.9,5.3-3.6,8.1-5.1
							c1.1-0.6,2.6-0.2,3.2,0.9c0.6,1.1,0.2,2.6-0.9,3.2c-2.7,1.5-5.2,3.1-7.7,4.8C962.3,282.5,961.8,282.7,961.3,282.7z M542,281
							c-0.8,0-1.6-0.4-2-1.2c-0.6-1.1-0.2-2.6,0.9-3.2c2.7-1.5,5.4-3,8.2-4.5c1.1-0.6,2.6-0.2,3.2,0.9c0.6,1.1,0.2,2.6-0.9,3.2
							c-2.7,1.5-5.4,3-8.2,4.5C542.8,280.9,542.4,281,542,281z M941,277.4c-1.2,0-2.2-0.9-2.3-2.2c-0.1-1.1-0.1-2.3-0.1-3.5
							c0-2.2,0.1-4.2,0.3-6.1c0.1-1.3,1.2-2.2,2.5-2.2c1.3,0.1,2.2,1.2,2.2,2.5c-0.1,1.8-0.3,3.8-0.3,5.8c0,1.1,0,2.2,0.1,3.2
							c0.1,1.3-0.9,2.4-2.1,2.5C941.1,277.4,941.1,277.4,941,277.4z M977.7,273.7c-0.9,0-1.8-0.6-2.2-1.5c-0.5-1.2,0.1-2.6,1.3-3
							c3.2-1.3,6.3-2.2,9.3-2.9c1.3-0.3,2.5,0.5,2.8,1.8c0.3,1.3-0.5,2.5-1.8,2.8c-2.7,0.6-5.6,1.5-8.5,2.6
							C978.2,273.7,977.9,273.7,977.7,273.7z M558.3,272c-0.8,0-1.6-0.4-2.1-1.2c-0.6-1.1-0.2-2.6,0.9-3.2c2.7-1.5,5.5-3,8.2-4.5
							c1.1-0.6,2.6-0.2,3.2,0.9c0.6,1.1,0.2,2.6-0.9,3.2c-2.7,1.5-5.5,3-8.2,4.4C559.1,271.9,558.7,272,558.3,272z M995.8,269.6
							c-1.2,0-2.2-0.9-2.3-2c-0.2-1.3,0.7-2.5,2-2.6c1.8-0.2,4.1-0.5,6.3-0.5c1.4,0,2.6,0.1,3.7,0.3c1.3,0.2,2.1,1.5,1.9,2.7
							c-0.2,1.3-1.5,2.1-2.7,1.9c-0.8-0.2-1.8-0.2-2.9-0.2c-1.9,0-4.1,0.2-5.7,0.5C996,269.6,995.9,269.6,995.8,269.6z M574.7,263.2
							c-0.8,0-1.6-0.5-2.1-1.2c-0.6-1.1-0.2-2.6,1-3.2c2.8-1.5,5.5-2.9,8.3-4.4c1.1-0.6,2.6-0.2,3.2,1c0.6,1.1,0.2,2.6-1,3.2
							c-2.7,1.4-5.5,2.9-8.2,4.3C575.5,263.1,575.1,263.2,574.7,263.2z M941.6,258.8c-1.3,0-2.3-1-2.3-2.3c-0.1-3.1-0.5-5.8-1.4-8.4
							c-0.4-1.2,0.2-2.6,1.4-3c1.2-0.4,2.6,0.2,3,1.5c1.1,3.1,1.6,6.2,1.7,9.9C944,257.7,943,258.8,941.6,258.8
							C941.7,258.8,941.6,258.8,941.6,258.8z M591.3,254.5c-0.8,0-1.7-0.5-2.1-1.3c-0.6-1.1-0.1-2.6,1-3.1l3.3-1.7
							c1.7-0.9,3.4-1.7,5.1-2.5c1.2-0.6,2.6-0.1,3.1,1.1c0.6,1.2,0.1,2.6-1.1,3.1c-1.7,0.8-3.4,1.7-5,2.5l-3.3,1.7
							C592,254.5,591.6,254.5,591.3,254.5z M608,246.3c-0.9,0-1.7-0.5-2.1-1.4c-0.5-1.2,0-2.6,1.1-3.1c2.8-1.3,5.7-2.6,8.5-3.9
							c1.2-0.5,2.6,0,3.1,1.2c0.5,1.2,0,2.6-1.2,3.1c-2.8,1.2-5.6,2.5-8.4,3.8C608.7,246.3,608.3,246.3,608,246.3z M935.8,241.4
							c-0.8,0-1.5-0.4-1.9-1c-1.7-2.4-3.5-4.8-5.6-7c-0.9-0.9-0.8-2.4,0.1-3.3c0.9-0.9,2.4-0.8,3.3,0.1c2.2,2.4,4.3,4.9,6.1,7.6
							c0.7,1.1,0.4,2.5-0.6,3.2C936.7,241.3,936.2,241.4,935.8,241.4z M625.1,238.8c-0.9,0-1.8-0.5-2.2-1.4
							c-0.5-1.2,0.1-2.6,1.3-3.1c2.9-1.2,5.8-2.4,8.7-3.5c1.2-0.5,2.6,0.1,3,1.3c0.5,1.2-0.1,2.6-1.3,3c-2.9,1.1-5.7,2.3-8.6,3.5
							C625.7,238.8,625.4,238.8,625.1,238.8z M642.4,232c-1,0-1.8-0.6-2.2-1.5c-0.4-1.2,0.2-2.6,1.4-3c2.9-1.1,5.9-2.1,8.8-3.2
							c1.2-0.4,2.6,0.2,3,1.4c0.4,1.2-0.2,2.6-1.4,3c-2.9,1-5.8,2.1-8.7,3.1C642.9,231.9,642.7,232,642.4,232z M923.1,227.9
							c-0.5,0-1-0.2-1.4-0.5c-2.3-1.8-4.8-3.5-7.5-5c-1.1-0.7-1.5-2.1-0.8-3.2c0.7-1.1,2.1-1.5,3.2-0.8c2.8,1.7,5.5,3.5,8,5.4
							c1,0.8,1.2,2.3,0.4,3.3C924.5,227.6,923.8,227.9,923.1,227.9z M660,225.9c-1,0-1.9-0.6-2.2-1.6c-0.4-1.2,0.3-2.5,1.5-2.9
							c3-1,5.9-1.9,8.9-2.8c1.2-0.4,2.5,0.3,2.9,1.6c0.4,1.2-0.3,2.5-1.6,2.9c-3,0.9-5.9,1.8-8.9,2.8
							C660.5,225.8,660.3,225.9,660,225.9z M677.9,220.5c-1,0-2-0.7-2.2-1.7c-0.3-1.2,0.4-2.5,1.6-2.9c3-0.8,6-1.7,9-2.4
							c1.2-0.3,2.5,0.4,2.8,1.7c0.3,1.2-0.4,2.5-1.7,2.8c-3,0.8-6,1.6-9,2.4C678.3,220.4,678.1,220.5,677.9,220.5z M907.1,218.5
							c-0.3,0-0.6-0.1-1-0.2c-2.7-1.2-5.5-2.3-8.5-3.4c-1.2-0.4-1.9-1.8-1.4-3c0.4-1.2,1.8-1.9,3-1.4c3.1,1.1,6.1,2.3,8.8,3.5
							c1.2,0.5,1.7,1.9,1.2,3.1C908.8,218,908,218.5,907.1,218.5z M695.9,215.8c-1.1,0-2-0.7-2.3-1.8c-0.3-1.3,0.5-2.5,1.7-2.8
							c3-0.7,6.1-1.4,9.1-2.1c1.3-0.3,2.5,0.5,2.8,1.8c0.3,1.3-0.5,2.5-1.8,2.8c-3,0.6-6,1.3-9,2
							C696.3,215.8,696.1,215.8,695.9,215.8z M889.5,212.2c-0.2,0-0.4,0-0.6-0.1c-2.8-0.8-5.8-1.5-8.9-2.2c-1.3-0.3-2.1-1.5-1.8-2.8
							c0.3-1.3,1.5-2.1,2.8-1.8c3.2,0.7,6.3,1.5,9.2,2.3c1.2,0.3,2,1.6,1.6,2.9C891.5,211.6,890.6,212.2,889.5,212.2z M714.1,211.9
							c-1.1,0-2.1-0.8-2.3-1.9c-0.2-1.3,0.6-2.5,1.9-2.7c3.1-0.6,6.1-1.2,9.2-1.7c1.3-0.2,2.5,0.6,2.7,1.9c0.2,1.3-0.6,2.5-1.9,2.7
							c-3,0.5-6.1,1.1-9.1,1.7C714.4,211.9,714.3,211.9,714.1,211.9z M732.5,208.8c-1.2,0-2.2-0.9-2.3-2.1c-0.2-1.3,0.8-2.4,2-2.6
							c2.9-0.4,6-0.7,9.4-0.9c1.3-0.1,2.4,0.9,2.5,2.1c0.1,1.3-0.9,2.4-2.1,2.5c-3.4,0.3-6.4,0.6-9.2,0.9
							C732.7,208.8,732.6,208.8,732.5,208.8z M871.4,208.1c-0.1,0-0.3,0-0.4,0c-2.8-0.5-5.8-1-9.1-1.6c-1.3-0.2-2.1-1.4-1.9-2.7
							c0.2-1.3,1.4-2.1,2.7-1.9c3.4,0.5,6.4,1,9.3,1.6c1.3,0.2,2.1,1.5,1.9,2.7C873.4,207.3,872.5,208.1,871.4,208.1z M751.1,207.3
							c-1.2,0-2.3-1-2.3-2.2c-0.1-1.3,0.9-2.4,2.2-2.5c2-0.1,4-0.2,5.9-0.3l3.4-0.2c1.3-0.1,2.4,0.9,2.5,2.2
							c0.1,1.3-0.9,2.4-2.2,2.5l-3.4,0.2c-2,0.1-4,0.2-5.9,0.3C751.2,207.3,751.2,207.3,751.1,207.3z M769.7,206.2
							c-1.2,0-2.2-0.9-2.3-2.2c-0.1-1.3,0.9-2.4,2.2-2.5c3.4-0.2,6.4-0.5,9.2-0.8c1.3-0.1,2.4,0.8,2.6,2.1c0.1,1.3-0.8,2.4-2.1,2.6
							c-2.9,0.3-5.9,0.6-9.4,0.8C769.8,206.2,769.8,206.2,769.7,206.2z M852.9,205.2c-0.1,0-0.2,0-0.3,0l-0.8-0.1
							c-2.7-0.4-5.3-0.8-7.9-1.2l-0.6-0.1c-1.3-0.2-2.2-1.4-2-2.7c0.2-1.3,1.4-2.2,2.7-2l0.6,0.1c2.5,0.4,5.1,0.8,7.8,1.2l0.8,0.1
							c1.3,0.2,2.2,1.4,2,2.7C855.1,204.3,854.1,205.2,852.9,205.2z M788.2,204.1c-1.1,0-2.1-0.8-2.3-2c-0.2-1.3,0.6-2.5,1.9-2.7
							c2-0.3,3.9-0.7,5.7-1.1c1.1-0.2,2.3-0.5,3.4-0.7c1.3-0.2,2.5,0.6,2.7,1.9c0.2,1.3-0.6,2.5-1.9,2.7c-1.1,0.2-2.1,0.4-3.2,0.6
							c-1.9,0.4-3.9,0.8-6,1.1C788.5,204.1,788.4,204.1,788.2,204.1z M834.5,202.4c-0.1,0-0.2,0-0.3,0c-3.5-0.5-6.4-0.8-9.1-1.1
							c-1.3-0.1-2.2-1.3-2.1-2.5c0.1-1.3,1.3-2.2,2.5-2.1c2.8,0.3,5.8,0.6,9.4,1.1c1.3,0.2,2.2,1.4,2,2.6
							C836.6,201.6,835.6,202.4,834.5,202.4z M806.6,201.1c-1.2,0-2.2-0.9-2.3-2.1c-0.1-1.3,0.9-2.4,2.1-2.5
							c2.6-0.2,5.2-0.3,7.9-0.3c0.6,0,1.1,0,1.7,0c1.3,0,2.3,1.1,2.3,2.4c0,1.3-1.1,2.3-2.4,2.3c-0.5,0-1.1,0-1.6,0
							c-2.6,0-5,0.1-7.5,0.3C806.8,201.1,806.7,201.1,806.6,201.1z"/>
						</g>
						<g>
							<path class="st14" d="M681.4,682.8c-0.4,0-0.8-0.1-1.2-0.3c-1.1-0.7-1.5-2.1-0.8-3.2c0.8-1.3,1.6-2.7,2.3-4
							c0.6-1.1,2.1-1.5,3.2-0.9c1.1,0.6,1.5,2.1,0.9,3.2c-0.8,1.4-1.6,2.7-2.4,4.1C683,682.4,682.2,682.8,681.4,682.8z"/>
						</g>
					</g>
					<g>
						<polygon class="st14" points="695.8,669.4 671.2,648.2 637.1,641.6 736.1,579.3 724.3,650.2 711.1,651.1 					"/>
						<g class="st17">
							<polygon class="st18" points="690.8,648.4 736.1,579.3 671.2,648.2 696.1,669.4 						"/>
						</g>
						<g class="st17">
							<path class="st18" d="M690.5,650c5.6,0.1,18.1,0.4,20.6,1.1l-15.3,18.2L690.5,650z"/>
						</g>
						<g class="st17">
							<path class="st18" d="M690.5,650c5.6,0.1,18.1,0.4,20.6,1.1l-15.3,18.2L690.5,650z"/>
						</g>
					</g>
				</g>
			</g>
			<g>
				<polygon class="st19" points="561.3,638.2 548.5,648 537.8,637.9 542.8,637.6 544.2,624.6 555.3,624.6 557.7,637.3 			"/>
				<path class="st20" d="M595.8,653.6c0,0-6.2-20.7-10.9-18.8c-4.8,1.8-8,7.8-3,11.5c5,3.7,10.3,8.7,10.3,8.7L595.8,653.6z"/>
				<path class="st21" d="M563.1,642.6c0,0,7.1-0.6,12.3,11.3c5.2,11.9,12.8,33.3,14.2,30.3s-1.2-30.3-1.2-30.3l9-3
				c0,0,17.9,59.1,0.3,61.2C575.4,714.9,536.8,676,563.1,642.6z"/>
				<path class="st22" d="M598.4,916.2c0,9.8-27.3,17.8-61,17.8c-33.7,0-61-8-61-17.8c0-9.8,27.3-17.8,61-17.8
				C571.1,898.4,598.4,906.4,598.4,916.2z"/>
				<g>
					<path class="st11" d="M570.3,907c0,0,8.5,2.2,12,6.2s3.8,6.2,3.8,6.2l-30-1.8V907H570.3z"/>
					<path class="st23" d="M567.8,730.3c0,0,11,51.3,10.3,89.3c-0.7,38-7.8,87.3-7.8,87.3h-14.2c0,0,3.7-61-3-88.3
					c-6.7-27.3-16.7-88.3-16.7-88.3H567.8z"/>
				</g>
				<g>
					<path class="st11" d="M495.6,907c0,0-2,3.7,0,4.9s22.8,13.8,10.2,12.5c-10.5-1.1-25-5-25-5l4.8-15L495.6,907z"/>
					<path class="st24" d="M553.8,723.3c0,0,9,45-8.3,86.3s-49.3,99.3-49.3,99.3l-12-2.3c0,0,29.3-83.3,33.7-102
					c4.3-18.7-2.2-73.3-2.2-73.3L553.8,723.3z"/>
				</g>
				<path class="st25" d="M538.4,637.6c0,0,5.3,6.6,12.7,4.9c7.4-1.7,8.3-4.9,8.3-4.9s7.7,0.7,10.3,15.3c2.7,14.7,3.9,90.3,3.9,90.3
				l-62.8-2.3C510.8,741,509.4,643,538.4,637.6z"/>
				<g>
					<polygon class="st9" points="591.1,677.5 571.6,657 578.1,651.9 598.5,669.3 				"/>
					<path class="st26" d="M605.9,646.5c0,0,6.8,5,2.4-2.9c-3-5.4-18.4-27.7-18.7-20.9c-0.4,6.8,12.5,23,15.6,23.6"/>
					<path class="st27" d="M605.9,635.1c0,4.1-3.3,7.4-7.4,7.4c-4.1,0-7.4-3.3-7.4-7.4c0-4.1,3.3-7.4,7.4-7.4
					C602.6,627.8,605.9,631.1,605.9,635.1z"/>
					<path class="st9" d="M568.9,658c0,0,10-11.8,14.3-20.9c2.7-5.6,6.8-15.3,6.8-15.3s6.4,16.7,19,26c0,0-24.3,8.7-33.6,17.5
					L568.9,658z"/>
				</g>
				<path class="st20" d="M575.4,680.3c0,0,4-18.9,9.4-17.3c10.9,3.2-4.7,21.3-4.7,21.3L575.4,680.3z"/>
				<path class="st15" d="M538.4,645c-6.2-6.5-23.2,7.3-27,33.7c-3.2,22.6,6.4,39.5,42.7,28c22-7,30.8-20.5,30.8-20.5l-9.4-10.2
				c0,0-23,17-32.7,12.7S550.3,657.3,538.4,645z"/>
				<g>
					<path class="st20" d="M536.3,592.4c10.2-4.7,22.4,3.2,24.4,13.7c2,10.5,12.3,20.6-5.2,26.7C538,638.9,520.5,599.6,536.3,592.4z" />
					<path class="st28" d="M555,582.6c0,0,7,15.7-0.5,19.6c-7.4,3.9-18.7,6.6-16.6,10c3.4,5.3,3.8,7.2,3.8,7.2l-1.1,1l-5.4-2.7l5,9.9
					c0,0-27.2-11.8-10.1-34.2C538.5,582.6,554.6,592,555,582.6z"/>
				</g>
			</g>
			<g>
				<path class="st22" d="M981,766.5c0,10.8-27.3,19.6-61,19.6c-33.7,0-61-8.8-61-19.6c0-10.8,27.3-19.6,61-19.6
				C953.7,746.9,981,755.6,981,766.5z"/>
				<g>
					<path class="st29" d="M923.1,431.2c0,0-7.1,5.1-8.6,18.1c-1.5,13.1,3.9,17.6,6,17.3c2.1-0.3,2.1-0.3,2.1-0.3l-0.6,11l12.2-0.6
					C934.1,476.7,936.8,439.2,923.1,431.2z"/>
					<path class="st29" d="M886.2,629.3c0,0,3.3,43.1,4.8,55.9c1.5,12.8,12.5,76.8,12.5,76.8s-26.5,9.8-21.1,12.2
					c5.4,2.4,27.4,3.6,30.1-0.9c2.7-4.5,1.5-39.6,2.7-58.9c1.2-19.3-4.8-37.8-4.8-37.8l4.8-31.8L886.2,629.3z"/>
					<path class="st29" d="M925.5,642.7c0,0-0.9,27.1-0.9,32.4c0,5.4,8.3,52.4,11.3,63.4c3,11,7.4,19.9-2.7,23.8
					c-10.1,3.9-20.2,10.1-11.3,11c8.9,0.9,25.3,1.5,27.7-5.4c2.4-6.8-0.3-53.9-0.3-73.2c0-19.3-3.6-23.5-3.6-23.5l13.4-36.3
					L925.5,642.7z"/>
					<path class="st30" d="M930,473.4c0,0-38.7-1.2-39.3,14.3c-0.6,15.5,5.4,40.5,6.8,53c1.5,12.5-1.5,26.5-6.8,44
					c-5.4,17.6-16.4,47.9-13.1,51.8c3.3,3.9,19.6,12.5,41.4,12.5c21.7,0,50.9-14,50.9-14s0.6-31.8-8-51.2
					c-8.6-19.3-17-25.3-15.5-34.2c1.5-8.9,7.1-25,13.1-36.9c5.9-11.9,6.8-27.4-2.1-33.6C948.4,472.8,930,473.4,930,473.4z"/>
					<path class="st29" d="M872.5,497.8l-0.6-4.8c0,0-1.2-7.7-2.4-10.7c-1.2-3-3-6.8-3.3-3.9c-0.3,3-2.4,4.2-3.3,2.4
					c-0.9-1.8-6.5-11-6-5.4c0.6,5.7,1.2,10.4,4.8,16.7c3.6,6.2,6.8,8.9,6.8,8.9L872.5,497.8z"/>
					<path class="st28" d="M938,423.4c-8.5-1.6-22.9,5.4-19.9,17.3c3,11.9,15.8,16.7,11.9,25.6c-3.9,8.9-20.8,26.8-16.1,41.1
					c4.8,14.3,11,25.6,26.2,18.7c15.2-6.8,22.9-19,21.7-31.8c-1.2-12.8-8.9-19.3-6.2-29.8C958.2,454.1,963.6,428.2,938,423.4z"/>
					<path class="st31" d="M896.6,488c-2.8-3.5-12.8,15.8-12.8,15.8l-12.5-9.8l-3.6,5.4c0,0,8.9,16.4,17.6,17
					C894,516.9,908.8,502.9,896.6,488z"/>
					<g>
						<polygon class="st15" points="822.5,460.9 859,439.5 870,473.4 835.5,496 					"/>
						<polygon class="st16" points="899.9,481.5 870,473.4 835.5,496 870,508 					"/>
						<polygon class="st15" points="867.8,493 877.3,485.7 886,488.6 877,495.8 					"/>
						<polygon class="st32" points="835.5,498.7 835.5,496 870,508 870,510.1 					"/>
						<polygon class="st33" points="899.9,484 899.9,481.5 870,508 870,510.1 					"/>
					</g>
					<g>
						<path class="st29" d="M850.2,512.7l-0.6-4.8c0,0-1.2-7.7-2.4-10.7c-1.2-3-3-6.8-3.3-3.9c-0.3,3-2.4,4.2-3.3,2.4
						c-0.9-1.8-6.6-11-6-5.4c0.6,5.7,1.2,10.4,4.8,16.7c3.6,6.2,6.8,8.9,6.8,8.9L850.2,512.7z"/>
						<path class="st31" d="M899.9,481.5c0,0-6-9.5-12.5,9.2c-6.5,18.7-14,39.9-14,39.9l-21.1-21.7l-7.1,5.7c0,0,22,38.4,30.4,38.4
						c8.3,0,19-21.1,22.9-32.4C902.3,509.1,905.6,486.2,899.9,481.5z"/>
					</g>
					<path class="st11" d="M900.5,769.8c-4.3,0.5-10.2,0.8-11.4-1.7c-5.2,2.5-9.2,5.1-6.8,6.1c5.4,2.4,27.4,3.6,30.1-0.9
					c0.8-1.3,1.3-5.4,1.5-11C911.5,764.2,904.4,769.3,900.5,769.8z"/>
					<path class="st11" d="M940.7,765.9c-5.7,1.2-12.8,4.8-13.4,1.5c-0.1-0.8-0.5-1.5-1-2c-6.9,3.5-11.1,7.3-4.3,7.9
					c8.9,0.9,25.3,1.5,27.7-5.4c0.5-1.3,0.7-4.1,0.9-7.8C947.7,762.5,943.9,765.2,940.7,765.9z"/>
					<polygon class="st13" points="826.5,462.2 857.9,443.9 867.7,472.6 837,491.8 				"/>
				</g>
			</g>
			<g>
				<path class="st12" d="M1163.3,638.7c0,13.9-27.1,25.2-60.6,25.2c-33.4,0-60.6-11.3-60.6-25.2c0-13.9,27.1-25.2,60.6-25.2
				C1136.1,613.5,1163.3,624.8,1163.3,638.7z"/>
				<g>
					<path class="st34" d="M1081.1,475.7c0,0-5,16.9-6.2,28.5c-1.2,11.6,2.3,59.1,2.9,74.1c0.6,15,7.7,42.5,7.7,42.5
					s-19.3,18.7-11.2,17.9c8.1-0.8,26.8-11.7,26.8-11.7s-0.4-57.4-1-65.8c-0.6-8.5,6.5-64.9,6.5-64.9L1081.1,475.7z"/>
					<path class="st34" d="M1105.1,489.7c0,0-2.7,58.3-2.3,70.5c0.4,12.1,7.5,49.3,9.2,61.4c1.7,12.1,4.4,24.8,4.4,24.8
					s-19.4,10-12.1,13.1c7.3,3.1,20.4-6.4,24.1-8.3c3.7-1.9,3.7-1.9,3.7-1.9l-0.6-77.2c0,0,3.3-31,6.9-46.4
					c3.7-15.4,3.3-33.3,3.3-33.3L1105.1,489.7z"/>
					<path class="st15" d="M1091.5,399.8c0,0-19.1,54.5-30.1,43.3c-11-11.2-5.8-15.6-0.8-27.7c5-12.1,11.7-26.2,11.7-26.2l5.8,4
					C1078.2,393.3,1071.3,419.8,1091.5,399.8z"/>
					<path class="st25" d="M1099.2,376c0,0-19.8,4.8-22.5,19.6c-2.7,14.8,3.1,26.4,5,37.7c1.9,11.4-0.4,28.9-2.1,34.7
					c-1.7,5.8-2.5,9-2.5,9s4.3,7.5,16,14.8c11.7,7.3,19.2,12.2,32.7,9.8c13.5-2.3,16.9-8.7,16.9-8.7s-6.4-23.9-6.4-30.6
					c0-6.7,5.8-15.2,6.5-31.6c0.8-16.4,3.1-20.2-6.5-31C1126.7,389.1,1105.1,375.6,1099.2,376z"/>
					<path class="st20" d="M1073.4,391.4c0,0,0.8-13.9,4.4-18.5c3.7-4.6,5-2.5,4.4-0.8c-0.6,1.7-0.6,1.7-0.6,1.7s6.2,2.7,4.6,7.5
					c-1.5,4.8-9.4,12.1-9.4,12.1L1073.4,391.4z"/>
					<g>
						<path class="st9" d="M1048.8,471.9c-0.1-1.3-0.3-2.6-0.4-3.9l0,0l71.6-127.1c0,0,19.5,17.4,33.5-4.6c14-22,12.5-51.9,12.5-51.9
						s-19.5,41.8-29.9,32.1c-9-8.4-17.2-40.5-17.2-40.5s-1.9-27.9,20.5-55.8c0,0-21.3-8.6-32.6,26.9c-11.3,35.6-3.1,59.5-3.1,59.5
						l-72,124.2c-3.7-2.8-7.8-3.8-11.9-2.7c-13.5,3.5-22.5,28.9-20,56.5c2.4,27.7,15.4,47.2,28.9,43.7
						C1042.3,524.8,1051.3,499.5,1048.8,471.9z M1006.1,483.1c-1.8-20.6,4.9-39.5,14.9-42.1c10.1-2.6,19.7,11.9,21.6,32.6
						c1.8,20.6-4.9,39.5-14.9,42.1C1017.6,518.3,1007.9,503.7,1006.1,483.1z"/>
						<path class="st35" d="M1009.5,499.2c-1.7-4.7-2.8-10.1-3.4-16.1c-1.8-20.6,4.9-39.5,14.9-42.1c5.9-1.6,11.7,2.9,15.8,10.9
						l89.1-153.7c-4.2-10.9-7-22.2-7-22.2s-1.9-27.9,20.5-55.8c0,0-21.3-8.6-32.6,26.9c-11.3,35.6-3.1,59.5-3.1,59.5l-72,124.2
						c-3.7-2.8-7.8-3.8-11.9-2.7c-13.5,3.5-22.5,28.9-20,56.5c0.7,8.4,2.5,16.1,4.9,22.6L1009.5,499.2z"/>
					</g>
					<path class="st19" d="M1103.2,378.7c0,0-4,14.6,3.5,14.8c7.5,0.2,12.3-2.7,12.9-6.9c0.6-4.2-0.4-16.2-0.4-16.2L1103.2,378.7z"/>
					<path class="st20" d="M1097.6,355.2c0,0-2.3,7.7-1.5,15.4c0.8,7.7,3.1,18.1,12.1,11.9c9-6.2,12.7-15.8,7.3-22.7
					C1110.2,352.9,1100,354.6,1097.6,355.2z"/>
					<path class="st28" d="M1106.9,347.3c-5.6-0.3-15,5.6-13.5,10c1.5,4.4,4,1.7,12.1,3.1c8.1,1.3,10.2,3.7,10,7.3
					c-0.2,3.7,1.2,7.3,3.7,5c2.5-2.3,6.2-15.2,1.2-20.6C1115.3,346.7,1111.1,347.5,1106.9,347.3z"/>
					<g>
						<path class="st15" d="M1133.1,414.8c-5.9-2.2-14.1,8.1-18.9,23.1c-4.8,15-5.8,15.2-5.8,15.2l-34.7-13.7l-2.1,10.8
						c0,0,34.7,28.5,47.7,24.6c13.1-3.9,17.9-27,19.8-39.1S1139.8,417.3,1133.1,414.8z"/>
						<path class="st20" d="M1076.5,442.4l-5.2-4.6c0,0-2.1-12.7-4.4-12.3c-2.3,0.4-1.2,9-1.2,9s-7.1-10-9.6-7.3
						c-2.5,2.7-1.3,11.9,4.8,14.8c6.2,2.9,8.3,2.9,8.3,2.9l4.2,5.4L1076.5,442.4z"/>
					</g>
				</g>
			</g>
			<g>
				<path class="st12" d="M358.3,1076.3c0,12.1-23.5,21.9-52.6,21.9c-29,0-52.6-9.8-52.6-21.9s23.5-21.9,52.6-21.9
				C334.8,1054.3,358.3,1064.2,358.3,1076.3z"/>
				<g>
					<path class="st34" d="M278.9,893.4c0,0-7.4,2.9-6,20.1c1.3,17.2,6.5,41.2,6.5,49.3c0,8,2.2,57.3,2.9,74
					c0.7,16.7,1.6,30.5,6,30.5s20.7,0.7,16.3-2.5c-4.5-3.1-11.6-6.5-11.6-6.5l7.6-64l3.3-86.7L278.9,893.4z"/>
					<g>
						<path class="st36" d="M341.3,775.3c0,0,3.1-1.3,3.1-2.9c0-1.6-0.2-8.2,1.3-6.9c1.6,1.3,1.6,4,1.6,4s5.8-3.3,7.4-1.6
						c1.6,1.8-10.7,12-10.7,12L341.3,775.3z"/>
						<path class="st31" d="M315,798.1c0.6,1.9,0.3,4.7,9.7-2.7c9.4-7.4,22.1-15.4,22.1-15.4l-5.7-6.4
						C341.1,773.7,311.7,787.1,315,798.1z"/>
					</g>
					<polygon class="st16" points="375.3,641.6 425,662.4 356.5,937.1 311.8,911.7 				"/>
					<path class="st13" d="M297.1,900.7c0,0-4.2,8.3-4.1,23.8c0.1,17.1,8,18.9,6.4,52.5c-1,21.8,0.7,54.4,1.1,59.1
					c0.4,4.7,3.8,43.5,9.6,43.9c5.8,0.4,24.1-2,18.9-5.1c-5.1-3.1-14.7-4-14.7-4s15.6-81.8,18.7-99.6c3.1-17.8,6.7-50.8,5.8-57.7
					c-0.9-6.9-0.9-6.9-0.9-6.9L297.1,900.7z"/>
					<polygon class="st37" points="318.7,790.1 315.4,807.8 309,805.8 313.3,789.1 				"/>
					<path class="st38" d="M324.7,753.3c0,0,6.7,6,6,12.4c-0.7,6.4-4.7,28.4-11.7,28.4c-7,0-7.7-3.7-7-10
					C312.7,777.7,324.7,753.3,324.7,753.3z"/>
					<path class="st30" d="M328.7,810.5c-7.2-4.8-42.8-21.7-51.2-12c-8.4,9.7-5.4,27.4,0.7,47.8c6,20.4,10,28.4,5,36.4
					c-5,8-8.4,12-8.4,12s6.7,8.7,25.7,15c19.1,6.4,33.8,6.7,37.4,0.3c3.7-6.4-10.4-33.4-12-39.1c-1.7-5.7-1.7-5.7-1.7-5.7
					s14.7-6.7,15.7-15.4C341.1,841.2,332.7,813.2,328.7,810.5z"/>
					<g>
						<path class="st36" d="M385.7,801.9c0,0,13.1-7.8,7.3-17.2c-2.3-3.8-5.7,7.1-5.7,7.1s0.7-6.3-1-4.6c-1.7,1.7-2.4,11.3-2.4,11.3
						L385.7,801.9z"/>
						<path class="st31" d="M326.7,814.5c-4.2,2.2-1,20.7,14.4,19.1c15.4-1.7,23.1-3.7,28.8-9c5.7-5.3,18.1-24.1,18.1-24.1l-4-5
						l-23.1,19C360.8,814.5,333.1,811.2,326.7,814.5z"/>
					</g>
					<path class="st28" d="M321.5,748.3c-7.5-4.5-24.5-5.8-27.2,6.7c-2.7,12.5-1.3,19.2-4.9,25.9c-3.6,6.7-18.3,44.6-13.4,56.2
					c4.9,11.6,19.2,29,34.8,19.2c15.6-9.8,10.7-15.2,5.8-34.3c-4.9-19.2-7.1-21.8-1.3-30.8C321,782.2,340.7,759.9,321.5,748.3z"/>
				</g>
			</g>
			<g>
				<path class="st12" d="M259,905.2c0,19.1-37.8,34.7-84.5,34.7c-46.7,0-84.5-15.5-84.5-34.7s37.8-34.7,84.5-34.7
				C221.1,870.6,259,886.1,259,905.2z"/>
				<g>
					<g>
						<g>
							<path class="st16" d="M219.7,792.1l-68.9,23.1v86.7c0,17.6,23.4,31.8,52.2,31.8c28.8,0,52.2-14.2,52.2-31.8v-86.7L219.7,792.1
							z"/>
							<ellipse class="st39" cx="203" cy="815.2" rx="52.2" ry="31.8"/>
							<path class="st40" d="M158.6,831.9c9.2,9.1,25.6,15.1,44.4,15.1s35.2-6,44.4-15.1c0.6-1.8,1-3.8,1-5.7
							c0-15.3-20.3-27.7-45.4-27.7s-45.4,12.4-45.4,27.7C157.6,828.1,157.9,830,158.6,831.9z"/>
						</g>
						<path class="st41" d="M203,787.1c26.3,0,48.5,12.9,48.5,28.1c0,15.2-22.2,28.1-48.5,28.1s-48.5-12.9-48.5-28.1
						C154.5,800,176.7,787.1,203,787.1 M203,783.4c-28.8,0-52.2,14.2-52.2,31.8c0,17.6,23.4,31.8,52.2,31.8
						c28.8,0,52.2-14.2,52.2-31.8C255.2,797.7,231.8,783.4,203,783.4L203,783.4z"/>
					</g>
					<path class="st23" d="M247.3,668.8c-4.4,9.3-4.4,19.9-4.4,30.2c0,11.5,0.1,23,0.1,34.6c0,13.1,0,26.4-3.5,39.1
					c-3.6,12.6-11.3,24.7-23,30.5c-5.8,2.9-13.1,4-18.6,0.6c-2.4-1.5-4.3-3.8-5.9-6.3c-13.2-20.8-1-48.7,8.5-68.6
					C211.5,705.7,227.5,685,247.3,668.8z"/>
					<path class="st24" d="M148.3,763.5c-3.3-43-1.1-86.9-11.6-128.8c28.8,35,42.8,81.7,38,126.8c9.5-29.8,19.2-60.1,19-91.4
					c-0.1-14.9,9.1-50.2,9.1-50.2s5.4,33.7,10.4,50.1c3.4,11.2,4.1,23,4.7,34.7c1,17,1.9,34.1,2.9,51.1C235,713,272.9,654,272.9,654
					s-14,112.5-21.4,138.2c-8.4,29.2-35.7,49.1-67,42.1C156,828.1,150.1,787.2,148.3,763.5z"/>
					<path class="st42" d="M170.5,806c-6-16.4-0.4-34.3,3.3-51.4c4.4-20.3,6.2-41.5,1.7-61.8c15,31.6,28.2,64.1,39.5,97.2
					c2.9,8.6,5.7,17.9,3,26.5c-2.6,8.1-17.3,22.5-27,20.1C183.2,834.7,173.1,813.1,170.5,806z"/>
				</g>
			</g>
		</g>
		<text transform="matrix(1 0 0 1 51.9001 118.2261)" class="st43 st44">Concentrate</text>
		<text transform="matrix(1 0 0 1 138.86 176.4194)" class="st43 st45">Browser Add-on</text>
	</g>
</svg>
