<?xml version="1.0" encoding="utf-8"?>
<!-- Generator: Adobe Illustrator 25.2.0, SVG Export Plug-In . SVG Version: 6.00 Build 0)  -->
<svg version="1.1"
	xmlns="http://www.w3.org/2000/svg"
	xmlns:xlink="http://www.w3.org/1999/xlink" x="0px" y="0px" viewBox="0 0 1735.5 1133.9" style="enable-background:new 0 0 1735.5 1133.9;" xml:space="preserve">
	<style type="text/css">
	.st0{display:none;}
	.st1{display:inline;fill:#97A4F6;}
	.st2{fill:#FAB400;}
	.st3{fill:#FA6450;}
	.st4{fill:#DC4632;}
	.st5{fill:#DC9600;}
	.st6{fill:#3CC8B4;}
	.st7{fill:#1EAA96;}
	.st8{fill:#F0F0F0;}
	.st9{opacity:0.8;fill:#647DDD;}
	.st10{fill:#FCCF4F;}
	.st11{fill:#B99255;}
	.st12{fill:#381E60;}
	.st13{opacity:0.5;fill:#647DDD;}
	.st14{fill:#57438E;}
	.st15{fill:#FFFFFF;}
	.st16{fill:#87CEFF;}
	.st17{fill:#FFF9FF;}
	.st18{opacity:0.5;}
	.st19{fill:#298BCC;}
	.st20{fill:#FF9779;}
	.st21{fill:#FFAC8A;}
	.st22{fill:#77BDEC;}
	.st23{opacity:0.5;fill:#57438E;}
	.st24{fill:#1A685A;}
	.st25{fill:#409682;}
	.st26{fill:#4CA6F1;}
	.st27{fill:#FC9740;}
	.st28{fill:#FCCFB0;}
	.st29{fill:#4E0611;}
	.st30{fill:#FFB29E;}
	.st31{fill:#EF6C98;}
	.st32{fill:#FF85AB;}
	.st33{fill:#659CFF;}
	.st34{fill:#77BAFF;}
	.st35{fill:#47338E;}
	.st36{opacity:0.5;fill:#FCCF4F;}
	.st37{fill:#FCA580;}
	.st38{fill:#F37A67;}
	.st39{fill:#F09376;}
	.st40{fill:#D3BAE7;}
	.st41{fill:#752939;}
	.st42{fill:#BCBACE;}
	.st43{fill:#4EAF9D;}
	.st44{font-family:'Arial';letter-spacing: 1px;}
	.st45{font-size:99px;}
	.st46{font-size:60px;}
	</style>
	<g id="Layer_1" class="st0">

		<rect x="2" y="1.7" transform="matrix(-1 -3.668011e-11 3.668011e-11 -1 1738.7964 1137.2219)" class="st1" width="1734.8" height="1133.9"/>
	</g>
	<g id="Layer_2">
		<g>
			<g>
				<path class="st2" d="M1563.2,549.4c8.5,4.3,15.5,0.3,15.5-9v-28.1l108.3,55c2.8,1.4,5.2,5.1,5.2,8.2v101.1c0,3.1-2.3,4.4-5.2,3
				l-56.7-28.8v33.7l-41.3-54.6l-56.7-28.8c-2.8-1.4-5.2-5.1-5.2-8.2v-61.8L1563.2,549.4z"/>
			</g>
			<g>
				<path class="st3" d="M1578.6,439.4c0-9.3-6.9-20.4-15.5-24.7l-36.1-18.3v-73c0-3.1,2.3-4.4,5.2-3l154.8,78.5
				c2.8,1.4,5.2,5.1,5.2,8.2v101.1c0,3.1-2.3,4.4-5.2,3l-56.7-28.8v33.7l-41.3-54.6l-10.3-5.2V439.4z"/>
			</g>
			<g>
				<path class="st4" d="M1681.8,503V401.9c0-3.1-2.3-6.8-5.2-8.2l10.3,5.2c2.8,1.4,5.2,5.1,5.2,8.2v101.1c0,3.1-2.3,4.4-5.2,3
				l-10.3-5.2C1679.5,507.4,1681.8,506.1,1681.8,503z"/>
			</g>
			<g>
				<path class="st5" d="M1681.8,671.4V570.4c0-3.1-2.3-6.8-5.2-8.2l10.3,5.2c2.8,1.4,5.2,5.1,5.2,8.2v101.1c0,3.1-2.3,4.4-5.2,3
				l-10.3-5.2C1679.5,675.8,1681.8,674.5,1681.8,671.4z"/>
			</g>
			<g>
				<path class="st6" d="M1563.2,425.9l-154.8-78.5c-2.8-1.4-5.2-0.1-5.2,3v101.1c0,3.1,2.3,6.8,5.2,8.2l56.7,28.8v33.7l41.3-12.7
				l56.7,28.8c2.8,1.4,5.2,0.1,5.2-3V434.2C1568.3,431.1,1566,427.4,1563.2,425.9z"/>
			</g>
			<g>
				<path class="st7" d="M1558,530V428.9c0-3.1-2.3-6.8-5.2-8.2l10.3,5.2c2.8,1.4,5.2,5.1,5.2,8.2v101.1c0,3.1-2.3,4.4-5.2,3
				l-10.3-5.2C1555.7,534.4,1558,533.1,1558,530z"/>
			</g>
			<g>
				<path class="st8" d="M1537.4,435.3l-113.5-57.6v11.2l113.5,57.6V435.3z"/>
			</g>
			<g>
				<path class="st8" d="M1537.4,457.8l-113.5-57.6v11.2l113.5,57.6V457.8z"/>
			</g>
			<g>
				<path class="st8" d="M1537.4,480.2l-61.9-31.4V460l61.9,31.4V480.2z"/>
			</g>
			<g>
				<path class="st8" d="M1661.2,576.7l-72.2-36.7v11.2l72.2,36.7V576.7z"/>
			</g>
			<g>
				<path class="st8" d="M1661.2,599.2l-113.5-57.6v11.2l113.5,57.6V599.2z"/>
			</g>
			<g>
				<path class="st8" d="M1661.2,621.6l-61.9-31.4v11.2l61.9,31.4V621.6z"/>
			</g>
			<g>
				<path class="st8" d="M1661.2,408.3l-113.5-57.6v11.2l113.5,57.6V408.3z"/>
			</g>
			<g>
				<path class="st8" d="M1661.2,430.8l-113.5-57.6v11.2l113.5,57.6V430.8z"/>
			</g>
			<g>
				<path class="st8" d="M1661.2,453.2l-61.9-31.4V433l61.9,31.4V453.2z"/>
			</g>
		</g>
		<g>
			<g>
				<path class="st9" d="M432.7,745.3c2.2,2,100.1,63.8,100.1,63.8s126.2-73.6,121.9-72.3C650.3,738.1,432.7,745.3,432.7,745.3z"/>
				<polygon class="st10" points="432.7,745.3 551.1,676.9 654.6,736.8 550.6,796.8 521.5,796.5 			"/>
				<polygon class="st11" points="536.2,779.7 521.5,796.5 550.6,796.8 			"/>
			</g>
			<g>
				<polygon class="st12" points="1454,733.4 1472.1,747.5 1428.4,820.3 1412,798.8 			"/>
			</g>
			<g>
				<path class="st13" d="M1092,1097.3l509.7-222.6l-512.8-282.3c0,0-530.4,227.6-491.2,238.1C636.8,841,1092,1097.3,1092,1097.3z"/>
				<g>
					<g>
						<g>
							<path class="st14" d="M1446.7,429.4l-441.8-253.1c-7.9-4.5-18.2-6.7-27.2-4.7c-12.5,2.9-24.3,6.8-24.2,17.8l-0.7,410.6
							l38.9,23C979,629.3,591.2,818,590.5,818.5l-0.9,15.8c0,6.8,3.6,13.1,9.5,16.6c66,38.2,452.7,261.8,452.7,261.8
							c12.7,7.4,28.4,7.4,41.1,0l367.5-212.4c3.8-2.2,6.2-6.3,6.2-10.7l0.6-424.5C1467.3,450.3,1459.4,436.7,1446.7,429.4z"/>
							<g>
								<path class="st12" d="M1454.3,888.1L952.4,601.8l-1-409.7c0-11.8,12.8-19.3,23-13.4l462.8,265.1
								c10.1,5.8,16.3,16.5,16.3,28.1L1454.3,888.1z"/>
								<polygon class="st12" points="972,202.4 1431.5,466.2 1432.5,851.9 972,587.6 							"/>
							</g>
							<g>
								<g>
									<polygon class="st10" points="971.6,264 1432.5,526.7 1431.5,466.2 972,202.4 								"/>
								</g>
								<g>
									<polygon class="st15" points="1290.6,428.2 1409.2,495 1409.2,463.3 1292.2,398.2 								"/>
								</g>
								<g>
									<path class="st15" d="M1006.4,252.1c0.1,10.1,5,20.8,10.9,23.9c5.9,3.1,10.6-2.5,10.4-12.6c-0.1-10.1-5-20.8-10.9-23.9
									C1011,236.3,1006.3,242,1006.4,252.1z"/>
								</g>
								<g>
									<g>
										<polygon class="st16" points="1117.6,395.4 1368,527.6 1367.9,518.4 1117.5,386.2 									"/>
									</g>
									<g>
										<polygon class="st16" points="1326.3,535.8 1368.4,558 1368.3,548.9 1326.2,526.7 									"/>
									</g>
									<g>
										<polygon class="st16" points="1118,425.8 1199.1,468.6 1199,459.5 1117.9,416.7 									"/>
									</g>
									<g>
										<polygon class="st16" points="1118.6,472.4 1369,604.6 1368.8,595.5 1118.4,463.3 									"/>
									</g>
									<g>
										<polygon class="st16" points="1121,667.1 1371.4,799.3 1371.3,790.2 1120.9,658 									"/>
									</g>
									<g>
										<polygon class="st16" points="1118.9,502.8 1369.3,635 1369.2,625.9 1118.8,493.7 									"/>
									</g>
									<g>
										<polygon class="st16" points="1309.3,630.5 1369.7,662.4 1369.6,653.3 1309.2,621.4 									"/>
									</g>
									<g>
										<polygon class="st16" points="1310.2,699.4 1370.5,731.2 1370.4,722.1 1310,690.2 									"/>
									</g>
									<g>
										<polygon class="st16" points="1229.6,656.8 1301.3,694.7 1301.2,685.5 1229.5,647.7 									"/>
									</g>
									<g>
										<polygon class="st16" points="1230.1,690.5 1301.7,728.3 1301.6,719.1 1230,681.3 									"/>
									</g>
									<g>
										<polygon class="st16" points="1120.1,599 1204.2,643.4 1204.1,634.3 1120,589.9 									"/>
									</g>
									<g>
										<polygon class="st16" points="1119.7,563.7 1203.8,608.1 1203.6,598.9 1119.6,554.6 									"/>
									</g>
									<g>
										<polygon class="st16" points="1047.5,525.6 1104.9,555.9 1104.8,546.7 1047.4,516.4 									"/>
									</g>
									<g>
										<polygon class="st16" points="1046.7,464.7 1104.1,495 1104,485.9 1046.6,455.6 									"/>
									</g>
									<g>
										<polygon class="st16" points="1045.8,387.6 1103.2,418 1103.1,408.8 1045.6,378.5 									"/>
									</g>
								</g>
							</g>
							<g>
								<path class="st17" d="M1454,888.1L952.4,598.8l-354.8,205c-10.2,5.9-10.2,20.7,0,26.6l461.8,266.9c10.1,5.8,22.4,5.8,32.5,0
								L1454,888.1z"/>
							</g>
							<g>
								<g>
									<path class="st14" d="M1315.2,897c10,5.7,15,8.6,25,14.3c10.1-5.7,15.2-8.6,25.3-14.3c-10-5.7-15-8.6-25-14.3
									C1330.3,888.4,1325.3,891.3,1315.2,897z"/>
									<path class="st14" d="M1278.3,875.8c10,5.7,15,8.6,25,14.3c10.1-5.7,15.1-8.6,25.3-14.3c-10-5.7-15-8.6-25-14.3
									C1293.5,867.2,1288.4,870.1,1278.3,875.8z"/>
									<path class="st14" d="M1241.5,854.6c10,5.7,15,8.6,25,14.3c10.1-5.7,15.1-8.6,25.3-14.3c-10-5.7-15-8.6-25-14.3
									C1256.6,846.1,1251.6,848.9,1241.5,854.6z"/>
									<path class="st14" d="M1204.6,833.5c10,5.7,15,8.6,25,14.3c10.1-5.7,15.1-8.6,25.2-14.3c-10-5.7-15-8.6-25-14.3
									C1219.8,824.9,1214.7,827.8,1204.6,833.5z"/>
									<path class="st14" d="M1167.7,812.3c10,5.7,15,8.6,25,14.3c10.1-5.7,15.1-8.6,25.2-14.3c-10-5.7-15-8.6-25-14.3
									C1182.9,803.7,1177.8,806.6,1167.7,812.3z"/>
									<path class="st14" d="M1130.9,791.1c10,5.7,15,8.6,25,14.3c10.1-5.7,15.1-8.6,25.2-14.3c-10-5.7-15-8.6-25-14.3
									C1146,782.6,1141,785.4,1130.9,791.1z"/>
									<path class="st14" d="M1094,770c10,5.7,15,8.6,25,14.3c10.1-5.7,15.2-8.6,25.3-14.3c-10-5.7-15-8.6-25-14.3
									C1109.1,761.4,1104.1,764.2,1094,770z"/>
									<path class="st14" d="M1057.1,748.8c10,5.7,15,8.6,25,14.3c10.1-5.7,15.1-8.6,25.3-14.3c-10-5.7-15-8.6-25-14.3
									C1072.3,740.2,1067.2,743.1,1057.1,748.8z"/>
									<path class="st14" d="M1020.3,727.6c10,5.7,15,8.6,25,14.3c10.1-5.7,15.2-8.6,25.3-14.3c-10-5.7-15-8.6-25-14.3
									C1035.4,719.1,1030.4,721.9,1020.3,727.6z"/>
									<path class="st14" d="M983.4,706.5c10,5.7,15,8.6,25,14.3c10.1-5.7,15.1-8.6,25.3-14.3c-10-5.7-15-8.6-25-14.3
									C998.5,697.9,993.5,700.7,983.4,706.5z"/>
									<path class="st14" d="M946.5,685.3c10,5.7,15,8.6,25,14.3c10.1-5.7,15.1-8.6,25.2-14.3c-10-5.7-15-8.6-25-14.3
									C961.7,676.7,956.6,679.6,946.5,685.3z"/>
									<path class="st14" d="M909.7,664.1c10,5.7,15,8.6,25,14.3c10.1-5.7,15.2-8.6,25.3-14.3c-10-5.7-15-8.6-25-14.3
									C924.8,655.5,919.8,658.4,909.7,664.1z"/>
									<path class="st14" d="M1279.8,917c10,5.7,15,8.6,25,14.3c10.1-5.7,15.1-8.6,25.3-14.3c-10-5.7-15-8.6-25-14.3
									C1294.9,908.5,1289.9,911.3,1279.8,917z"/>
									<path class="st14" d="M1242.9,895.8c10,5.7,15,8.6,25,14.3c10.1-5.7,15.1-8.6,25.3-14.3c-10-5.7-15-8.6-25-14.3
									C1258,887.3,1253,890.1,1242.9,895.8z"/>
									<path class="st14" d="M1206,874.7c10,5.7,15,8.6,25,14.3c10.1-5.7,15.2-8.6,25.3-14.3c-10-5.7-15-8.6-25-14.3
									C1221.2,866.1,1216.1,869,1206,874.7z"/>
									<path class="st14" d="M1169.2,853.5c10,5.7,15,8.6,25,14.3c10.1-5.7,15.2-8.6,25.3-14.3c-10-5.7-15-8.6-25-14.3
									C1184.3,844.9,1179.3,847.8,1169.2,853.5z"/>
									<path class="st14" d="M1132.3,832.3c10,5.7,15,8.6,25,14.3c10.1-5.7,15.1-8.6,25.2-14.3c-10-5.7-15-8.6-25-14.3
									C1147.4,823.8,1142.4,826.6,1132.3,832.3z"/>
									<path class="st14" d="M1095.4,811.2c10,5.7,15,8.6,25,14.3c10.1-5.7,15.1-8.6,25.3-14.3c-10-5.7-15-8.6-25-14.3
									C1110.6,802.6,1105.5,805.5,1095.4,811.2z"/>
									<path class="st14" d="M1058.6,790c10,5.7,15,8.6,25,14.3c10.1-5.7,15.2-8.6,25.3-14.3c-10-5.7-15-8.6-25-14.3
									C1073.7,781.4,1068.7,784.3,1058.6,790z"/>
									<path class="st14" d="M1021.7,768.8c10,5.7,15,8.6,25,14.3c10.1-5.7,15.2-8.6,25.3-14.3c-10-5.7-15-8.6-25-14.3
									C1036.8,760.3,1031.8,763.1,1021.7,768.8z"/>
									<path class="st14" d="M984.8,747.7c10,5.7,15,8.6,25,14.3c10.1-5.7,15.2-8.6,25.3-14.3c-10-5.7-15-8.6-25-14.3
									C1000,739.1,994.9,741.9,984.8,747.7z"/>
									<path class="st14" d="M948,726.5c10,5.7,15,8.6,25,14.3c10.1-5.7,15.2-8.6,25.2-14.3c-10-5.7-15-8.6-25-14.3
									C963.1,717.9,958.1,720.8,948,726.5z"/>
									<path class="st14" d="M911.1,705.3c10,5.7,15,8.6,25,14.3c10.1-5.7,15.1-8.6,25.3-14.3c-10-5.7-15-8.6-25-14.3
									C926.2,696.8,921.2,699.6,911.1,705.3z"/>
									<path class="st14" d="M874.2,684.1c16.7,9.6,25.1,14.4,41.9,24c10.1-5.7,15.2-8.6,25.3-14.3c-16.8-9.6-25.1-14.4-41.9-24
									C889.4,675.6,884.3,678.4,874.2,684.1z"/>
									<path class="st14" d="M1227.8,927.6c16.6,9.5,24.9,14.3,41.5,23.8c10.1-5.7,15.1-8.6,25.3-14.3
									c-16.6-9.5-24.9-14.3-41.5-23.8C1243,919,1237.9,921.9,1227.8,927.6z"/>
									<path class="st14" d="M1207.5,915.9c10,5.7,15,8.6,25,14.3c10.1-5.7,15.1-8.6,25.3-14.3c-10-5.7-15-8.6-25-14.3
									C1222.6,907.3,1217.6,910.2,1207.5,915.9z"/>
									<path class="st14" d="M1170.6,894.7c10,5.7,15,8.6,25,14.3c10.1-5.7,15.2-8.6,25.2-14.3c-10-5.7-15-8.6-25-14.3
									C1185.7,886.2,1180.7,889,1170.6,894.7z"/>
									<path class="st14" d="M1133.7,873.5c10,5.7,15,8.6,25,14.3c10.1-5.7,15.2-8.6,25.3-14.3c-10-5.7-15-8.6-25-14.3
									C1148.9,865,1143.8,867.8,1133.7,873.5z"/>
									<path class="st14" d="M1096.8,852.4c10,5.7,15,8.6,25,14.3c10.1-5.7,15.1-8.6,25.3-14.3c-10-5.7-15-8.6-25-14.3
									C1112,843.8,1107,846.7,1096.8,852.4z"/>
									<path class="st14" d="M1060,831.2c10,5.7,15,8.6,25,14.3c10.1-5.7,15.1-8.6,25.3-14.3c-10-5.7-15-8.6-25-14.3
									C1075.1,822.6,1070.1,825.5,1060,831.2z"/>
									<path class="st14" d="M1023.1,810c10,5.7,15,8.6,25,14.3c10.1-5.7,15.1-8.6,25.3-14.3c-10-5.7-15-8.6-25-14.3
									C1038.3,801.5,1033.2,804.3,1023.1,810z"/>
									<path class="st14" d="M986.2,788.9c10,5.7,15,8.6,25,14.3c10.1-5.7,15.2-8.6,25.3-14.3c-10-5.7-15-8.6-25-14.3
									C1001.4,780.3,996.3,783.2,986.2,788.9z"/>
									<path class="st14" d="M949.4,767.7c10,5.7,15,8.6,25,14.3c10.1-5.7,15.2-8.6,25.3-14.3c-10-5.7-15-8.6-25-14.3
									C964.5,759.1,959.5,762,949.4,767.7z"/>
									<path class="st14" d="M912.5,746.5c10,5.7,15,8.6,25,14.3c10.1-5.7,15.2-8.6,25.3-14.3c-10-5.7-15-8.6-25-14.3
									C927.7,738,922.6,740.8,912.5,746.5z"/>
									<path class="st14" d="M875.6,725.4c10,5.7,15,8.6,25,14.3c10.1-5.7,15.1-8.6,25.3-14.3c-10-5.7-15-8.6-25-14.3
									C890.8,716.8,885.7,719.6,875.6,725.4z"/>
									<path class="st14" d="M838.8,704.2c10,5.7,15,8.6,25,14.3c10.1-5.7,15.2-8.6,25.3-14.3c-10-5.7-15-8.6-25-14.3
									C853.9,695.6,848.9,698.5,838.8,704.2z"/>
									<path class="st14" d="M1208.9,957.1c10,5.7,15,8.6,25,14.3c10.1-5.7,15.1-8.6,25.3-14.3c-10-5.7-15-8.6-25-14.3
									C1224,948.5,1219,951.4,1208.9,957.1z"/>
									<path class="st14" d="M1172,935.9c10,5.7,15,8.6,25,14.3c10.1-5.7,15.1-8.6,25.3-14.3c-10-5.7-15-8.6-25-14.3
									C1187.2,927.4,1182.1,930.2,1172,935.9z"/>
									<path class="st14" d="M1135.1,914.8c10,5.7,15,8.6,25,14.3c10.1-5.7,15.2-8.6,25.3-14.3c-10-5.7-15-8.6-25-14.3
									C1150.3,906.2,1145.2,909,1135.1,914.8z"/>
									<path class="st14" d="M1098.3,893.6c10,5.7,15,8.6,25,14.3c10.1-5.7,15.2-8.6,25.3-14.3c-10-5.7-15-8.6-25-14.3
									C1113.4,885,1108.4,887.9,1098.3,893.6z"/>
									<path class="st14" d="M1061.4,872.4c10,5.7,15,8.6,25,14.3c10.1-5.7,15.1-8.6,25.3-14.3c-10-5.7-15-8.6-25-14.3
									C1076.6,863.8,1071.5,866.7,1061.4,872.4z"/>
									<path class="st14" d="M1024.5,851.2c10,5.7,15,8.6,25,14.3c10.1-5.7,15.1-8.6,25.2-14.3c-10-5.7-15-8.6-25-14.3
									C1039.7,842.7,1034.6,845.5,1024.5,851.2z"/>
									<path class="st14" d="M987.7,830.1c10,5.7,15,8.6,25,14.3c10.1-5.7,15.1-8.6,25.3-14.3c-10-5.7-15-8.6-25-14.3
									C1002.8,821.5,997.8,824.4,987.7,830.1z"/>
									<path class="st14" d="M950.8,808.9c10,5.7,15,8.6,25,14.3c10.1-5.7,15.2-8.6,25.3-14.3c-10-5.7-15-8.6-25-14.3
									C966,800.3,960.9,803.2,950.8,808.9z"/>
									<path class="st14" d="M913.9,787.7c10,5.7,15,8.6,25,14.3c10.1-5.7,15.2-8.6,25.3-14.3c-10-5.7-15-8.6-25-14.3
									C929.1,779.2,924,782,913.9,787.7z"/>
									<path class="st14" d="M877.1,766.6c10,5.7,15,8.6,25,14.3c10.1-5.7,15.1-8.6,25.2-14.3c-10-5.7-15-8.6-25-14.3
									C892.2,758,887.2,760.8,877.1,766.6z"/>
									<path class="st14" d="M824.3,736.2c16.4,9.4,24.5,14.1,40.9,23.5c10.1-5.7,15.2-8.6,25.3-14.3
									c-16.4-9.4-24.5-14.1-40.9-23.5C839.4,727.7,834.4,730.5,824.3,736.2z"/>
									<path class="st14" d="M803.3,724.2c10,5.7,15,8.6,25,14.3c10.1-5.7,15.1-8.6,25.3-14.3c-10-5.7-15-8.6-25-14.3
									C818.5,715.7,813.4,718.5,803.3,724.2z"/>
									<path class="st14" d="M1168.5,979.9c10,5.7,15,8.6,25,14.3c10.1-5.7,15.1-8.6,25.3-14.3c-10-5.7-15-8.6-25-14.3
									C1183.7,971.3,1178.6,974.2,1168.5,979.9z"/>
									<path class="st14" d="M1131.7,958.7c10,5.7,15,8.6,25,14.3c10.1-5.7,15.1-8.6,25.3-14.3c-10-5.7-15-8.6-25-14.3
									C1146.8,950.2,1141.8,953,1131.7,958.7z"/>
									<path class="st14" d="M1094.8,937.6c10,5.7,15,8.6,25,14.3c10.1-5.7,15.1-8.6,25.2-14.3c-10-5.7-15-8.6-25-14.3
									C1110,929,1104.9,931.8,1094.8,937.6z"/>
									<path class="st14" d="M873.6,810.5c69.8,40.1,139.5,80.1,209.3,120.2c10.1-5.7,15.2-8.6,25.3-14.3
									c-69.8-40.1-139.5-80.1-209.3-120.2C888.7,802,883.7,804.8,873.6,810.5z"/>
									<path class="st14" d="M836.7,789.4c10,5.7,15,8.6,25,14.3c10.1-5.7,15.1-8.6,25.2-14.3c-10-5.7-15-8.6-25-14.3
									C851.9,780.8,846.8,783.7,836.7,789.4z"/>
									<path class="st14" d="M799.9,768.2c10,5.7,15,8.6,25,14.3c10.1-5.7,15.1-8.6,25.3-14.3c-10-5.7-15-8.6-25-14.3
									C815,759.6,810,762.5,799.9,768.2z"/>
									<path class="st14" d="M763,747c10,5.7,15,8.6,25,14.3c10.1-5.7,15.1-8.6,25.2-14.3c-10-5.7-15-8.6-25-14.3
									C778.2,738.5,773.1,741.3,763,747z"/>
								</g>
							</g>
							<polygon class="st14" points="1044.6,941 872.5,841.6 774.2,902.2 946.2,1001.6 						"/>
						</g>
					</g>
				</g>
			</g>
			<g>
				<g class="st18">
					<g>
						<g>
							<path class="st19" d="M903,889.6C903,889.6,903,889.6,903,889.6c1.6,0,3.2-0.1,4.8-0.1c1.3,0,2.3-1.1,2.3-2.4
							c0-1.3-1.1-2.3-2.4-2.3c-1.6,0.1-3.1,0.1-4.6,0.1c-1.3,0-2.3,1.1-2.3,2.4C900.7,888.5,901.7,889.6,903,889.6z"/>
						</g>
						<g>
							<path class="st19" d="M893.6,889.6c-3.2,0-6.4-0.1-9.4-0.2c-1.3-0.1-2.3-1.1-2.2-2.4c0.1-1.3,1.1-2.3,2.4-2.2
							c3,0.1,6.1,0.2,9.2,0.2c1.3,0,2.3,1.1,2.3,2.4C896,888.6,894.9,889.6,893.6,889.6C893.6,889.6,893.6,889.6,893.6,889.6z
							 M874.8,888.9c-3.2-0.2-6.3-0.6-9.4-0.9c-1.3-0.2-2.2-1.3-2-2.6c0.2-1.3,1.3-2.2,2.6-2c3,0.4,6.1,0.7,9.2,0.9
							c1.3,0.1,2.2,1.2,2.1,2.5c-0.1,1.2-1.1,2.2-2.3,2.2C875,888.9,874.9,888.9,874.8,888.9z M856.1,886.5
							c-3.1-0.6-6.3-1.2-9.3-1.9c-1.3-0.3-2-1.6-1.7-2.8c0.3-1.3,1.6-2,2.8-1.7c2.9,0.7,5.9,1.3,9,1.8c1.3,0.2,2.1,1.4,1.9,2.7
							c-0.2,1.1-1.2,1.9-2.3,1.9C856.4,886.6,856.2,886.6,856.1,886.5z M837.7,882.2c-3-0.9-6.1-1.9-9-3c-1.2-0.5-1.8-1.8-1.4-3
							c0.5-1.2,1.8-1.8,3-1.4c2.8,1.1,5.7,2,8.7,2.9c1.2,0.4,1.9,1.7,1.6,2.9c-0.3,1-1.2,1.7-2.2,1.7
							C838.2,882.3,837.9,882.3,837.7,882.2z M820,875.6c-2.9-1.3-5.7-2.7-8.5-4.2c-1.1-0.6-1.6-2-0.9-3.2c0.6-1.1,2-1.6,3.2-0.9
							c2.7,1.4,5.4,2.8,8.2,4.1c1.2,0.5,1.7,1.9,1.2,3.1c-0.4,0.9-1.2,1.4-2.1,1.4C820.6,875.8,820.3,875.7,820,875.6z M803.3,866.5
							c-2.6-1.7-5.3-3.5-7.8-5.3c-1-0.8-1.3-2.2-0.5-3.3c0.8-1,2.2-1.3,3.3-0.5c2.5,1.8,5,3.5,7.6,5.2c1.1,0.7,1.4,2.1,0.7,3.2
							c-0.4,0.7-1.2,1.1-2,1.1C804.1,866.9,803.7,866.8,803.3,866.5z M788,855.4c-1.7-1.4-3.4-2.9-5.1-4.5c-0.6-0.6-1.3-1.2-1.9-1.9
							c-0.9-0.9-0.9-2.4,0-3.3c0.9-0.9,2.4-0.9,3.3,0c0.6,0.6,1.3,1.2,1.8,1.8c1.6,1.5,3.3,2.9,5,4.3c1,0.8,1.1,2.3,0.3,3.3
							c-0.5,0.6-1.1,0.8-1.8,0.8C789,855.9,788.5,855.7,788,855.4z M1330.8,848c0-1.3,1-2.4,2.3-2.4c3.1-0.1,6.1-0.2,9.2-0.4
							c1.3-0.1,2.4,0.9,2.5,2.2c0.1,1.3-0.9,2.4-2.2,2.5c-3.1,0.2-6.3,0.4-9.4,0.4c0,0,0,0,0,0
							C1331.8,850.3,1330.8,849.3,1330.8,848z M1323.7,850.2c-3.1-0.1-6.3-0.3-9.4-0.6c-1.3-0.1-2.2-1.3-2.1-2.5
							c0.1-1.3,1.3-2.2,2.5-2.1c3.1,0.3,6.1,0.5,9.2,0.6c1.3,0,2.3,1.1,2.2,2.4C1326.1,849.2,1325,850.2,1323.7,850.2
							C1323.8,850.2,1323.7,850.2,1323.7,850.2z M1349.4,846.9c-0.2-1.3,0.7-2.5,2-2.6c3-0.4,6.1-0.9,9.1-1.5
							c1.3-0.2,2.5,0.6,2.7,1.8c0.3,1.3-0.6,2.5-1.8,2.7c-3.1,0.6-6.2,1.1-9.3,1.5c-0.1,0-0.2,0-0.3,0
							C1350.5,848.9,1349.5,848,1349.4,846.9z M1304.9,848.5c-3.1-0.4-6.2-1-9.3-1.6c-1.3-0.2-2.1-1.5-1.8-2.7
							c0.2-1.3,1.5-2.1,2.7-1.8c3,0.6,6.1,1.1,9.1,1.5c1.3,0.2,2.2,1.4,2,2.6c-0.2,1.2-1.2,2-2.3,2
							C1305.1,848.5,1305,848.5,1304.9,848.5z M1367.7,843.5c-0.3-1.2,0.4-2.5,1.7-2.9c2.9-0.8,5.9-1.7,8.8-2.6
							c1.2-0.4,2.5,0.2,3,1.5c0.4,1.2-0.2,2.6-1.5,3c-3,1-6,1.9-9.1,2.7c-0.2,0.1-0.4,0.1-0.6,0.1
							C1368.9,845.3,1368,844.6,1367.7,843.5z M1286.4,844.8c-3-0.8-6.1-1.6-9.1-2.5c-1.2-0.4-1.9-1.7-1.6-2.9
							c0.4-1.2,1.7-1.9,2.9-1.6c2.9,0.9,5.9,1.7,8.9,2.4c1.3,0.3,2,1.6,1.7,2.8c-0.3,1.1-1.2,1.8-2.3,1.8
							C1286.8,844.9,1286.6,844.9,1286.4,844.8z M774.4,842.2c-2.1-2.3-4.2-4.7-6.2-7.1c-0.8-1-0.7-2.5,0.3-3.3
							c1-0.8,2.5-0.7,3.3,0.3c1.9,2.3,4,4.7,6,6.9c0.9,0.9,0.8,2.4-0.1,3.3c-0.5,0.4-1,0.6-1.6,0.6
							C775.5,843,774.8,842.7,774.4,842.2z M1268.3,839.4l-1.4-0.5c-2.4-1-4.9-2-7.3-3.1c-1.2-0.5-1.7-1.9-1.2-3.1
							c0.5-1.2,1.9-1.7,3.1-1.2c2.4,1,4.8,2,7.1,3l1.4,0.5c1.2,0.4,1.8,1.8,1.4,3c-0.3,1-1.2,1.6-2.2,1.6
							C1268.8,839.5,1268.6,839.5,1268.3,839.4z M1385.5,837.9c-0.5-1.2,0.1-2.6,1.3-3.1c2.8-1.2,5.6-2.4,8.4-3.8
							c1.2-0.6,2.6-0.1,3.1,1.1c0.6,1.2,0.1,2.6-1.1,3.1c-2.8,1.4-5.7,2.7-8.6,3.9c-0.3,0.1-0.6,0.2-0.9,0.2
							C1386.7,839.3,1385.8,838.8,1385.5,837.9z M1251,831.9c-2.8-1.4-5.6-2.8-8.4-4.3c-1.1-0.6-1.6-2-0.9-3.2
							c0.6-1.1,2-1.6,3.2-0.9c2.7,1.4,5.5,2.9,8.2,4.2c1.2,0.6,1.6,2,1.1,3.1c-0.4,0.8-1.2,1.3-2.1,1.3
							C1251.7,832.1,1251.3,832,1251,831.9z M1402.3,829.9c-0.7-1.1-0.3-2.5,0.8-3.2c2.6-1.5,5.2-3.2,7.8-4.9
							c1.1-0.7,2.5-0.4,3.2,0.6c0.7,1.1,0.4,2.5-0.6,3.2c-2.6,1.8-5.3,3.5-8,5.1c-0.4,0.2-0.8,0.3-1.2,0.3
							C1403.5,831.1,1402.7,830.7,1402.3,829.9z M762.4,827.6c-1.9-2.6-3.7-5.2-5.3-7.8c-0.7-1.1-0.4-2.5,0.7-3.2
							c1.1-0.7,2.5-0.4,3.2,0.7c1.6,2.5,3.3,5.1,5.2,7.6c0.8,1,0.5,2.5-0.5,3.3c-0.4,0.3-0.9,0.4-1.4,0.4
							C763.5,828.6,762.8,828.3,762.4,827.6z M1234.4,822.9c-2.7-1.6-5.4-3.2-8-4.9c-1.1-0.7-1.4-2.1-0.7-3.2
							c0.7-1.1,2.1-1.4,3.2-0.7c2.6,1.7,5.2,3.3,7.9,4.8c1.1,0.7,1.5,2.1,0.8,3.2c-0.4,0.7-1.2,1.2-2,1.2
							C1235.2,823.3,1234.8,823.2,1234.4,822.9z M1417.9,819.7c-0.8-1-0.6-2.5,0.4-3.3c0.7-0.6,1.5-1.2,2.2-1.7
							c1.5-1.5,2.9-3,4.2-4.5c0.9-1,2.3-1.1,3.3-0.2c1,0.9,1.1,2.3,0.2,3.3c-1.4,1.6-2.9,3.2-4.5,4.7c-0.1,0.1-0.1,0.1-0.2,0.2
							c-0.8,0.6-1.6,1.3-2.3,1.9c-0.4,0.3-0.9,0.5-1.4,0.5C1419.1,820.6,1418.4,820.3,1417.9,819.7z M1218.6,812.8
							c-2.6-1.8-5.1-3.6-7.6-5.5c-1-0.8-1.2-2.2-0.5-3.3c0.8-1,2.2-1.2,3.3-0.5c2.4,1.8,5,3.7,7.5,5.4c1.1,0.7,1.3,2.2,0.6,3.3
							c-0.5,0.7-1.2,1-1.9,1C1219.4,813.2,1219,813.1,1218.6,812.8z M752.2,811.6c-1.5-2.9-2.9-5.8-4.1-8.6
							c-0.5-1.2,0.1-2.6,1.3-3.1c1.2-0.5,2.6,0.1,3.1,1.2c1.1,2.7,2.4,5.5,3.9,8.2c0.6,1.1,0.2,2.6-1,3.2c-0.4,0.2-0.7,0.3-1.1,0.3
							C753.4,812.8,752.6,812.4,752.2,811.6z M1430.9,806.4c-1-0.8-1.3-2.2-0.5-3.3c1.8-2.5,3.4-5,4.9-7.6c0.6-1.1,2.1-1.5,3.2-0.9
							c1.1,0.6,1.5,2.1,0.9,3.2c-1.6,2.7-3.3,5.4-5.2,8c-0.5,0.6-1.2,1-1.9,1C1431.8,806.9,1431.3,806.7,1430.9,806.4z
							 M1203.5,801.5c-2.4-1.9-4.8-4-7.2-6c-1-0.8-1.1-2.3-0.2-3.3c0.8-1,2.3-1.1,3.3-0.2c2.3,2,4.7,4,7.1,5.9
							c1,0.8,1.2,2.3,0.3,3.3c-0.5,0.6-1.1,0.9-1.8,0.9C1204.5,802,1204,801.8,1203.5,801.5z M744.9,793.9c-0.9-3.2-1.6-6.4-2-9.5
							c-0.2-1.3,0.7-2.5,2-2.6c1.3-0.2,2.5,0.7,2.6,2c0.4,2.8,1,5.8,1.9,8.8c0.4,1.2-0.4,2.5-1.6,2.9c-0.2,0.1-0.4,0.1-0.6,0.1
							C746.1,795.6,745.2,795,744.9,793.9z M1440.5,790.5c-1.2-0.5-1.7-1.9-1.2-3.1c1.2-2.7,2.3-5.6,3.2-8.5
							c0.4-1.2,1.7-1.9,2.9-1.5c1.2,0.4,1.9,1.7,1.5,2.9c-1,3.1-2.1,6.1-3.4,8.9c-0.4,0.9-1.2,1.4-2.1,1.4
							C1441.1,790.7,1440.8,790.6,1440.5,790.5z M1189.3,789.1c-2.3-2.1-4.6-4.3-6.8-6.5c-0.9-0.9-0.9-2.4,0-3.3
							c0.9-0.9,2.4-0.9,3.3,0c2.2,2.2,4.4,4.3,6.7,6.4c0.9,0.9,1,2.4,0.1,3.3c-0.5,0.5-1.1,0.7-1.7,0.7
							C1190.4,789.8,1189.8,789.6,1189.3,789.1z M744.7,777.2c-1.3-0.1-2.3-1.2-2.2-2.5c0.2-3.3,0.8-6.6,1.7-9.7
							c0.4-1.2,1.7-1.9,2.9-1.6c1.2,0.4,1.9,1.7,1.6,2.9c-0.8,2.7-1.3,5.6-1.5,8.6c-0.1,1.2-1.1,2.2-2.3,2.2
							C744.8,777.2,744.8,777.2,744.7,777.2z M1176,775.9c-2.2-2.3-4.3-4.6-6.4-6.9c-0.9-1-0.8-2.4,0.2-3.3c1-0.9,2.4-0.8,3.3,0.2
							c2,2.3,4.1,4.6,6.3,6.8c0.9,0.9,0.9,2.4-0.1,3.3c-0.5,0.4-1,0.6-1.6,0.6C1177.1,776.7,1176.4,776.4,1176,775.9z M1446.3,772.8
							c-1.3-0.2-2.1-1.4-1.9-2.7c0.5-3,0.9-6.1,1.2-9.1c0.1-1.3,1.3-2.2,2.6-2.1c1.3,0.1,2.2,1.3,2.1,2.6c-0.3,3.1-0.7,6.3-1.2,9.4
							c-0.2,1.2-1.2,2-2.3,2C1446.6,772.9,1446.5,772.9,1446.3,772.8z M1163.5,761.9c-2-2.4-4-4.8-5.9-7.3c-0.8-1-0.6-2.5,0.4-3.3
							c1-0.8,2.5-0.6,3.3,0.4c1.9,2.4,3.9,4.8,5.9,7.2c0.8,1,0.7,2.5-0.3,3.3c-0.4,0.4-1,0.5-1.5,0.5
							C1164.6,762.8,1163.9,762.5,1163.5,761.9z M749.1,759.2c-1.1-0.7-1.5-2.1-0.8-3.2c1.6-2.7,3.6-5.4,5.9-7.8
							c0.9-0.9,2.4-1,3.3-0.1c0.9,0.9,1,2.4,0.1,3.3c-2.1,2.2-3.9,4.6-5.3,7c-0.4,0.7-1.2,1.1-2,1.1
							C749.8,759.6,749.4,759.5,749.1,759.2z M1448.5,754.3c-1.3,0-2.3-1.1-2.3-2.4c0.1-1.6,0.1-3.3,0.1-4.9c0-1.4,0-2.9-0.1-4.3
							c0-1.3,1-2.4,2.3-2.4c1.3-0.1,2.4,1,2.4,2.3c0,1.5,0.1,3,0.1,4.4c0,1.7,0,3.4-0.1,5C1450.8,753.3,1449.8,754.3,1448.5,754.3
							C1448.5,754.3,1448.5,754.3,1448.5,754.3z M1151.8,747.2c-1.9-2.5-3.7-5-5.5-7.6c-0.7-1.1-0.5-2.5,0.6-3.3
							c1.1-0.7,2.5-0.5,3.3,0.6c1.8,2.5,3.6,5,5.5,7.5c0.8,1,0.6,2.5-0.5,3.3c-0.4,0.3-0.9,0.5-1.4,0.5
							C1152.9,748.2,1152.2,747.9,1151.8,747.2z M761,745.1c-0.8-1-0.6-2.5,0.5-3.3c2.3-1.7,4.9-3.4,7.9-5.3
							c1.1-0.7,2.5-0.3,3.2,0.8c0.7,1.1,0.3,2.5-0.8,3.2c-2.9,1.8-5.4,3.5-7.6,5.1c-0.4,0.3-0.9,0.5-1.4,0.5
							C762.1,746,761.4,745.7,761,745.1z M776.6,734.9c-0.6-1.1-0.3-2.6,0.9-3.2l0.9-0.5c2.4-1.4,4.8-2.8,7.1-4.2
							c1.1-0.7,2.5-0.3,3.2,0.8c0.7,1.1,0.3,2.5-0.8,3.2c-2.4,1.4-4.8,2.8-7.2,4.2l-0.9,0.5c-0.4,0.2-0.8,0.3-1.2,0.3
							C777.8,736.1,777,735.6,776.6,734.9z M1445.7,733.6c-0.3-3-0.7-6.1-1.1-9.1c-0.2-1.3,0.7-2.5,2-2.7c1.3-0.2,2.5,0.7,2.7,2
							c0.5,3.1,0.9,6.3,1.2,9.4c0.1,1.3-0.8,2.4-2.1,2.5c-0.1,0-0.1,0-0.2,0C1446.8,735.7,1445.8,734.8,1445.7,733.6z M1140.9,731.9
							c-1.7-2.6-3.4-5.2-5.1-7.9c-0.7-1.1-0.4-2.5,0.7-3.2c1.1-0.7,2.5-0.4,3.2,0.7c1.7,2.6,3.4,5.2,5,7.8c0.7,1.1,0.4,2.5-0.6,3.2
							c-0.4,0.3-0.8,0.4-1.3,0.4C1142.1,733,1141.4,732.6,1140.9,731.9z M792.6,725.3c-0.8-1-0.5-2.5,0.5-3.3c2.1-1.5,4-3,5.6-4.5
							c-3,0-6-0.4-9-1c-1.3-0.3-2.1-1.5-1.8-2.8c0.3-1.3,1.5-2.1,2.8-1.8c2.8,0.6,5.6,0.9,8.5,0.9c0,0,0,0,0,0h0.2
							c1.3,0,2.3,1,2.3,2.3c0,0.1,0,0.3,0,0.4c0.5,0,1.1,0.3,1.5,0.7c0.9,0.9,0.9,2.4,0,3.3c-2.1,2.1-4.5,4.1-7.4,6.2
							c-0.4,0.3-0.9,0.4-1.4,0.4C793.8,726.3,793.1,725.9,792.6,725.3z M1442.8,715.4c-0.6-3-1.4-6-2.2-8.9
							c-0.3-1.2,0.4-2.5,1.6-2.9c1.2-0.3,2.5,0.4,2.9,1.6c0.8,3,1.6,6.1,2.3,9.2c0.3,1.3-0.5,2.5-1.8,2.8c-0.2,0-0.3,0.1-0.5,0.1
							C1444.1,717.3,1443.1,716.5,1442.8,715.4z M806.5,714.7c-0.1-0.6,0-1.3,0.4-1.8c-0.2-0.1-0.4-0.1-0.6-0.3
							c-1.1-0.6-1.5-2.1-0.9-3.2c1.4-2.5,2.4-5.1,3-8c0.3-1.3,1.5-2.1,2.8-1.8c1.3,0.3,2.1,1.5,1.8,2.8c-0.7,3.3-1.8,6.4-3.5,9.3
							c2.5-0.6,5-1.3,7.4-2.3c1.2-0.5,2.6,0.1,3,1.3c0.5,1.2-0.1,2.6-1.3,3c-3.1,1.2-6.2,2.1-9.3,2.8c-0.2,0-0.3,0-0.5,0
							C807.7,716.6,806.7,715.8,806.5,714.7z M780.4,713.5c-2.9-1.3-5.8-3-8.4-5c-1-0.8-1.2-2.2-0.5-3.3c0.8-1,2.2-1.2,3.3-0.5
							c2.4,1.8,4.9,3.3,7.6,4.5c1.2,0.5,1.7,1.9,1.2,3.1c-0.4,0.9-1.2,1.4-2.1,1.4C781.1,713.7,780.7,713.6,780.4,713.5z M824,708.6
							c-0.7-1.1-0.3-2.5,0.8-3.2c2.5-1.5,4.9-3.3,7.2-5.3c1-0.9,2.4-0.8,3.3,0.2c0.9,1,0.8,2.4-0.2,3.3c-2.4,2.2-5.1,4.1-7.8,5.8
							c-0.4,0.2-0.8,0.3-1.2,0.3C825.2,709.8,824.5,709.4,824,708.6z M764.8,701.9c-2.3-2.6-4.3-5.3-5.7-8.1c-0.6-1.1-0.2-2.6,1-3.2
							c1.1-0.6,2.6-0.2,3.2,1c1.3,2.4,3,4.8,5,7.1c0.9,1,0.8,2.4-0.2,3.3c-0.4,0.4-1,0.6-1.6,0.6
							C765.9,702.7,765.2,702.4,764.8,701.9z M1437.9,697.7c-0.8-2.2-1.6-4.4-2.4-6.6c-0.3-0.6-0.6-1.2-0.9-1.8
							c-0.5-1.2,0-2.6,1.1-3.1c1.2-0.5,2.6,0,3.1,1.1c0.3,0.6,0.6,1.2,0.9,1.8c0,0.1,0.1,0.1,0.1,0.2c0.9,2.3,1.7,4.6,2.5,6.9
							c0.4,1.2-0.2,2.6-1.5,3c-0.2,0.1-0.5,0.1-0.8,0.1C1439.2,699.3,1438.2,698.7,1437.9,697.7z M838.5,697c-1-0.8-1.2-2.3-0.4-3.3
							c1.9-2.3,3.5-4.8,5-7.4c0.6-1.1,2.1-1.5,3.2-0.9c1.1,0.6,1.5,2.1,0.9,3.2c-1.6,2.8-3.4,5.5-5.4,8c-0.5,0.6-1.1,0.9-1.8,0.9
							C839.4,697.5,838.9,697.3,838.5,697z M808.7,692.9c0-0.3,0-0.6-0.1-0.8c-0.4-2.6-1-5.1-2-7.6c-0.5-1.2,0.1-2.6,1.3-3
							c1.2-0.5,2.6,0.1,3,1.3c1.1,2.8,1.8,5.6,2.2,8.7c0,0.3,0.1,0.7,0.1,1c0.1,1.3-0.9,2.4-2.2,2.5c-0.1,0-0.1,0-0.2,0
							C809.9,695,808.8,694.1,808.7,692.9z M755.9,684.2c-0.1-1-0.2-1.9-0.2-2.9c0-2.5,0.4-5,1.2-7.4c0.4-1.2,1.8-1.9,3-1.5
							c1.2,0.4,1.9,1.7,1.5,3c-0.7,1.9-1,3.9-1,5.9c0,0.8,0,1.5,0.1,2.3c0.2,1.3-0.8,2.4-2,2.6c-0.1,0-0.2,0-0.3,0
							C757.1,686.3,756.1,685.4,755.9,684.2z M1430.9,680.7l-0.2-0.4c-1.1-2.7-2.2-5.4-3.4-8.1c-0.5-1.2,0-2.6,1.2-3.1
							c1.2-0.5,2.6,0,3.1,1.2c1.2,2.7,2.4,5.5,3.5,8.2l0.2,0.4c0.5,1.2-0.1,2.6-1.3,3.1c-0.3,0.1-0.6,0.2-0.9,0.2
							C1432.1,682.1,1431.3,681.6,1430.9,680.7z M848.2,681.1c-1.2-0.4-1.9-1.8-1.4-3c1-2.8,1.7-5.7,2.1-8.6c0.2-1.3,1.4-2.2,2.7-2
							c1.3,0.2,2.2,1.4,2,2.7c-0.5,3.2-1.3,6.4-2.3,9.5c-0.3,1-1.2,1.6-2.2,1.6C848.7,681.3,848.4,681.2,848.2,681.1z M802.6,676.8
							c-1.7-2.3-3.6-4.5-5.9-6.5c-1-0.8-1.1-2.3-0.2-3.3c0.8-1,2.3-1.1,3.3-0.2c2.5,2.2,4.7,4.6,6.6,7.3c0.7,1.1,0.5,2.5-0.6,3.3
							c-0.4,0.3-0.9,0.4-1.4,0.4C803.8,677.8,803,677.5,802.6,676.8z M762.4,668.5c-0.9-0.9-0.9-2.4,0.1-3.3c2.5-2.4,5.5-4.1,9-5.1
							c1.2-0.3,2.5,0.4,2.9,1.6c0.3,1.2-0.4,2.5-1.6,2.9c-2.7,0.8-5.1,2.1-7,3.9c-0.5,0.4-1,0.7-1.6,0.7
							C763.4,669.2,762.8,669,762.4,668.5z M789.6,665.9c-2.8-1-5.7-1.7-8.5-2c-1.3-0.1-2.2-1.3-2.1-2.5c0.1-1.3,1.2-2.2,2.5-2.1
							c3.2,0.3,6.5,1.1,9.7,2.2c1.2,0.5,1.8,1.8,1.4,3c-0.3,0.9-1.2,1.5-2.2,1.5C790.1,666.1,789.8,666,789.6,665.9z M1423.1,664.1
							c-0.5-0.8-0.9-1.5-1.5-2.4c-1-1.6-2.1-3.4-3.5-5.3c-0.8-1-0.5-2.5,0.5-3.3c1-0.8,2.5-0.5,3.3,0.5c1.5,2,2.7,3.8,3.7,5.5
							c0.5,0.8,1.1,1.6,1.6,2.5c0.7,1.1,0.3,2.5-0.8,3.2c-0.4,0.2-0.8,0.3-1.2,0.3C1424.3,665.2,1423.5,664.8,1423.1,664.1z
							 M849.4,660.6c-0.1-3-0.3-6-0.9-8.9c-0.2-1.3,0.6-2.5,1.9-2.7c1.3-0.2,2.5,0.6,2.7,1.9c0.6,3.2,0.9,6.4,1,9.7
							c0,1.3-1,2.4-2.3,2.4c0,0,0,0,0,0C850.5,662.9,849.4,661.9,849.4,660.6z M1412.5,649.1c-1.8-2.4-3.8-4.9-5.5-7.7
							c-0.7-1.1-0.4-2.5,0.7-3.2c1.1-0.7,2.5-0.4,3.2,0.7c1.7,2.7,3.5,5.1,5.3,7.4c0.8,1,0.6,2.5-0.4,3.3c-0.4,0.3-0.9,0.5-1.4,0.5
							C1413.6,650.1,1412.9,649.7,1412.5,649.1z M846.2,643.1c-1-2.8-2.2-5.5-3.7-8.2c-0.6-1.1-0.2-2.6,0.9-3.2
							c1.1-0.6,2.6-0.2,3.2,0.9c1.6,2.9,2.9,5.8,4,8.8c0.4,1.2-0.2,2.6-1.4,3c-0.3,0.1-0.5,0.1-0.8,0.1
							C847.4,644.7,846.5,644.1,846.2,643.1z M1401.2,634.7c-2-2-4.2-4.1-6.7-6.2c-1-0.8-1.1-2.3-0.3-3.3c0.8-1,2.3-1.1,3.3-0.3
							c2.6,2.2,4.9,4.3,7,6.5c0.9,0.9,0.9,2.4,0,3.3c-0.5,0.5-1.1,0.7-1.6,0.7C1402.3,635.4,1401.7,635.1,1401.2,634.7z
							 M837.7,627.4c-1.1-1.4-2.2-2.9-3.5-4.3c-0.8-0.9-1.5-1.8-2.3-2.7c-0.8-1-0.7-2.5,0.3-3.3c1-0.8,2.5-0.7,3.3,0.3
							c0.8,0.9,1.6,1.8,2.3,2.7c1.3,1.5,2.6,3,3.7,4.6c0.8,1,0.6,2.5-0.5,3.3c-0.4,0.3-0.9,0.5-1.4,0.5
							C838.8,628.4,838.1,628,837.7,627.4z M1387.3,622.8c-1.9-1.4-3.8-2.8-5.6-4.2l-1.8-1.4c-1-0.8-1.3-2.2-0.5-3.3
							c0.8-1,2.2-1.3,3.3-0.5l1.8,1.4c1.9,1.4,3.8,2.8,5.7,4.2c1,0.8,1.2,2.2,0.5,3.3c-0.5,0.6-1.2,0.9-1.9,0.9
							C1388.3,623.3,1387.8,623.1,1387.3,622.8z M825.8,613.3c-2-2.3-4.1-4.7-6.1-7c-0.9-1-0.8-2.4,0.2-3.3c1-0.9,2.5-0.8,3.3,0.2
							c2.1,2.3,4.1,4.7,6.2,7c0.8,1,0.7,2.5-0.2,3.3c-0.4,0.4-1,0.6-1.5,0.6C826.9,614.1,826.2,613.8,825.8,613.3z M1372.4,611.6
							c-2.7-2.2-5.1-4.2-7.2-6.1c-0.9-0.9-1-2.4-0.1-3.3c0.9-0.9,2.4-1,3.3-0.1c2,1.9,4.3,3.8,7,5.9c1,0.8,1.2,2.3,0.4,3.3
							c-0.5,0.6-1.1,0.9-1.8,0.9C1373.3,612.1,1372.8,611.9,1372.4,611.6z M813.4,599.3l-0.4-0.5c-1.9-2.2-3.9-4.3-5.8-6.5
							c-0.9-1-0.8-2.4,0.2-3.3c1-0.9,2.4-0.8,3.3,0.2c1.9,2.2,3.8,4.3,5.8,6.5l0.4,0.5c0.9,1,0.8,2.4-0.2,3.3
							c-0.4,0.4-1,0.6-1.5,0.6C814.6,600.1,813.9,599.8,813.4,599.3z M1358.5,598.6c-2.1-2.5-3.9-5.2-5.5-8.1
							c-0.6-1.1-0.2-2.6,0.9-3.2c1.1-0.6,2.6-0.2,3.2,0.9c1.4,2.6,3.1,5.1,5,7.3c0.8,1,0.7,2.5-0.3,3.3c-0.4,0.4-1,0.6-1.5,0.6
							C1359.6,599.4,1358.9,599.1,1358.5,598.6z M801.1,585.3c-2.1-2.4-4.1-4.7-6.1-7.1c-0.8-1-0.7-2.5,0.3-3.3
							c1-0.8,2.5-0.7,3.3,0.3c2,2.4,4,4.7,6.1,7c0.8,1,0.7,2.5-0.2,3.3c-0.4,0.4-1,0.6-1.5,0.6C802.2,586.1,801.6,585.9,801.1,585.3
							z M1349.1,581.5c-1-3.1-1.7-6.3-2.1-9.5c-0.2-1.3,0.8-2.4,2-2.6c1.3-0.2,2.4,0.8,2.6,2c0.4,2.9,1,5.8,1.9,8.7
							c0.4,1.2-0.3,2.5-1.5,2.9c-0.2,0.1-0.5,0.1-0.7,0.1C1350.4,583.1,1349.4,582.5,1349.1,581.5z M1392.4,571.6
							c-1.3-0.2-2.1-1.5-1.9-2.7c0.2-1.3,1.5-2.1,2.7-1.9c3.3,0.6,6.1,0.7,8.3,0.2c1.3-0.3,2.5,0.5,2.8,1.8c0.3,1.3-0.5,2.5-1.8,2.8
							c-1.3,0.3-2.7,0.4-4.2,0.4C1396.5,572.2,1394.5,572,1392.4,571.6z M789,571.1c-2-2.4-4-4.8-5.9-7.3c-0.8-1-0.6-2.5,0.4-3.3
							c1-0.8,2.5-0.6,3.3,0.4c1.9,2.4,3.9,4.8,5.8,7.2c0.8,1,0.7,2.5-0.3,3.3c-0.4,0.4-1,0.5-1.5,0.5
							C790.1,571.9,789.4,571.7,789,571.1z M1383,569c-3-1.1-6-2.3-8.8-3.4c-1.2-0.5-1.8-1.9-1.3-3.1c0.5-1.2,1.9-1.8,3.1-1.3
							c2.7,1.1,5.7,2.3,8.6,3.3c1.2,0.4,1.9,1.8,1.4,3c-0.3,1-1.2,1.6-2.2,1.6C1383.6,569.2,1383.3,569.1,1383,569z M1408.3,566.4
							c-1.1-0.7-1.5-2.1-0.8-3.2c1-1.7,1.6-3.9,1.9-6.6c0-0.4,0.1-0.8,0.1-1.3c0.1-1.3,1.1-2.3,2.4-2.2c1.3,0.1,2.3,1.1,2.2,2.4
							c0,0.5-0.1,1-0.1,1.5c-0.4,3.4-1.2,6.2-2.6,8.5c-0.4,0.7-1.2,1.1-2,1.1C1409,566.7,1408.6,566.6,1408.3,566.4z M1348.9,564.7
							c-1.3-0.1-2.3-1.2-2.2-2.5c0.2-2.6,0.6-5.1,1.2-7.5c-2.9-1.4-5.7-2.7-8.2-4.1c-1.1-0.6-1.6-2-1-3.2c0.6-1.1,2-1.6,3.2-1
							c2.5,1.3,5.3,2.7,8.2,4.1c0.2,0.1,0.4,0.2,0.5,0.3c0.2,0,0.5,0,0.8,0.1c1.2,0.4,1.9,1.7,1.5,2.9c-0.8,2.7-1.4,5.6-1.6,8.6
							c-0.1,1.2-1.1,2.2-2.3,2.2C1349,564.7,1349,564.7,1348.9,564.7z M1365.6,562.2c-3.3-1.3-6-2.4-8.7-3.5
							c-1.2-0.5-1.7-1.9-1.2-3.1c0.5-1.2,1.9-1.7,3.1-1.2c2.6,1.1,5.4,2.2,8.6,3.5c1.2,0.5,1.8,1.8,1.3,3c-0.4,0.9-1.2,1.5-2.2,1.5
							C1366.2,562.3,1365.9,562.3,1365.6,562.2z M777.4,556.4c-1.9-2.6-3.8-5.2-5.5-7.6c-0.7-1.1-0.5-2.5,0.6-3.3
							c1.1-0.7,2.5-0.5,3.3,0.6c1.7,2.4,3.5,4.9,5.4,7.5c0.8,1,0.6,2.5-0.5,3.3c-0.4,0.3-0.9,0.5-1.4,0.5
							C778.5,557.3,777.8,557,777.4,556.4z M1408,547.4c-1.1-2.4-2.8-4.5-5.1-6.4c-1-0.8-1.1-2.3-0.3-3.3c0.8-1,2.3-1.1,3.3-0.3
							c2.8,2.3,5,5,6.4,8.1c0.5,1.2,0,2.6-1.1,3.1c-0.3,0.1-0.7,0.2-1,0.2C1409.2,548.7,1408.4,548.2,1408,547.4z M1353.4,546.8
							c-1.1-0.7-1.4-2.1-0.7-3.2c1.8-2.8,4-5.4,6.5-7.5c1-0.8,2.5-0.7,3.3,0.3c0.8,1,0.7,2.5-0.3,3.3c-2.2,1.9-4.1,4-5.6,6.5
							c-0.4,0.7-1.2,1.1-2,1.1C1354.3,547.2,1353.8,547,1353.4,546.8z M1331.6,545.9c-3-1.9-5.6-3.9-7.8-5.7c-1-0.8-1.1-2.3-0.2-3.3
							c0.8-1,2.3-1.1,3.3-0.2c2,1.7,4.4,3.5,7.2,5.3c1.1,0.7,1.4,2.1,0.7,3.2c-0.4,0.7-1.2,1.1-2,1.1
							C1332.4,546.2,1332,546.1,1331.6,545.9z M766.6,540.9c-1.7-2.7-3.4-5.4-4.9-8c-0.6-1.1-0.3-2.5,0.8-3.2
							c1.1-0.6,2.5-0.3,3.2,0.8c1.5,2.6,3.1,5.2,4.8,7.9c0.7,1.1,0.4,2.5-0.7,3.2c-0.4,0.2-0.8,0.4-1.3,0.4
							C767.8,542,767.1,541.6,766.6,540.9z M1395.4,536.7c-2.6-1.1-5.5-1.8-8.5-2.3c-1.3-0.2-2.2-1.4-2-2.7c0.2-1.3,1.4-2.2,2.7-2
							c3.3,0.5,6.5,1.4,9.5,2.6c1.2,0.5,1.8,1.8,1.3,3c-0.4,0.9-1.2,1.5-2.2,1.5C1396,536.8,1395.7,536.8,1395.4,536.7z
							 M1366.7,534.1c-0.4-1.2,0.3-2.5,1.5-3c3-1,6.3-1.6,9.7-1.8c1.3-0.1,2.4,0.9,2.5,2.2c0.1,1.3-0.9,2.4-2.2,2.5
							c-3.1,0.2-5.9,0.7-8.5,1.6c-0.2,0.1-0.5,0.1-0.7,0.1C1367.9,535.7,1367,535.1,1366.7,534.1z M1317.2,532.5l-0.1-0.2
							c-1.6-2.9-2.8-6-3.5-9.1c-0.3-1.3,0.5-2.5,1.8-2.8c1.3-0.3,2.5,0.5,2.8,1.8c0.6,2.7,1.6,5.4,3,7.9l0.1,0.2
							c0.6,1.1,0.2,2.6-0.9,3.2c-0.4,0.2-0.8,0.3-1.1,0.3C1318.5,533.7,1317.7,533.3,1317.2,532.5z M757.2,524.6
							c-1.5-2.8-2.9-5.7-4.1-8.5c-0.5-1.2,0-2.6,1.2-3.1c1.2-0.5,2.6,0,3.1,1.2c1.3,2.8,2.6,5.5,4,8.3c0.6,1.1,0.1,2.6-1,3.2
							c-0.3,0.2-0.7,0.3-1.1,0.3C758.4,525.9,757.6,525.4,757.2,524.6z M1315.2,515.7c-1.3-0.1-2.2-1.2-2.1-2.5
							c0.2-3.2,0.9-6.4,2-9.7c0.4-1.2,1.7-1.9,3-1.5c1.2,0.4,1.9,1.7,1.5,3c-1,2.9-1.6,5.8-1.8,8.6c-0.1,1.2-1.1,2.2-2.3,2.2
							C1315.3,515.7,1315.2,515.7,1315.2,515.7z M749.3,507.4c-0.5-1.2-0.9-2.3-1.4-3.6c-0.6-1.8-1.2-3.6-1.7-5.4
							c-0.4-1.2,0.3-2.5,1.6-2.9c1.2-0.4,2.5,0.3,2.9,1.6c0.6,1.8,1.1,3.6,1.7,5.2c0.4,1.1,0.8,2.3,1.3,3.4c0.5,1.2-0.1,2.6-1.3,3
							c-0.3,0.1-0.6,0.2-0.9,0.2C750.6,508.9,749.7,508.4,749.3,507.4z M1319.9,497.8c-1.1-0.6-1.5-2.1-0.9-3.2
							c1.3-2.4,2.9-4.7,4.6-7c0.3-0.4,0.6-0.7,0.9-1c0.8-1,2.3-1.1,3.3-0.3c1,0.8,1.1,2.3,0.3,3.3c-0.3,0.3-0.5,0.6-0.7,0.9
							c-1.6,2.1-3,4.3-4.2,6.5c-0.4,0.8-1.2,1.2-2,1.2C1320.6,498.1,1320.2,498,1319.9,497.8z M743.7,489.4
							c-0.8-3.1-1.5-6.2-2.1-9.2c-0.3-1.3,0.6-2.5,1.8-2.8c1.3-0.3,2.5,0.6,2.8,1.8c0.6,2.9,1.3,5.9,2.1,9c0.3,1.2-0.4,2.5-1.7,2.8
							c-0.2,0.1-0.4,0.1-0.6,0.1C744.9,491.1,744,490.4,743.7,489.4z M1331,482.9c-0.9-1-0.8-2.4,0.2-3.3c2.4-2.1,5-4.1,7.7-5.8
							c1.1-0.7,2.5-0.4,3.2,0.7c0.7,1.1,0.4,2.5-0.7,3.2c-2.5,1.6-4.9,3.4-7.2,5.4c-0.4,0.4-1,0.6-1.5,0.6
							C1332.1,483.7,1331.4,483.5,1331,482.9z M1346.2,472.4c-0.5-1.2,0-2.6,1.2-3.1c2.8-1.3,5.8-2.4,9-3.4c1.2-0.4,2.5,0.3,2.9,1.5
							c0.4,1.2-0.3,2.5-1.5,2.9c-3,1-5.8,2-8.4,3.2c-0.3,0.1-0.6,0.2-1,0.2C1347.5,473.7,1346.6,473.2,1346.2,472.4z M740,470.8
							c-0.5-3.2-0.8-6.4-1-9.4c-0.1-1.3,0.9-2.4,2.2-2.5c1.3-0.1,2.4,0.9,2.5,2.2c0.2,2.9,0.5,6,1,9.1c0.2,1.3-0.7,2.5-2,2.6
							c-0.1,0-0.2,0-0.3,0C741.1,472.9,740.1,472,740,470.8z M1363.8,466.1c-0.3-1.3,0.5-2.5,1.8-2.8c2.4-0.6,5.1-1.1,7.8-1.5
							c0.5-0.1,0.9-0.2,1.4-0.3c1.3-0.3,2.5,0.5,2.8,1.8c0.3,1.3-0.5,2.5-1.8,2.8c-0.5,0.1-1.1,0.2-1.6,0.3
							c-2.6,0.4-5.2,0.9-7.5,1.5c-0.2,0-0.3,0.1-0.5,0.1C1365,468,1364,467.2,1363.8,466.1z M1381.8,461.7c-0.6-1.1-0.2-2.5,0.9-3.2
							c2.5-1.3,4.9-3,7.2-5c1-0.8,2.5-0.7,3.3,0.2c0.8,1,0.7,2.4-0.2,3.3c-2.6,2.2-5.3,4.1-8,5.6c-0.4,0.2-0.7,0.3-1.1,0.3
							C1383.1,462.9,1382.3,462.5,1381.8,461.7z M741,454.3c-1.3,0-2.3-1.1-2.3-2.4c0.1-3.3,0.3-6.5,0.7-9.6c0.2-1.3,1.3-2.2,2.6-2
							c1.3,0.2,2.2,1.4,2,2.6c-0.4,2.9-0.6,5.9-0.7,9C743.4,453.3,742.4,454.3,741,454.3C741.1,454.3,741,454.3,741,454.3z
							 M1396.5,450.4c-1-0.8-1.2-2.3-0.3-3.3c1.9-2.3,3.6-4.8,5.1-7.4c0.7-1.1,2.1-1.5,3.2-0.8c1.1,0.7,1.5,2.1,0.8,3.2
							c-1.6,2.8-3.5,5.5-5.5,8c-0.5,0.6-1.1,0.9-1.8,0.9C1397.5,450.9,1396.9,450.7,1396.5,450.4z M743,435.8
							c-1.2-0.4-2-1.6-1.6-2.9c0.9-3.2,2.1-6.3,3.5-9.1c0.6-1.2,2-1.6,3.1-1.1c1.2,0.6,1.6,2,1.1,3.1c-1.3,2.6-2.3,5.3-3.2,8.3
							c-0.3,1-1.2,1.7-2.2,1.7C743.5,435.9,743.2,435.8,743,435.8z M1406.1,434.5c-1.3-0.1-2.2-1.3-2.1-2.6c0.1-0.7,0.1-1.5,0.1-2.3
							c0-1.9-0.3-4-0.8-6.2c-0.3-1.3,0.5-2.5,1.7-2.8c1.3-0.3,2.5,0.5,2.8,1.7c0.6,2.5,0.9,5,0.9,7.3c0,0.9,0,1.9-0.1,2.8
							c-0.1,1.2-1.1,2.1-2.3,2.1C1406.3,434.5,1406.2,434.5,1406.1,434.5z M750.5,418.8c-1-0.8-1.2-2.3-0.4-3.3
							c2-2.6,4.4-4.9,6.9-6.9c1-0.8,2.5-0.6,3.3,0.4c0.8,1,0.6,2.5-0.4,3.3c-2.3,1.8-4.4,3.9-6.2,6.2c-0.5,0.6-1.1,0.9-1.8,0.9
							C751.4,419.3,750.9,419.2,750.5,418.8z M1400.5,415.1c-1.2-2.5-2.6-5.2-4.3-7.9c-0.7-1.1-0.3-2.5,0.8-3.2
							c1.1-0.7,2.5-0.3,3.2,0.8c1.8,2.9,3.3,5.7,4.6,8.5c0.5,1.2,0,2.6-1.2,3.1c-0.3,0.1-0.6,0.2-1,0.2
							C1401.7,416.5,1400.9,416,1400.5,415.1z M764.3,406.5c-0.6-1.2-0.1-2.6,1-3.1c0.3-0.2,0.7-0.3,0.9-0.5c2.4-1.3,5-2.4,7.8-3.5
							c1.2-0.5,2.6,0.1,3,1.4c0.5,1.2-0.1,2.6-1.4,3c-2.6,1-5,2.1-7.3,3.3c-0.3,0.2-0.6,0.3-0.9,0.5c-0.3,0.2-0.7,0.3-1.1,0.3
							C765.5,407.7,764.7,407.3,764.3,406.5z M781.5,399.3c-0.3-1.2,0.4-2.5,1.6-2.9c2.7-0.7,5.7-1.4,9.2-2.2
							c1.3-0.3,2.5,0.5,2.8,1.8c0.3,1.3-0.6,2.5-1.8,2.8c-3.4,0.7-6.3,1.4-8.9,2.1c-0.2,0.1-0.4,0.1-0.6,0.1
							C782.7,401,781.7,400.3,781.5,399.3z M1391,399.7c-1.8-2.4-3.7-4.7-5.8-7.1c-0.9-1-0.8-2.4,0.2-3.3c1-0.9,2.4-0.8,3.3,0.2
							c2.1,2.4,4.2,4.9,6,7.4c0.8,1,0.6,2.5-0.5,3.3c-0.4,0.3-0.9,0.5-1.4,0.5C1392.2,400.6,1391.5,400.3,1391,399.7z M801.9,394.8
							l-0.3-2.3c3-0.6,6-1.1,9-1.7c1.3-0.3,2.5,0.6,2.8,1.8c0.3,1.3-0.6,2.5-1.8,2.8c-3,0.6-6.1,1.2-9.1,1.8L801.9,394.8l0.4,2.3
							L801.9,394.8z M817.9,391.5c-0.3-1.2,0.4-2.5,1.7-2.9l1.2-0.3c2.4-0.7,4.9-1.5,7.3-2.5c1.2-0.5,2.6,0.1,3,1.3
							c0.5,1.2-0.1,2.6-1.3,3c-2.6,1.1-5.3,2-7.8,2.7c-0.4,0.1-0.8,0.2-1.3,0.4c-0.2,0.1-0.4,0.1-0.6,0.1
							C819.1,393.2,818.2,392.6,817.9,391.5z M1378.9,385.9c-1.7-1.6-3.3-3.1-4.8-4.4c-0.7-0.6-1.3-1.1-2-1.7
							c-1-0.8-1.1-2.3-0.3-3.3c0.8-1,2.3-1.1,3.3-0.3c0.7,0.6,1.4,1.1,2,1.7c1.6,1.4,3.3,2.9,5,4.6c0.9,0.9,0.9,2.4,0,3.3
							c-0.5,0.5-1.1,0.7-1.7,0.7C1380,386.6,1379.4,386.4,1378.9,385.9z M835.4,385.1c-0.6-1.1-0.2-2.6,1-3.2c2.6-1.4,5.2-3,7.8-4.7
							c1.1-0.7,2.5-0.4,3.2,0.7c0.7,1.1,0.4,2.5-0.7,3.2c-2.7,1.8-5.5,3.4-8.2,4.9c-0.3,0.2-0.7,0.3-1.1,0.3
							C836.6,386.3,835.8,385.9,835.4,385.1z M851.2,375.2c-0.8-1-0.6-2.5,0.4-3.3c2.4-1.9,4.7-3.9,7-5.9c1-0.9,2.4-0.8,3.3,0.1
							c0.9,1,0.8,2.4-0.1,3.3c-2.3,2.1-4.8,4.2-7.2,6.1c-0.4,0.3-0.9,0.5-1.4,0.5C852.3,376.1,851.6,375.8,851.2,375.2z M1365,373.9
							c-2.4-1.9-4.8-3.8-7.3-5.7c-1-0.8-1.2-2.3-0.4-3.3c0.8-1,2.3-1.2,3.3-0.4c2.5,1.9,5,3.9,7.4,5.8c1,0.8,1.2,2.3,0.4,3.3
							c-0.5,0.6-1.1,0.9-1.8,0.9C1365.9,374.4,1365.4,374.2,1365,373.9z M865.2,362.9c-1-0.8-1.1-2.3-0.3-3.3c2-2.3,3.4-4.8,4.4-7.3
							c0.5-1.2,1.8-1.8,3-1.4c1.2,0.5,1.8,1.8,1.4,3c-1.1,3-2.9,5.9-5.2,8.6c-0.5,0.6-1.1,0.8-1.8,0.8
							C866.1,363.4,865.6,363.2,865.2,362.9z M1350.3,362.6c-2.5-1.8-5-3.6-7.5-5.4c-1.1-0.7-1.3-2.2-0.6-3.3
							c0.7-1.1,2.2-1.3,3.3-0.6c2.6,1.8,5.1,3.6,7.6,5.5c1,0.8,1.3,2.2,0.5,3.3c-0.5,0.6-1.2,1-1.9,1
							C1351.2,363,1350.7,362.9,1350.3,362.6z M1335.1,352c-2.6-1.7-5.2-3.4-7.8-5.1c-1.1-0.7-1.4-2.1-0.7-3.2
							c0.7-1.1,2.1-1.4,3.2-0.7c2.6,1.7,5.2,3.4,7.8,5.1c1.1,0.7,1.4,2.2,0.6,3.2c-0.5,0.7-1.2,1-1.9,1
							C1335.9,352.3,1335.5,352.2,1335.1,352z M870.6,344.1c-0.1-2.7-0.8-5.4-2-8.2c-0.5-1.2,0.1-2.6,1.2-3.1
							c1.2-0.5,2.6,0.1,3.1,1.2c1.4,3.3,2.2,6.6,2.3,9.8c0.1,1.3-0.9,2.4-2.2,2.4c0,0-0.1,0-0.1,0
							C871.7,346.3,870.6,345.4,870.6,344.1z M1319.5,341.9c-2.6-1.6-5.3-3.2-8-4.8c-1.1-0.7-1.5-2.1-0.8-3.2
							c0.7-1.1,2.1-1.5,3.2-0.8c2.7,1.6,5.4,3.2,8,4.8c1.1,0.7,1.4,2.1,0.8,3.2c-0.4,0.7-1.2,1.1-2,1.1
							C1320.3,342.3,1319.8,342.2,1319.5,341.9z M1303.5,332.6c-1.4-0.8-2.7-1.5-4.1-2.3l-4-2.2c-1.1-0.6-1.5-2-0.9-3.2
							c0.6-1.1,2-1.5,3.2-0.9l4,2.2c1.4,0.8,2.8,1.5,4.1,2.3c1.1,0.6,1.5,2.1,0.9,3.2c-0.4,0.8-1.2,1.2-2,1.2
							C1304.2,332.9,1303.8,332.8,1303.5,332.6z M844.9,330.5c-0.1-1.3,0.9-2.4,2.2-2.5c3.1-0.2,6.1-0.7,8.7-1.4
							c1.2-0.4,2.5,0.4,2.9,1.6c0.4,1.2-0.4,2.5-1.6,2.9c-2.9,0.8-6.2,1.4-9.7,1.6c0,0-0.1,0-0.1,0C846,332.7,845,331.8,844.9,330.5
							z M837.7,332.5c-1.4-0.1-2.8-0.3-4.2-0.5c-1.8-0.3-3.5-0.6-5.3-1c-1.3-0.3-2.1-1.5-1.8-2.8c0.3-1.3,1.5-2.1,2.8-1.8
							c1.7,0.4,3.3,0.7,5,1c1.3,0.2,2.6,0.4,3.9,0.5c1.3,0.1,2.2,1.3,2.1,2.5c-0.1,1.2-1.1,2.1-2.3,2.1
							C837.9,332.6,837.8,332.6,837.7,332.5z M864.2,328.4c-1.7-2.2-3.7-4.5-6-6.6c-0.9-0.9-1-2.4-0.1-3.3c0.9-0.9,2.4-1,3.3-0.1
							c1.2,1.2,2.4,2.4,3.5,3.6c1.6-1.4,2.9-3.1,3.8-5c0.6-1.2,2-1.7,3.1-1.1c1.2,0.6,1.7,2,1.1,3.1c-1.2,2.5-2.9,4.7-5,6.6
							c0,0,0,0,0,0c0.8,1,0.6,2.5-0.5,3.3c-0.4,0.3-0.9,0.5-1.4,0.5C865.4,329.3,864.7,329,864.2,328.4z M819,328.4
							c-3.4-1.2-6.4-2.6-8.9-4.2c-1.1-0.7-1.4-2.1-0.7-3.2c0.7-1.1,2.1-1.4,3.2-0.7c2.2,1.4,4.9,2.7,8,3.8c1.2,0.4,1.8,1.8,1.4,3
							c-0.3,1-1.2,1.5-2.2,1.5C819.5,328.5,819.2,328.4,819,328.4z M1287.2,323.5l-8.2-4.5c-1.1-0.6-1.5-2-0.9-3.2
							c0.6-1.1,2.1-1.5,3.2-0.9l8.2,4.5c1.1,0.6,1.5,2,0.9,3.2c-0.4,0.8-1.2,1.2-2,1.2C1287.9,323.8,1287.5,323.7,1287.2,323.5z
							 M802.7,317.1c-1.6-2.5-2.4-5.3-2.4-8.2c0-0.2,0-0.3,0-0.5c0-0.6,0.1-1.3,0.2-1.9c0.2-1.3,1.4-2.1,2.7-1.9
							c1.3,0.2,2.1,1.4,1.9,2.7c-0.1,0.4-0.1,0.8-0.1,1.3l0,0.3c0,2,0.5,3.9,1.7,5.7c0.7,1.1,0.4,2.5-0.7,3.2
							c-0.4,0.2-0.8,0.4-1.2,0.4C803.9,318.2,803.1,317.8,802.7,317.1z M851.3,316c-2.4-1.7-5-3.4-7.7-4.8c-1.1-0.6-1.5-2-0.9-3.2
							c0.6-1.1,2-1.5,3.2-0.9c2.8,1.5,5.5,3.3,8.1,5.1c1,0.8,1.3,2.2,0.5,3.3c-0.5,0.6-1.2,1-1.9,1
							C852.2,316.4,851.7,316.3,851.3,316z M1270.8,314.5c-2.7-1.5-5.4-3-8.2-4.5c-1.1-0.6-1.5-2-0.9-3.2c0.6-1.1,2-1.5,3.2-0.9
							c2.7,1.5,5.4,3,8.2,4.5c1.1,0.6,1.5,2,0.9,3.2c-0.4,0.8-1.2,1.2-2,1.2C1271.6,314.8,1271.2,314.7,1270.8,314.5z M872.8,311.2
							c-1.3-0.1-2.2-1.2-2.1-2.5c0.1-1,0.1-2.1,0.1-3.2c0-2-0.1-4-0.3-5.8c-0.1-1.3,0.9-2.4,2.2-2.5c1.3-0.1,2.4,0.9,2.5,2.2
							c0.1,1.9,0.3,4,0.3,6.1c0,1.2,0,2.4-0.1,3.5c-0.1,1.2-1.1,2.2-2.3,2.2C872.9,311.2,872.8,311.2,872.8,311.2z M835.5,307.3
							c-2.9-1.2-5.8-2-8.5-2.6c-1.3-0.3-2.1-1.5-1.8-2.8c0.3-1.3,1.5-2.1,2.8-1.8c3,0.6,6.1,1.6,9.3,2.9c1.2,0.5,1.8,1.8,1.3,3
							c-0.4,0.9-1.2,1.5-2.2,1.5C836,307.5,835.7,307.5,835.5,307.3z M1254.5,305.5c-2.7-1.5-5.5-3-8.2-4.4c-1.1-0.6-1.6-2-0.9-3.2
							c0.6-1.1,2-1.6,3.2-0.9c2.7,1.5,5.5,3,8.2,4.5c1.1,0.6,1.5,2,0.9,3.2c-0.4,0.8-1.2,1.2-2.1,1.2
							C1255.3,305.8,1254.9,305.7,1254.5,305.5z M817.9,303.4c-1.6-0.2-3.8-0.5-5.7-0.5c-1.1,0-2,0.1-2.8,0.2
							c-1.3,0.2-2.5-0.6-2.7-1.9c-0.2-1.3,0.6-2.5,1.9-2.7c1.1-0.2,2.3-0.3,3.7-0.3c2.2,0,4.5,0.3,6.3,0.5c1.3,0.2,2.2,1.3,2,2.6
							c-0.2,1.2-1.2,2-2.3,2C818.1,303.4,818,303.4,817.9,303.4z M1238.1,296.7c-2.7-1.5-5.5-2.9-8.2-4.3c-1.1-0.6-1.6-2-1-3.2
							c0.6-1.1,2-1.6,3.2-1c2.8,1.4,5.5,2.9,8.3,4.4c1.1,0.6,1.6,2,1,3.2c-0.4,0.8-1.2,1.2-2.1,1.2
							C1238.9,297,1238.5,296.9,1238.1,296.7z M872.3,292.6c-1.3,0-2.3-1.1-2.3-2.4c0.1-3.6,0.6-6.8,1.7-9.9c0.4-1.2,1.7-1.9,3-1.5
							c1.2,0.4,1.9,1.8,1.4,3c-0.9,2.6-1.3,5.3-1.4,8.4C874.6,291.6,873.6,292.6,872.3,292.6C872.3,292.6,872.3,292.6,872.3,292.6z
							 M1221.6,288.1l-3.3-1.7c-1.7-0.8-3.3-1.7-5-2.5c-1.2-0.6-1.6-2-1.1-3.1c0.6-1.2,2-1.6,3.1-1.1c1.7,0.8,3.4,1.7,5.1,2.5
							l3.3,1.7c1.1,0.6,1.6,2,1,3.1c-0.4,0.8-1.2,1.3-2.1,1.3C1222.3,288.3,1222,288.2,1221.6,288.1z M1205,279.9
							c-2.8-1.3-5.6-2.6-8.4-3.8c-1.2-0.5-1.7-1.9-1.2-3.1c0.5-1.2,1.9-1.7,3.1-1.2c2.9,1.3,5.7,2.6,8.5,3.9
							c1.2,0.5,1.7,1.9,1.1,3.1c-0.4,0.9-1.2,1.4-2.1,1.4C1205.6,280.1,1205.3,280.1,1205,279.9z M876.9,274.8
							c-1.1-0.7-1.4-2.2-0.6-3.2c1.8-2.7,3.8-5.2,6.1-7.6c0.9-0.9,2.4-1,3.3-0.1c0.9,0.9,1,2.4,0.1,3.3c-2.1,2.2-3.9,4.5-5.6,7
							c-0.5,0.7-1.2,1-1.9,1C877.7,275.2,877.3,275.1,876.9,274.8z M1188,272.4c-2.9-1.2-5.7-2.4-8.6-3.5c-1.2-0.5-1.8-1.8-1.3-3
							c0.5-1.2,1.8-1.8,3-1.3c2.9,1.1,5.8,2.3,8.7,3.5c1.2,0.5,1.8,1.9,1.3,3.1c-0.4,0.9-1.2,1.4-2.2,1.4
							C1188.6,272.6,1188.3,272.5,1188,272.4z M1170.7,265.6c-2.9-1.1-5.8-2.1-8.7-3.1c-1.2-0.4-1.9-1.8-1.4-3
							c0.4-1.2,1.8-1.9,3-1.4c3,1,5.9,2.1,8.8,3.2c1.2,0.4,1.8,1.8,1.4,3c-0.3,0.9-1.2,1.5-2.2,1.5
							C1171.3,265.8,1171,265.7,1170.7,265.6z M889,260.8c-0.8-1-0.6-2.5,0.4-3.3c2.5-1.9,5.1-3.7,8-5.4c1.1-0.7,2.5-0.3,3.2,0.8
							c0.7,1.1,0.3,2.5-0.8,3.2c-2.7,1.6-5.2,3.3-7.5,5c-0.4,0.3-0.9,0.5-1.4,0.5C890.2,261.7,889.5,261.4,889,260.8z M1153.2,259.5
							c-2.9-1-5.9-1.9-8.9-2.8c-1.2-0.4-1.9-1.7-1.6-2.9c0.4-1.2,1.7-1.9,2.9-1.6c3,0.9,6,1.8,8.9,2.8c1.2,0.4,1.9,1.7,1.5,2.9
							c-0.3,1-1.2,1.6-2.2,1.6C1153.7,259.7,1153.5,259.6,1153.2,259.5z M1135.5,254.2c-3-0.8-6-1.6-9-2.4c-1.3-0.3-2-1.6-1.7-2.8
							c0.3-1.3,1.6-2,2.8-1.7c3,0.8,6,1.6,9,2.4c1.2,0.3,2,1.6,1.6,2.9c-0.3,1-1.2,1.7-2.2,1.7
							C1135.9,254.3,1135.7,254.2,1135.5,254.2z M904.7,250.9c-0.5-1.2,0-2.6,1.2-3.1c2.8-1.3,5.7-2.4,8.8-3.5
							c1.2-0.4,2.6,0.2,3,1.4c0.4,1.2-0.2,2.6-1.4,3c-3,1-5.8,2.2-8.5,3.4c-0.3,0.1-0.6,0.2-1,0.2
							C906,252.3,905.1,251.7,904.7,250.9z M1117.5,249.5c-3-0.7-6-1.4-9-2c-1.3-0.3-2.1-1.5-1.8-2.8c0.3-1.3,1.5-2.1,2.8-1.8
							c3.1,0.7,6.1,1.3,9.1,2.1c1.3,0.3,2,1.6,1.7,2.8c-0.3,1.1-1.2,1.8-2.3,1.8C1117.9,249.6,1117.7,249.6,1117.5,249.5z
							 M922.2,244.3c-0.3-1.2,0.4-2.5,1.6-2.9c2.9-0.8,6-1.6,9.2-2.3c1.3-0.3,2.5,0.5,2.8,1.8c0.3,1.3-0.5,2.5-1.8,2.8
							c-3.1,0.7-6.1,1.4-8.9,2.2c-0.2,0.1-0.4,0.1-0.6,0.1C923.4,246,922.5,245.3,922.2,244.3z M1099.4,245.6
							c-3-0.6-6.1-1.1-9.1-1.7c-1.3-0.2-2.1-1.4-1.9-2.7c0.2-1.3,1.4-2.1,2.7-1.9c3.1,0.5,6.2,1.1,9.2,1.7c1.3,0.2,2.1,1.5,1.9,2.7
							c-0.2,1.1-1.2,1.9-2.3,1.9C1099.7,245.7,1099.5,245.7,1099.4,245.6z M1081.2,242.6c-2.8-0.3-5.8-0.6-9.2-0.9
							c-1.3-0.1-2.2-1.2-2.1-2.5c0.1-1.3,1.2-2.3,2.5-2.1c3.4,0.3,6.5,0.6,9.4,0.9c1.3,0.2,2.2,1.3,2,2.6c-0.1,1.2-1.2,2.1-2.3,2.1
							C1081.3,242.6,1081.2,242.6,1081.2,242.6z M940.3,240c-0.2-1.3,0.6-2.5,1.9-2.7c2.8-0.5,5.9-1,9.3-1.6
							c1.3-0.2,2.5,0.7,2.7,1.9c0.2,1.3-0.7,2.5-1.9,2.7c-3.3,0.5-6.3,1-9.1,1.6c-0.1,0-0.3,0-0.4,0
							C941.5,241.9,940.5,241.1,940.3,240z M1062.7,241.1c-2-0.1-4-0.2-5.9-0.3l-3.4-0.2c-1.3-0.1-2.3-1.2-2.2-2.5
							c0.1-1.3,1.1-2.3,2.5-2.2l3.4,0.2c2,0.1,4,0.2,5.9,0.3c1.3,0.1,2.3,1.2,2.2,2.5c-0.1,1.2-1.1,2.2-2.3,2.2
							C1062.8,241.1,1062.8,241.1,1062.7,241.1z M1044.1,240c-3.4-0.3-6.5-0.5-9.4-0.8c-1.3-0.1-2.2-1.3-2.1-2.6
							c0.1-1.3,1.3-2.2,2.6-2.1c2.8,0.3,5.8,0.6,9.2,0.8c1.3,0.1,2.3,1.2,2.2,2.5c-0.1,1.2-1.1,2.2-2.3,2.2
							C1044.2,240,1044.1,240,1044.1,240z M958.7,237c-0.2-1.3,0.7-2.5,2-2.7l0.8-0.1c2.7-0.4,5.3-0.8,7.8-1.2l0.6-0.1
							c1.3-0.2,2.5,0.7,2.7,2c0.2,1.3-0.7,2.5-2,2.7l-0.6,0.1c-2.5,0.4-5.2,0.8-7.9,1.2l-0.8,0.1c-0.1,0-0.2,0-0.3,0
							C959.9,239,958.9,238.1,958.7,237z M1025.3,237.8c-2-0.3-4-0.7-6-1.1c-1.1-0.2-2.2-0.5-3.2-0.6c-1.3-0.2-2.1-1.4-1.9-2.7
							c0.2-1.3,1.5-2.1,2.7-1.9c1.1,0.2,2.2,0.4,3.4,0.7c1.8,0.4,3.8,0.8,5.7,1.1c1.3,0.2,2.1,1.4,1.9,2.7c-0.2,1.1-1.2,2-2.3,2
							C1025.6,237.9,1025.5,237.9,1025.3,237.8z M977.1,234.2c-0.2-1.3,0.7-2.5,2-2.6c3.6-0.5,6.5-0.8,9.4-1.1
							c1.3-0.1,2.4,0.8,2.5,2.1c0.1,1.3-0.8,2.4-2.1,2.5c-2.8,0.3-5.7,0.6-9.1,1.1c-0.1,0-0.2,0-0.3,0
							C978.3,236.2,977.3,235.4,977.1,234.2z M1007.1,234.9c-2.5-0.2-4.9-0.3-7.5-0.3c-0.5,0-1.1,0-1.6,0c-1.3,0-2.4-1-2.4-2.3
							c0-1.3,1-2.4,2.3-2.4c0.5,0,1.1,0,1.7,0c2.7,0,5.3,0.1,7.9,0.3c1.3,0.1,2.2,1.2,2.1,2.5c-0.1,1.2-1.1,2.1-2.3,2.1
							C1007.3,234.9,1007.2,234.9,1007.1,234.9z"/>
						</g>
						<g>
							<path class="st19" d="M1132.6,716.6c0.4,0,0.8-0.1,1.2-0.3c1.1-0.7,1.5-2.1,0.8-3.2c-0.8-1.3-1.6-2.7-2.3-4
							c-0.6-1.1-2.1-1.5-3.2-0.9c-1.1,0.6-1.5,2.1-0.9,3.2c0.8,1.4,1.6,2.7,2.4,4.1C1131,716.2,1131.8,716.6,1132.6,716.6z"/>
						</g>
					</g>
					<g>
						<polygon class="st19" points="1118.1,703.1 1142.7,682 1176.9,675.4 1077.8,613.1 1089.7,684 1102.9,684.9 					"/>
						<g class="st18">
							<polygon class="st19" points="1123.2,682.2 1077.8,613.1 1142.7,682 1117.9,703.2 						"/>
						</g>
						<g class="st18">
							<path class="st19" d="M1123.5,683.8c-5.6,0.1-18.1,0.4-20.6,1.1l15.3,18.2L1123.5,683.8z"/>
						</g>
						<g class="st18">
							<path class="st19" d="M1123.5,683.8c-5.6,0.1-18.1,0.4-20.6,1.1l15.3,18.2L1123.5,683.8z"/>
						</g>
					</g>
				</g>
				<g>
					<g>
						<g>
							<path class="st15" d="M904.5,881.8C904.5,881.8,904.6,881.8,904.5,881.8c1.6,0,3.2-0.1,4.8-0.1c1.3,0,2.3-1.1,2.3-2.4
							c0-1.3-1.1-2.3-2.4-2.3c-1.6,0.1-3.1,0.1-4.6,0.1c-1.3,0-2.3,1.1-2.3,2.4C902.2,880.8,903.3,881.8,904.5,881.8z"/>
						</g>
						<g>
							<path class="st15" d="M895.2,881.8c-3.2,0-6.4-0.1-9.4-0.2c-1.3-0.1-2.3-1.1-2.2-2.4c0.1-1.3,1.1-2.3,2.4-2.2
							c3,0.1,6.1,0.2,9.2,0.2c1.3,0,2.3,1.1,2.3,2.4C897.5,880.8,896.5,881.8,895.2,881.8C895.2,881.8,895.2,881.8,895.2,881.8z
							 M876.4,881.1c-3.2-0.2-6.3-0.6-9.4-0.9c-1.3-0.2-2.2-1.3-2-2.6c0.2-1.3,1.3-2.2,2.6-2c3,0.4,6.1,0.7,9.2,0.9
							c1.3,0.1,2.2,1.2,2.1,2.5c-0.1,1.2-1.1,2.2-2.3,2.2C876.5,881.1,876.5,881.1,876.4,881.1z M857.7,878.7
							c-3.1-0.6-6.3-1.2-9.3-1.9c-1.3-0.3-2-1.6-1.7-2.8c0.3-1.3,1.6-2,2.8-1.7c2.9,0.7,5.9,1.3,9,1.8c1.3,0.2,2.1,1.4,1.9,2.7
							c-0.2,1.1-1.2,1.9-2.3,1.9C857.9,878.8,857.8,878.8,857.7,878.7z M839.3,874.4c-3-0.9-6.1-1.9-9-3c-1.2-0.5-1.8-1.8-1.4-3
							c0.5-1.2,1.8-1.8,3-1.4c2.8,1.1,5.7,2,8.7,2.9c1.2,0.4,1.9,1.7,1.6,2.9c-0.3,1-1.2,1.7-2.2,1.7
							C839.7,874.5,839.5,874.5,839.3,874.4z M821.5,867.8c-2.9-1.3-5.7-2.7-8.5-4.2c-1.1-0.6-1.6-2-0.9-3.2c0.6-1.1,2-1.6,3.2-0.9
							c2.7,1.4,5.4,2.8,8.2,4.1c1.2,0.5,1.7,1.9,1.2,3.1c-0.4,0.9-1.2,1.4-2.1,1.4C822.2,868,821.8,867.9,821.5,867.8z M804.9,858.7
							c-2.6-1.7-5.3-3.5-7.8-5.3c-1-0.8-1.3-2.2-0.5-3.3c0.8-1,2.2-1.3,3.3-0.5c2.5,1.8,5,3.5,7.6,5.2c1.1,0.7,1.4,2.1,0.7,3.2
							c-0.4,0.7-1.2,1.1-2,1.1C805.7,859.1,805.3,859,804.9,858.7z M789.6,847.6c-1.7-1.4-3.4-2.9-5.1-4.5c-0.6-0.6-1.3-1.2-1.9-1.9
							c-0.9-0.9-0.9-2.4,0-3.3c0.9-0.9,2.4-0.9,3.3,0c0.6,0.6,1.3,1.2,1.8,1.8c1.6,1.5,3.3,2.9,5,4.3c1,0.8,1.1,2.3,0.3,3.3
							c-0.5,0.6-1.1,0.8-1.8,0.8C790.6,848.1,790,847.9,789.6,847.6z M1332.3,840.2c0-1.3,1-2.4,2.3-2.4c3.1-0.1,6.1-0.2,9.2-0.4
							c1.3-0.1,2.4,0.9,2.5,2.2c0.1,1.3-0.9,2.4-2.2,2.5c-3.1,0.2-6.3,0.4-9.4,0.4c0,0,0,0,0,0
							C1333.4,842.5,1332.3,841.5,1332.3,840.2z M1325.3,842.4c-3.1-0.1-6.3-0.3-9.4-0.6c-1.3-0.1-2.2-1.3-2.1-2.5
							c0.1-1.3,1.3-2.2,2.5-2.1c3.1,0.3,6.1,0.5,9.2,0.6c1.3,0,2.3,1.1,2.2,2.4C1327.6,841.4,1326.6,842.4,1325.3,842.4
							C1325.3,842.4,1325.3,842.4,1325.3,842.4z M1350.9,839.1c-0.2-1.3,0.7-2.5,2-2.6c3-0.4,6.1-0.9,9.1-1.5
							c1.3-0.2,2.5,0.6,2.7,1.8c0.3,1.3-0.6,2.5-1.8,2.7c-3.1,0.6-6.2,1.1-9.3,1.6c-0.1,0-0.2,0-0.3,0
							C1352.1,841.1,1351.1,840.2,1350.9,839.1z M1306.5,840.7c-3.1-0.4-6.2-1-9.3-1.6c-1.3-0.2-2.1-1.5-1.8-2.7
							c0.2-1.3,1.5-2.1,2.7-1.8c3,0.6,6.1,1.1,9.1,1.6c1.3,0.2,2.2,1.4,2,2.6c-0.2,1.2-1.2,2-2.3,2
							C1306.7,840.7,1306.6,840.7,1306.5,840.7z M1369.3,835.7c-0.3-1.2,0.4-2.5,1.7-2.9c2.9-0.8,5.9-1.7,8.8-2.6
							c1.2-0.4,2.5,0.2,3,1.5c0.4,1.2-0.2,2.6-1.5,3c-3,1-6,1.9-9.1,2.7c-0.2,0.1-0.4,0.1-0.6,0.1
							C1370.5,837.5,1369.5,836.8,1369.3,835.7z M1287.9,837c-3-0.8-6.1-1.6-9.1-2.5c-1.2-0.4-1.9-1.7-1.6-2.9
							c0.4-1.2,1.7-1.9,2.9-1.6c2.9,0.9,5.9,1.7,8.9,2.4c1.3,0.3,2,1.6,1.7,2.8c-0.3,1.1-1.2,1.8-2.3,1.8
							C1288.3,837.1,1288.1,837.1,1287.9,837z M775.9,834.4c-2.1-2.3-4.2-4.7-6.2-7.1c-0.8-1-0.7-2.5,0.3-3.3c1-0.8,2.5-0.7,3.3,0.3
							c1.9,2.3,4,4.7,6,6.9c0.9,0.9,0.8,2.4-0.1,3.3c-0.5,0.4-1,0.6-1.6,0.6C777,835.2,776.4,834.9,775.9,834.4z M1269.9,831.6
							l-1.4-0.5c-2.4-1-4.9-2-7.3-3.1c-1.2-0.5-1.7-1.9-1.2-3.1c0.5-1.2,1.9-1.7,3.1-1.2c2.4,1,4.8,2,7.1,3l1.4,0.5
							c1.2,0.4,1.8,1.8,1.4,3c-0.3,1-1.2,1.6-2.2,1.6C1270.4,831.7,1270.1,831.7,1269.9,831.6z M1387,830.1
							c-0.5-1.2,0.1-2.6,1.3-3.1c2.8-1.2,5.6-2.4,8.4-3.8c1.2-0.6,2.6-0.1,3.1,1.1c0.6,1.2,0.1,2.6-1.1,3.1
							c-2.8,1.4-5.7,2.7-8.6,3.9c-0.3,0.1-0.6,0.2-0.9,0.2C1388.3,831.5,1387.4,831,1387,830.1z M1252.5,824.1
							c-2.8-1.4-5.6-2.8-8.4-4.3c-1.1-0.6-1.6-2-0.9-3.2c0.6-1.1,2-1.6,3.2-0.9c2.7,1.4,5.5,2.9,8.2,4.2c1.2,0.6,1.6,2,1.1,3.1
							c-0.4,0.8-1.2,1.3-2.1,1.3C1253.2,824.3,1252.9,824.2,1252.5,824.1z M1403.9,822.1c-0.6-1.1-0.3-2.5,0.8-3.2
							c2.6-1.5,5.2-3.2,7.8-4.9c1.1-0.7,2.5-0.5,3.2,0.6c0.7,1.1,0.4,2.5-0.6,3.2c-2.6,1.8-5.3,3.5-8,5.1c-0.4,0.2-0.8,0.3-1.2,0.3
							C1405.1,823.3,1404.3,822.9,1403.9,822.1z M763.9,819.8c-1.9-2.6-3.7-5.2-5.3-7.8c-0.7-1.1-0.4-2.5,0.7-3.2
							c1.1-0.7,2.5-0.4,3.2,0.7c1.6,2.5,3.3,5.1,5.2,7.6c0.8,1,0.5,2.5-0.5,3.3c-0.4,0.3-0.9,0.5-1.4,0.5
							C765.1,820.8,764.4,820.5,763.9,819.8z M1235.9,815.2c-2.7-1.6-5.4-3.2-8-4.9c-1.1-0.7-1.4-2.1-0.7-3.2
							c0.7-1.1,2.1-1.4,3.2-0.7c2.6,1.7,5.2,3.3,7.9,4.8c1.1,0.7,1.5,2.1,0.8,3.2c-0.4,0.7-1.2,1.2-2,1.2
							C1236.7,815.5,1236.3,815.4,1235.9,815.2z M1419.5,811.9c-0.8-1-0.6-2.5,0.4-3.3c0.7-0.6,1.5-1.2,2.2-1.7
							c1.5-1.5,2.9-3,4.2-4.5c0.9-1,2.3-1.1,3.3-0.2c1,0.9,1.1,2.3,0.2,3.3c-1.4,1.6-2.9,3.2-4.5,4.7c-0.1,0.1-0.1,0.1-0.2,0.2
							c-0.8,0.6-1.6,1.3-2.3,1.9c-0.4,0.3-0.9,0.5-1.4,0.5C1420.6,812.8,1419.9,812.5,1419.5,811.9z M1220.1,805
							c-2.6-1.8-5.1-3.6-7.6-5.5c-1-0.8-1.2-2.2-0.5-3.3c0.8-1,2.2-1.2,3.3-0.5c2.4,1.8,5,3.7,7.5,5.4c1.1,0.7,1.3,2.2,0.6,3.3
							c-0.5,0.7-1.2,1-1.9,1C1221,805.4,1220.5,805.3,1220.1,805z M753.8,803.8c-1.5-2.9-2.9-5.8-4.1-8.6c-0.5-1.2,0.1-2.6,1.3-3.1
							c1.2-0.5,2.6,0.1,3.1,1.3c1.1,2.7,2.4,5.5,3.9,8.2c0.6,1.1,0.2,2.6-1,3.2c-0.3,0.2-0.7,0.3-1.1,0.3
							C755,805,754.2,804.6,753.8,803.8z M1432.4,798.6c-1-0.8-1.3-2.2-0.5-3.3c1.8-2.5,3.4-5,4.9-7.6c0.6-1.1,2.1-1.5,3.2-0.9
							c1.1,0.6,1.5,2.1,0.9,3.2c-1.6,2.7-3.3,5.4-5.2,8c-0.5,0.6-1.2,1-1.9,1C1433.3,799.1,1432.8,798.9,1432.4,798.6z
							 M1205.1,793.7c-2.4-1.9-4.8-4-7.2-6c-1-0.8-1.1-2.3-0.2-3.3c0.8-1,2.3-1.1,3.3-0.2c2.3,2,4.7,4,7.1,5.9
							c1,0.8,1.2,2.3,0.3,3.3c-0.5,0.6-1.1,0.9-1.8,0.9C1206.1,794.2,1205.5,794,1205.1,793.7z M746.5,786.2c-0.9-3.2-1.6-6.4-2-9.5
							c-0.2-1.3,0.7-2.5,2-2.6c1.3-0.2,2.5,0.7,2.6,2c0.4,2.8,1,5.8,1.9,8.8c0.4,1.2-0.4,2.5-1.6,2.9c-0.2,0.1-0.4,0.1-0.6,0.1
							C747.7,787.8,746.8,787.2,746.5,786.2z M1442.1,782.7c-1.2-0.5-1.7-1.9-1.2-3.1c1.2-2.7,2.3-5.6,3.2-8.5
							c0.4-1.2,1.7-1.9,2.9-1.5c1.2,0.4,1.9,1.7,1.5,2.9c-1,3.1-2.1,6.1-3.4,8.9c-0.4,0.9-1.2,1.4-2.1,1.4
							C1442.7,782.9,1442.4,782.8,1442.1,782.7z M1190.9,781.4c-2.3-2.1-4.6-4.3-6.8-6.5c-0.9-0.9-0.9-2.4,0-3.3
							c0.9-0.9,2.4-0.9,3.3,0c2.2,2.2,4.4,4.3,6.7,6.4c0.9,0.9,1,2.4,0.1,3.3c-0.5,0.5-1.1,0.7-1.7,0.7
							C1191.9,782,1191.3,781.8,1190.9,781.4z M746.3,769.4c-1.3-0.1-2.3-1.2-2.2-2.5c0.2-3.3,0.8-6.6,1.7-9.7
							c0.4-1.2,1.7-1.9,2.9-1.6c1.2,0.4,1.9,1.7,1.6,2.9c-0.8,2.7-1.3,5.6-1.5,8.6c-0.1,1.2-1.1,2.2-2.3,2.2
							C746.4,769.4,746.4,769.4,746.3,769.4z M1177.5,768.1c-2.2-2.3-4.3-4.6-6.4-6.9c-0.9-1-0.8-2.4,0.2-3.3c1-0.9,2.4-0.8,3.3,0.2
							c2,2.3,4.1,4.6,6.3,6.8c0.9,0.9,0.9,2.4-0.1,3.3c-0.5,0.4-1,0.6-1.6,0.6C1178.6,768.9,1178,768.6,1177.5,768.1z M1447.9,765
							c-1.3-0.2-2.1-1.4-1.9-2.7c0.5-3,0.9-6.1,1.2-9.1c0.1-1.3,1.3-2.2,2.6-2.1c1.3,0.1,2.2,1.3,2.1,2.6c-0.3,3.1-0.7,6.3-1.2,9.4
							c-0.2,1.2-1.2,2-2.3,2C1448.2,765.1,1448,765.1,1447.9,765z M1165,754.1c-2-2.4-4-4.8-5.9-7.3c-0.8-1-0.6-2.5,0.4-3.3
							c1-0.8,2.5-0.6,3.3,0.4c1.9,2.4,3.9,4.8,5.9,7.2c0.8,1,0.7,2.5-0.3,3.3c-0.4,0.4-1,0.5-1.5,0.5
							C1166.1,755,1165.5,754.7,1165,754.1z M750.6,751.4c-1.1-0.7-1.5-2.1-0.8-3.2c1.6-2.7,3.6-5.4,5.9-7.8c0.9-0.9,2.4-1,3.3-0.1
							c0.9,0.9,1,2.4,0.1,3.3c-2.1,2.2-3.9,4.6-5.3,7c-0.4,0.7-1.2,1.1-2,1.1C751.4,751.8,751,751.7,750.6,751.4z M1450,746.5
							c-1.3,0-2.3-1.1-2.3-2.4c0.1-1.6,0.1-3.2,0.1-4.9c0-1.4,0-2.9-0.1-4.3c0-1.3,1-2.4,2.3-2.4c1.3-0.1,2.4,1,2.4,2.3
							c0,1.5,0.1,3,0.1,4.4c0,1.7,0,3.4-0.1,5C1452.4,745.5,1451.3,746.5,1450,746.5C1450.1,746.5,1450,746.5,1450,746.5z
							 M1153.3,739.4c-1.9-2.5-3.7-5-5.5-7.6c-0.7-1.1-0.5-2.5,0.6-3.3c1.1-0.7,2.5-0.5,3.3,0.6c1.8,2.5,3.6,5,5.5,7.5
							c0.8,1,0.6,2.5-0.5,3.3c-0.4,0.3-0.9,0.5-1.4,0.5C1154.5,740.4,1153.8,740.1,1153.3,739.4z M762.5,737.3
							c-0.8-1-0.6-2.5,0.5-3.3c2.3-1.7,4.9-3.4,7.9-5.3c1.1-0.7,2.5-0.3,3.2,0.8c0.7,1.1,0.3,2.5-0.8,3.2c-2.9,1.8-5.4,3.5-7.6,5.1
							c-0.4,0.3-0.9,0.5-1.4,0.5C763.7,738.2,763,737.9,762.5,737.3z M778.2,727.1c-0.6-1.1-0.3-2.6,0.9-3.2l0.9-0.5
							c2.4-1.4,4.8-2.8,7.1-4.2c1.1-0.7,2.5-0.3,3.2,0.8c0.7,1.1,0.3,2.5-0.8,3.2c-2.4,1.4-4.8,2.8-7.2,4.2l-0.9,0.5
							c-0.4,0.2-0.8,0.3-1.2,0.3C779.4,728.3,778.6,727.9,778.2,727.1z M1447.2,725.8c-0.3-3-0.7-6.1-1.1-9.1
							c-0.2-1.3,0.7-2.5,2-2.7c1.3-0.2,2.5,0.7,2.7,2c0.5,3.1,0.9,6.3,1.2,9.4c0.1,1.3-0.8,2.4-2.1,2.5c-0.1,0-0.1,0-0.2,0
							C1448.3,727.9,1447.3,727,1447.2,725.8z M1142.5,724.1c-1.7-2.6-3.4-5.2-5.1-7.9c-0.7-1.1-0.4-2.5,0.7-3.2
							c1.1-0.7,2.5-0.4,3.2,0.7c1.7,2.6,3.4,5.2,5,7.8c0.7,1.1,0.4,2.5-0.6,3.2c-0.4,0.3-0.8,0.4-1.3,0.4
							C1143.7,725.2,1142.9,724.8,1142.5,724.1z M794.2,717.5c-0.8-1-0.5-2.5,0.5-3.3c2.1-1.5,4-3,5.6-4.5c-3,0-6-0.4-9-1
							c-1.3-0.3-2.1-1.5-1.8-2.8c0.3-1.3,1.5-2.1,2.8-1.8c2.8,0.6,5.6,0.9,8.5,0.9c0,0,0,0,0,0h0.2c1.3,0,2.3,1,2.3,2.3
							c0,0.1,0,0.3,0,0.4c0.5,0,1.1,0.3,1.5,0.7c0.9,0.9,0.9,2.4,0,3.3c-2.1,2.1-4.5,4.1-7.4,6.2c-0.4,0.3-0.9,0.4-1.4,0.4
							C795.3,718.5,794.6,718.1,794.2,717.5z M1444.4,707.7c-0.6-3-1.4-6-2.2-8.9c-0.3-1.2,0.4-2.5,1.6-2.9c1.2-0.3,2.5,0.4,2.9,1.6
							c0.8,3,1.6,6.1,2.3,9.2c0.3,1.3-0.5,2.5-1.8,2.8c-0.2,0-0.3,0.1-0.5,0.1C1445.6,709.5,1444.6,708.7,1444.4,707.7z M808,706.9
							c-0.1-0.6,0-1.3,0.4-1.8c-0.2-0.1-0.4-0.1-0.6-0.3c-1.1-0.6-1.5-2.1-0.9-3.2c1.4-2.5,2.4-5.1,3-8c0.3-1.3,1.5-2.1,2.8-1.8
							c1.3,0.3,2.1,1.5,1.8,2.8c-0.7,3.3-1.8,6.4-3.5,9.3c2.5-0.6,5-1.3,7.4-2.3c1.2-0.5,2.6,0.1,3,1.3c0.5,1.2-0.1,2.6-1.3,3
							c-3.1,1.2-6.2,2.1-9.3,2.8c-0.2,0-0.3,0-0.5,0C809.2,708.8,808.2,708,808,706.9z M782,705.7c-2.9-1.3-5.8-3-8.4-5
							c-1-0.8-1.2-2.2-0.5-3.3c0.8-1,2.2-1.2,3.3-0.5c2.4,1.8,4.9,3.3,7.6,4.5c1.2,0.5,1.7,1.9,1.2,3.1c-0.4,0.9-1.2,1.4-2.1,1.4
							C782.6,705.9,782.3,705.8,782,705.7z M825.6,700.9c-0.7-1.1-0.3-2.5,0.8-3.2c2.5-1.5,4.9-3.3,7.2-5.3c1-0.9,2.4-0.8,3.3,0.2
							c0.9,1,0.8,2.4-0.2,3.3c-2.4,2.2-5.1,4.1-7.8,5.8c-0.4,0.2-0.8,0.3-1.2,0.3C826.8,702,826,701.6,825.6,700.9z M766.3,694.1
							c-2.3-2.6-4.3-5.3-5.7-8.1c-0.6-1.1-0.2-2.6,1-3.2c1.1-0.6,2.6-0.2,3.2,1c1.3,2.4,3,4.8,5,7.1c0.9,1,0.8,2.4-0.2,3.3
							c-0.4,0.4-1,0.6-1.6,0.6C767.4,694.9,766.8,694.6,766.3,694.1z M1439.5,690c-0.8-2.2-1.6-4.4-2.4-6.6
							c-0.3-0.6-0.6-1.2-0.9-1.8c-0.5-1.2,0-2.6,1.1-3.1c1.2-0.5,2.6,0,3.1,1.1c0.3,0.6,0.6,1.2,0.9,1.8c0,0.1,0.1,0.1,0.1,0.2
							c0.9,2.3,1.7,4.6,2.5,6.9c0.4,1.2-0.2,2.5-1.5,3c-0.2,0.1-0.5,0.1-0.8,0.1C1440.7,691.5,1439.8,690.9,1439.5,690z M840,689.2
							c-1-0.8-1.2-2.3-0.4-3.3c1.9-2.3,3.5-4.8,5-7.4c0.6-1.1,2.1-1.5,3.2-0.9c1.1,0.6,1.5,2.1,0.9,3.2c-1.6,2.8-3.4,5.5-5.4,8
							c-0.5,0.6-1.1,0.9-1.8,0.9C841,689.7,840.4,689.5,840,689.2z M810.3,685.1c0-0.3,0-0.6-0.1-0.8c-0.4-2.6-1-5.1-2-7.6
							c-0.5-1.2,0.1-2.6,1.3-3c1.2-0.5,2.6,0.1,3,1.3c1.1,2.8,1.8,5.6,2.2,8.7c0,0.3,0.1,0.7,0.1,1c0.1,1.3-0.9,2.4-2.2,2.5
							c-0.1,0-0.1,0-0.2,0C811.4,687.2,810.4,686.3,810.3,685.1z M757.5,676.4c-0.1-1-0.2-1.9-0.2-2.9c0-2.5,0.4-5,1.2-7.4
							c0.4-1.2,1.8-1.9,3-1.5c1.2,0.4,1.9,1.7,1.5,3c-0.7,1.9-1,3.9-1,5.9c0,0.8,0,1.5,0.1,2.3c0.2,1.3-0.8,2.4-2,2.6
							c-0.1,0-0.2,0-0.3,0C758.7,678.5,757.6,677.6,757.5,676.4z M1432.4,672.9l-0.2-0.4c-1.1-2.7-2.2-5.4-3.4-8.1
							c-0.5-1.2,0-2.6,1.2-3.1c1.2-0.5,2.6,0,3.1,1.2c1.2,2.7,2.4,5.5,3.5,8.2l0.2,0.4c0.5,1.2-0.1,2.6-1.3,3.1
							c-0.3,0.1-0.6,0.2-0.9,0.2C1433.7,674.3,1432.8,673.8,1432.4,672.9z M849.7,673.4c-1.2-0.4-1.9-1.8-1.4-3
							c1-2.8,1.7-5.7,2.1-8.6c0.2-1.3,1.4-2.2,2.7-2c1.3,0.2,2.2,1.4,2,2.7c-0.5,3.2-1.3,6.4-2.3,9.5c-0.3,1-1.2,1.6-2.2,1.6
							C850.2,673.5,850,673.4,849.7,673.4z M804.2,669c-1.7-2.3-3.6-4.5-5.9-6.5c-1-0.8-1.1-2.3-0.2-3.3c0.8-1,2.3-1.1,3.3-0.2
							c2.5,2.2,4.7,4.6,6.6,7.3c0.7,1.1,0.5,2.5-0.6,3.3c-0.4,0.3-0.9,0.4-1.4,0.4C805.3,670,804.6,669.7,804.2,669z M763.9,660.7
							c-0.9-0.9-0.9-2.4,0.1-3.3c2.5-2.4,5.5-4.1,9-5.1c1.2-0.3,2.5,0.4,2.9,1.6c0.3,1.2-0.4,2.5-1.6,2.9c-2.7,0.8-5.1,2.1-7,3.9
							c-0.5,0.4-1,0.7-1.6,0.7C765,661.4,764.4,661.2,763.9,660.7z M791.1,658.1c-2.8-1-5.7-1.7-8.5-2c-1.3-0.1-2.2-1.3-2.1-2.5
							c0.1-1.3,1.2-2.2,2.5-2.1c3.2,0.3,6.5,1.1,9.7,2.2c1.2,0.5,1.8,1.8,1.4,3c-0.3,0.9-1.2,1.5-2.2,1.5
							C791.7,658.3,791.4,658.2,791.1,658.1z M1424.7,656.3c-0.5-0.8-0.9-1.5-1.5-2.4c-1-1.6-2.1-3.4-3.5-5.3
							c-0.8-1-0.5-2.5,0.5-3.3c1-0.8,2.5-0.5,3.3,0.5c1.5,2,2.7,3.8,3.7,5.5c0.5,0.8,1.1,1.6,1.6,2.5c0.7,1.1,0.3,2.5-0.8,3.2
							c-0.4,0.2-0.8,0.3-1.2,0.3C1425.9,657.5,1425.1,657.1,1424.7,656.3z M851,652.9c-0.1-3-0.3-6-0.9-8.9
							c-0.2-1.3,0.6-2.5,1.9-2.7c1.3-0.2,2.5,0.6,2.7,1.9c0.6,3.2,0.9,6.4,1,9.7c0,1.3-1,2.4-2.3,2.4c0,0,0,0,0,0
							C852,655.1,851,654.1,851,652.9z M1414,641.3c-1.8-2.4-3.8-4.9-5.5-7.7c-0.7-1.1-0.4-2.5,0.7-3.2c1.1-0.7,2.5-0.4,3.2,0.7
							c1.7,2.7,3.5,5.1,5.3,7.4c0.8,1,0.6,2.5-0.4,3.3c-0.4,0.3-0.9,0.5-1.4,0.5C1415.2,642.3,1414.5,641.9,1414,641.3z
							 M847.7,635.4c-1-2.8-2.2-5.5-3.7-8.2c-0.6-1.1-0.2-2.6,0.9-3.2c1.1-0.6,2.6-0.2,3.2,0.9c1.6,2.9,2.9,5.8,4,8.8
							c0.4,1.2-0.2,2.6-1.4,3c-0.3,0.1-0.5,0.1-0.8,0.1C849,636.9,848.1,636.3,847.7,635.4z M1402.8,626.9c-2-2-4.2-4.1-6.7-6.2
							c-1-0.8-1.1-2.3-0.3-3.3c0.8-1,2.3-1.1,3.3-0.3c2.6,2.2,4.9,4.3,7,6.5c0.9,0.9,0.9,2.4,0,3.3c-0.5,0.5-1.1,0.7-1.6,0.7
							C1403.9,627.6,1403.3,627.4,1402.8,626.9z M839.2,619.6c-1.1-1.4-2.2-2.9-3.5-4.3c-0.8-0.9-1.5-1.8-2.3-2.7
							c-0.8-1-0.7-2.5,0.3-3.3c1-0.8,2.5-0.7,3.3,0.3c0.8,0.9,1.6,1.8,2.3,2.7c1.3,1.5,2.6,3,3.7,4.6c0.8,1,0.6,2.5-0.5,3.3
							c-0.4,0.3-0.9,0.5-1.4,0.5C840.4,620.6,839.7,620.2,839.2,619.6z M1388.9,615c-1.9-1.4-3.8-2.8-5.6-4.2l-1.8-1.4
							c-1-0.8-1.3-2.2-0.5-3.3c0.8-1,2.2-1.3,3.3-0.5l1.8,1.4c1.9,1.4,3.8,2.8,5.7,4.2c1,0.8,1.2,2.2,0.5,3.3
							c-0.5,0.6-1.2,0.9-1.9,0.9C1389.8,615.5,1389.3,615.3,1388.9,615z M827.3,605.5c-2-2.3-4.1-4.7-6.1-7c-0.9-1-0.8-2.4,0.2-3.3
							c1-0.9,2.5-0.8,3.3,0.2c2.1,2.3,4.1,4.7,6.2,7c0.8,1,0.7,2.5-0.2,3.3c-0.4,0.4-1,0.6-1.5,0.6
							C828.4,606.3,827.8,606,827.3,605.5z M1373.9,603.8c-2.7-2.2-5.1-4.2-7.2-6.1c-0.9-0.9-1-2.4-0.1-3.3c0.9-1,2.4-1,3.3-0.1
							c2,1.9,4.3,3.8,7,5.9c1,0.8,1.2,2.3,0.4,3.3c-0.5,0.6-1.1,0.9-1.8,0.9C1374.9,604.3,1374.4,604.1,1373.9,603.8z M815,591.5
							l-0.4-0.5c-1.9-2.2-3.9-4.3-5.8-6.5c-0.9-1-0.8-2.4,0.2-3.3c1-0.9,2.4-0.8,3.3,0.2c1.9,2.2,3.8,4.3,5.8,6.5l0.4,0.5
							c0.9,1,0.8,2.4-0.2,3.3c-0.4,0.4-1,0.6-1.5,0.6C816.1,592.3,815.5,592,815,591.5z M1360,590.8c-2.1-2.5-3.9-5.2-5.5-8.1
							c-0.6-1.1-0.2-2.6,0.9-3.2c1.1-0.6,2.6-0.2,3.2,0.9c1.4,2.6,3.1,5.1,5,7.3c0.8,1,0.7,2.5-0.3,3.3c-0.4,0.4-1,0.6-1.5,0.6
							C1361.1,591.6,1360.5,591.3,1360,590.8z M802.6,577.5c-2.1-2.4-4.1-4.7-6.1-7.1c-0.8-1-0.7-2.5,0.3-3.3c1-0.8,2.5-0.7,3.3,0.3
							c2,2.4,4,4.7,6.1,7c0.8,1,0.7,2.5-0.2,3.3c-0.4,0.4-1,0.6-1.5,0.6C803.8,578.3,803.1,578.1,802.6,577.5z M1350.7,573.7
							c-1-3.1-1.7-6.3-2.1-9.5c-0.2-1.3,0.8-2.4,2-2.6c1.3-0.2,2.4,0.8,2.6,2c0.4,2.9,1,5.8,1.9,8.7c0.4,1.2-0.3,2.5-1.5,2.9
							c-0.2,0.1-0.5,0.1-0.7,0.1C1351.9,575.3,1351,574.7,1350.7,573.7z M1393.9,563.8c-1.3-0.2-2.1-1.5-1.9-2.7
							c0.2-1.3,1.5-2.1,2.7-1.9c3.3,0.6,6.1,0.7,8.3,0.2c1.3-0.3,2.5,0.5,2.8,1.8c0.3,1.3-0.5,2.5-1.8,2.8c-1.3,0.3-2.7,0.4-4.2,0.4
							C1398.1,564.5,1396.1,564.2,1393.9,563.8z M790.5,563.3c-2-2.4-4-4.8-5.9-7.3c-0.8-1-0.6-2.5,0.4-3.3c1-0.8,2.5-0.6,3.3,0.4
							c1.9,2.4,3.9,4.8,5.8,7.2c0.8,1,0.7,2.5-0.3,3.3c-0.4,0.4-1,0.5-1.5,0.5C791.6,564.1,791,563.9,790.5,563.3z M1384.6,561.2
							c-3-1.1-6-2.3-8.8-3.4c-1.2-0.5-1.8-1.9-1.3-3.1c0.5-1.2,1.9-1.8,3.1-1.3c2.7,1.1,5.7,2.3,8.6,3.3c1.2,0.4,1.9,1.8,1.4,3
							c-0.3,1-1.2,1.6-2.2,1.6C1385.1,561.4,1384.9,561.3,1384.6,561.2z M1409.8,558.6c-1.1-0.7-1.5-2.1-0.8-3.2
							c1-1.7,1.6-3.9,1.9-6.6c0-0.4,0.1-0.8,0.1-1.3c0.1-1.3,1.1-2.3,2.4-2.2c1.3,0.1,2.3,1.1,2.2,2.4c0,0.5-0.1,1-0.1,1.5
							c-0.4,3.4-1.2,6.2-2.6,8.5c-0.4,0.7-1.2,1.1-2,1.1C1410.6,558.9,1410.2,558.8,1409.8,558.6z M1350.5,556.9
							c-1.3-0.1-2.3-1.2-2.2-2.5c0.2-2.6,0.6-5.1,1.2-7.5c-2.9-1.4-5.7-2.7-8.2-4.1c-1.1-0.6-1.6-2-1-3.2c0.6-1.1,2-1.6,3.2-1
							c2.5,1.3,5.3,2.7,8.2,4.1c0.2,0.1,0.4,0.2,0.5,0.3c0.2,0,0.5,0,0.8,0.1c1.2,0.4,1.9,1.7,1.5,2.9c-0.8,2.7-1.4,5.6-1.6,8.6
							c-0.1,1.2-1.1,2.2-2.3,2.2C1350.6,556.9,1350.5,556.9,1350.5,556.9z M1367.2,554.4c-3.3-1.3-6-2.4-8.7-3.5
							c-1.2-0.5-1.7-1.9-1.2-3.1c0.5-1.2,1.9-1.7,3.1-1.2c2.6,1.1,5.4,2.2,8.6,3.5c1.2,0.5,1.8,1.8,1.3,3c-0.4,0.9-1.2,1.5-2.2,1.5
							C1367.7,554.5,1367.4,554.5,1367.2,554.4z M778.9,548.6c-1.9-2.6-3.8-5.2-5.5-7.6c-0.7-1.1-0.5-2.5,0.6-3.3
							c1.1-0.7,2.5-0.5,3.3,0.6c1.7,2.4,3.5,4.9,5.4,7.5c0.8,1,0.6,2.5-0.5,3.3c-0.4,0.3-0.9,0.5-1.4,0.5
							C780.1,549.5,779.4,549.2,778.9,548.6z M1409.5,539.6c-1.1-2.4-2.8-4.5-5.1-6.4c-1-0.8-1.1-2.3-0.3-3.3c0.8-1,2.3-1.1,3.3-0.3
							c2.8,2.3,5,5,6.4,8.1c0.5,1.2,0,2.6-1.1,3.1c-0.3,0.1-0.7,0.2-1,0.2C1410.8,540.9,1409.9,540.5,1409.5,539.6z M1355,539
							c-1.1-0.7-1.4-2.1-0.7-3.2c1.8-2.8,4-5.4,6.5-7.5c1-0.8,2.5-0.7,3.3,0.3c0.8,1,0.7,2.5-0.3,3.3c-2.2,1.9-4.1,4-5.6,6.5
							c-0.4,0.7-1.2,1.1-2,1.1C1355.8,539.4,1355.4,539.2,1355,539z M1333.1,538.1c-3-1.9-5.6-3.9-7.8-5.7c-1-0.8-1.1-2.3-0.2-3.3
							c0.8-1,2.3-1.1,3.3-0.2c2,1.7,4.4,3.5,7.2,5.3c1.1,0.7,1.4,2.1,0.7,3.2c-0.4,0.7-1.2,1.1-2,1.1
							C1334,538.4,1333.5,538.3,1333.1,538.1z M768.2,533.1c-1.7-2.7-3.4-5.4-4.9-8c-0.6-1.1-0.3-2.5,0.8-3.2
							c1.1-0.6,2.5-0.3,3.2,0.8c1.5,2.6,3.1,5.2,4.8,7.9c0.7,1.1,0.4,2.5-0.7,3.2c-0.4,0.2-0.8,0.4-1.3,0.4
							C769.4,534.2,768.6,533.8,768.2,533.1z M1397,528.9c-2.6-1.1-5.5-1.8-8.5-2.3c-1.3-0.2-2.2-1.4-2-2.7c0.2-1.3,1.4-2.2,2.7-2
							c3.3,0.5,6.5,1.4,9.5,2.6c1.2,0.5,1.8,1.8,1.3,3c-0.4,0.9-1.2,1.5-2.2,1.5C1397.6,529,1397.3,529,1397,528.9z M1368.2,526.3
							c-0.4-1.2,0.3-2.5,1.5-3c3-1,6.3-1.6,9.7-1.8c1.3-0.1,2.4,0.9,2.5,2.2c0.1,1.3-0.9,2.4-2.2,2.5c-3.1,0.2-5.9,0.7-8.5,1.6
							c-0.2,0.1-0.5,0.1-0.7,0.1C1369.5,527.9,1368.6,527.3,1368.2,526.3z M1318.8,524.7l-0.1-0.2c-1.6-2.9-2.8-6-3.5-9.1
							c-0.3-1.3,0.5-2.5,1.8-2.8c1.3-0.3,2.5,0.5,2.8,1.8c0.6,2.7,1.6,5.4,3,7.9l0.1,0.2c0.6,1.1,0.2,2.6-0.9,3.2
							c-0.4,0.2-0.8,0.3-1.1,0.3C1320,525.9,1319.2,525.5,1318.8,524.7z M758.7,516.8c-1.5-2.8-2.9-5.7-4.1-8.5
							c-0.5-1.2,0-2.6,1.2-3.1c1.2-0.5,2.6,0,3.1,1.2c1.3,2.8,2.6,5.5,4,8.3c0.6,1.1,0.1,2.6-1,3.2c-0.3,0.2-0.7,0.3-1.1,0.3
							C760,518.1,759.1,517.6,758.7,516.8z M1316.7,507.9c-1.3-0.1-2.2-1.2-2.1-2.5c0.2-3.2,0.9-6.4,2-9.7c0.4-1.2,1.7-1.9,3-1.5
							c1.2,0.4,1.9,1.7,1.5,3c-1,2.9-1.6,5.8-1.8,8.6c-0.1,1.2-1.1,2.2-2.3,2.2C1316.8,507.9,1316.8,507.9,1316.7,507.9z
							 M750.9,499.6c-0.5-1.2-0.9-2.3-1.4-3.6c-0.6-1.8-1.2-3.6-1.7-5.4c-0.4-1.2,0.3-2.5,1.6-2.9c1.2-0.4,2.5,0.3,2.9,1.6
							c0.6,1.8,1.1,3.6,1.7,5.2c0.4,1.2,0.8,2.3,1.3,3.4c0.5,1.2-0.1,2.6-1.3,3c-0.3,0.1-0.6,0.2-0.9,0.2
							C752.1,501.1,751.3,500.6,750.9,499.6z M1321.4,490c-1.1-0.6-1.5-2.1-0.9-3.2c1.3-2.4,2.9-4.7,4.6-7c0.3-0.4,0.6-0.7,0.9-1
							c0.8-1,2.3-1.1,3.3-0.3c1,0.8,1.1,2.3,0.3,3.3c-0.3,0.3-0.5,0.6-0.7,0.9c-1.6,2.1-3,4.3-4.2,6.5c-0.4,0.8-1.2,1.2-2,1.2
							C1322.2,490.3,1321.8,490.2,1321.4,490z M745.3,481.6c-0.8-3.1-1.5-6.2-2.1-9.2c-0.3-1.3,0.6-2.5,1.8-2.8
							c1.3-0.3,2.5,0.6,2.8,1.8c0.6,2.9,1.3,5.9,2.1,9c0.3,1.2-0.4,2.5-1.7,2.8c-0.2,0.1-0.4,0.1-0.6,0.1
							C746.5,483.3,745.5,482.6,745.3,481.6z M1332.5,475.2c-0.9-1-0.8-2.4,0.2-3.3c2.4-2.1,5-4.1,7.7-5.8c1.1-0.7,2.5-0.4,3.2,0.7
							c0.7,1.1,0.4,2.5-0.7,3.2c-2.5,1.6-4.9,3.4-7.2,5.4c-0.4,0.4-1,0.6-1.5,0.6C1333.6,475.9,1333,475.7,1332.5,475.2z
							 M1347.8,464.6c-0.5-1.2,0-2.6,1.2-3.1c2.8-1.3,5.8-2.4,9-3.4c1.2-0.4,2.5,0.3,2.9,1.5c0.4,1.2-0.3,2.5-1.5,2.9
							c-3,1-5.8,2-8.4,3.2c-0.3,0.1-0.6,0.2-1,0.2C1349,465.9,1348.2,465.4,1347.8,464.6z M741.5,463.1c-0.5-3.2-0.8-6.4-1-9.4
							c-0.1-1.3,0.9-2.4,2.2-2.5c1.3-0.1,2.4,0.9,2.5,2.2c0.2,2.9,0.5,6,1,9.1c0.2,1.3-0.7,2.5-2,2.6c-0.1,0-0.2,0-0.3,0
							C742.7,465.1,741.7,464.2,741.5,463.1z M1365.3,458.4c-0.3-1.3,0.5-2.5,1.8-2.8c2.4-0.6,5.1-1.1,7.8-1.5
							c0.5-0.1,0.9-0.2,1.4-0.3c1.3-0.3,2.5,0.5,2.8,1.8c0.3,1.3-0.5,2.5-1.8,2.8c-0.5,0.1-1.1,0.2-1.6,0.3
							c-2.6,0.4-5.2,0.9-7.5,1.5c-0.2,0-0.3,0.1-0.5,0.1C1366.6,460.2,1365.6,459.4,1365.3,458.4z M1383.4,453.9
							c-0.6-1.1-0.2-2.6,0.9-3.2c2.5-1.3,4.9-3,7.2-5c1-0.8,2.5-0.7,3.3,0.2c0.8,1,0.7,2.5-0.2,3.3c-2.6,2.2-5.3,4.1-8,5.6
							c-0.4,0.2-0.7,0.3-1.1,0.3C1384.6,455.1,1383.8,454.7,1383.4,453.9z M742.6,446.5c-1.3,0-2.3-1.1-2.3-2.4
							c0.1-3.3,0.3-6.5,0.7-9.6c0.2-1.3,1.3-2.2,2.6-2c1.3,0.2,2.2,1.4,2,2.6c-0.4,2.8-0.6,5.9-0.7,9
							C745,445.5,743.9,446.5,742.6,446.5C742.6,446.5,742.6,446.5,742.6,446.5z M1398.1,442.6c-1-0.8-1.2-2.3-0.3-3.3
							c1.9-2.3,3.6-4.8,5.1-7.4c0.7-1.1,2.1-1.5,3.2-0.8c1.1,0.7,1.5,2.1,0.8,3.2c-1.6,2.8-3.5,5.5-5.5,8c-0.5,0.6-1.1,0.9-1.8,0.9
							C1399,443.1,1398.5,442.9,1398.1,442.6z M744.6,428c-1.2-0.4-2-1.6-1.6-2.9c0.9-3.2,2.1-6.3,3.5-9.1c0.6-1.2,2-1.6,3.1-1.1
							c1.2,0.6,1.6,2,1.1,3.1c-1.3,2.6-2.3,5.3-3.2,8.3c-0.3,1-1.2,1.7-2.2,1.7C745,428.1,744.8,428,744.6,428z M1407.7,426.7
							c-1.3-0.1-2.2-1.3-2.1-2.6c0.1-0.7,0.1-1.5,0.1-2.3c0-1.9-0.3-4-0.8-6.2c-0.3-1.3,0.5-2.5,1.7-2.8c1.3-0.3,2.5,0.5,2.8,1.7
							c0.6,2.5,0.9,5,0.9,7.3c0,0.9,0,1.9-0.1,2.8c-0.1,1.2-1.1,2.1-2.3,2.1C1407.8,426.7,1407.8,426.7,1407.7,426.7z M752.1,411
							c-1-0.8-1.2-2.3-0.4-3.3c2-2.6,4.4-4.9,6.9-6.9c1-0.8,2.5-0.6,3.3,0.4c0.8,1,0.6,2.5-0.4,3.3c-2.3,1.8-4.4,3.9-6.2,6.2
							c-0.5,0.6-1.1,0.9-1.8,0.9C753,411.5,752.5,411.4,752.1,411z M1402,407.3c-1.2-2.5-2.6-5.2-4.3-7.9c-0.7-1.1-0.3-2.5,0.8-3.2
							c1.1-0.7,2.5-0.3,3.2,0.8c1.8,2.9,3.3,5.7,4.6,8.5c0.5,1.2,0,2.6-1.2,3.1c-0.3,0.1-0.6,0.2-1,0.2
							C1403.3,408.7,1402.4,408.2,1402,407.3z M765.8,398.7c-0.6-1.2-0.1-2.6,1-3.1c0.3-0.2,0.7-0.3,0.9-0.5c2.4-1.3,5-2.4,7.8-3.5
							c1.2-0.5,2.6,0.1,3,1.4c0.5,1.2-0.1,2.6-1.4,3c-2.6,1-5,2.1-7.3,3.3c-0.3,0.2-0.6,0.3-0.9,0.5c-0.3,0.2-0.7,0.3-1.1,0.3
							C767.1,399.9,766.3,399.5,765.8,398.7z M783,391.5c-0.3-1.2,0.4-2.5,1.6-2.9c2.7-0.7,5.7-1.4,9.2-2.2c1.3-0.3,2.5,0.5,2.8,1.8
							c0.3,1.3-0.6,2.5-1.8,2.8c-3.4,0.7-6.3,1.4-8.9,2.1c-0.2,0.1-0.4,0.1-0.6,0.1C784.2,393.2,783.3,392.6,783,391.5z
							 M1392.6,391.9c-1.8-2.4-3.7-4.7-5.8-7.1c-0.9-1-0.8-2.4,0.2-3.3c1-0.9,2.4-0.8,3.3,0.2c2.1,2.4,4.2,4.9,6,7.4
							c0.8,1,0.6,2.5-0.5,3.3c-0.4,0.3-0.9,0.5-1.4,0.5C1393.7,392.8,1393,392.5,1392.6,391.9z M803.5,387l-0.3-2.3
							c3-0.6,6-1.1,9-1.7c1.3-0.3,2.5,0.6,2.8,1.8c0.3,1.3-0.6,2.5-1.8,2.8c-3,0.6-6.1,1.2-9.1,1.8L803.5,387l0.4,2.3L803.5,387z
							 M819.5,383.7c-0.3-1.2,0.4-2.5,1.6-2.9l1.2-0.3c2.4-0.7,4.9-1.5,7.3-2.5c1.2-0.5,2.6,0.1,3,1.3c0.5,1.2-0.1,2.6-1.3,3
							c-2.6,1.1-5.3,2-7.8,2.7c-0.4,0.1-0.8,0.2-1.3,0.4c-0.2,0.1-0.4,0.1-0.6,0.1C820.7,385.5,819.8,384.8,819.5,383.7z
							 M1380.5,378.1c-1.7-1.6-3.3-3.1-4.8-4.4c-0.7-0.6-1.3-1.1-2-1.7c-1-0.8-1.1-2.3-0.3-3.3c0.8-1,2.3-1.1,3.3-0.3
							c0.7,0.6,1.4,1.1,2,1.7c1.6,1.4,3.3,2.9,5,4.6c0.9,0.9,0.9,2.4,0,3.3c-0.5,0.5-1.1,0.7-1.7,0.7
							C1381.5,378.8,1380.9,378.6,1380.5,378.1z M836.9,377.3c-0.6-1.1-0.2-2.6,1-3.2c2.6-1.4,5.2-3,7.8-4.7
							c1.1-0.7,2.5-0.4,3.2,0.7c0.7,1.1,0.4,2.5-0.7,3.2c-2.7,1.8-5.5,3.4-8.2,4.9c-0.3,0.2-0.7,0.3-1.1,0.3
							C838.2,378.5,837.4,378.1,836.9,377.3z M852.7,367.4c-0.8-1-0.6-2.5,0.4-3.3c2.4-1.9,4.7-3.9,7-5.9c1-0.9,2.4-0.8,3.3,0.1
							c0.9,1,0.8,2.4-0.1,3.3c-2.3,2.1-4.8,4.2-7.2,6.1c-0.4,0.3-0.9,0.5-1.4,0.5C853.9,368.3,853.2,368,852.7,367.4z M1366.5,366.1
							c-2.4-1.9-4.8-3.8-7.3-5.7c-1-0.8-1.2-2.3-0.4-3.3c0.8-1,2.3-1.2,3.3-0.4c2.5,1.9,5,3.9,7.4,5.8c1,0.8,1.2,2.3,0.4,3.3
							c-0.5,0.6-1.1,0.9-1.8,0.9C1367.5,366.6,1367,366.4,1366.5,366.1z M866.7,355.1c-1-0.8-1.1-2.3-0.3-3.3c2-2.3,3.4-4.8,4.4-7.3
							c0.5-1.2,1.8-1.8,3-1.4c1.2,0.5,1.8,1.8,1.4,3c-1.1,3-2.9,5.9-5.2,8.6c-0.5,0.6-1.1,0.8-1.8,0.8
							C867.7,355.6,867.2,355.4,866.7,355.1z M1351.8,354.8c-2.5-1.8-5-3.6-7.5-5.4c-1.1-0.7-1.3-2.2-0.6-3.3
							c0.7-1.1,2.2-1.3,3.3-0.6c2.6,1.8,5.1,3.6,7.6,5.5c1,0.8,1.3,2.2,0.5,3.3c-0.5,0.6-1.2,1-1.9,1
							C1352.7,355.3,1352.2,355.1,1351.8,354.8z M1336.6,344.2c-2.6-1.7-5.2-3.4-7.8-5.1c-1.1-0.7-1.4-2.1-0.7-3.2
							c0.7-1.1,2.1-1.4,3.2-0.7c2.6,1.7,5.2,3.4,7.8,5.1c1.1,0.7,1.4,2.2,0.6,3.2c-0.5,0.7-1.2,1-1.9,1
							C1337.5,344.6,1337,344.4,1336.6,344.2z M872.1,336.3c-0.1-2.7-0.8-5.4-2-8.2c-0.5-1.2,0.1-2.6,1.2-3.1
							c1.2-0.5,2.6,0.1,3.1,1.2c1.4,3.3,2.2,6.6,2.3,9.8c0.1,1.3-0.9,2.4-2.2,2.4c0,0-0.1,0-0.1,0
							C873.2,338.5,872.2,337.6,872.1,336.3z M1321,334.1c-2.6-1.6-5.3-3.2-8-4.8c-1.1-0.7-1.5-2.1-0.8-3.2c0.7-1.1,2.1-1.5,3.2-0.8
							c2.7,1.6,5.4,3.2,8,4.8c1.1,0.7,1.4,2.1,0.8,3.2c-0.4,0.7-1.2,1.1-2,1.1C1321.8,334.5,1321.4,334.4,1321,334.1z M1305,324.8
							c-1.4-0.8-2.7-1.5-4.1-2.3l-4-2.2c-1.1-0.6-1.5-2-0.9-3.2c0.6-1.1,2-1.5,3.2-0.9l4,2.2c1.4,0.8,2.8,1.5,4.1,2.3
							c1.1,0.6,1.5,2.1,0.9,3.2c-0.4,0.8-1.2,1.2-2,1.2C1305.8,325.1,1305.4,325,1305,324.8z M846.5,322.7c-0.1-1.3,0.9-2.4,2.2-2.5
							c3.1-0.2,6.1-0.7,8.7-1.4c1.2-0.4,2.5,0.4,2.9,1.6c0.4,1.2-0.4,2.5-1.6,2.9c-2.9,0.8-6.2,1.4-9.7,1.6c0,0-0.1,0-0.1,0
							C847.6,324.9,846.6,324,846.5,322.7z M839.3,324.8c-1.4-0.1-2.8-0.3-4.2-0.5c-1.8-0.3-3.5-0.6-5.3-1c-1.3-0.3-2.1-1.5-1.8-2.8
							c0.3-1.3,1.5-2.1,2.8-1.8c1.7,0.4,3.3,0.7,5,1c1.3,0.2,2.6,0.4,3.9,0.5c1.3,0.1,2.2,1.3,2.1,2.5c-0.1,1.2-1.1,2.1-2.3,2.1
							C839.4,324.8,839.4,324.8,839.3,324.8z M865.8,320.6c-1.7-2.2-3.7-4.5-6-6.6c-0.9-0.9-1-2.4-0.1-3.3c0.9-0.9,2.4-1,3.3-0.1
							c1.2,1.2,2.4,2.4,3.5,3.6c1.6-1.4,2.9-3.1,3.8-5c0.6-1.2,2-1.7,3.1-1.1c1.2,0.6,1.7,2,1.1,3.1c-1.2,2.5-2.9,4.7-5,6.6
							c0,0,0,0,0,0c0.8,1,0.6,2.5-0.5,3.3c-0.4,0.3-0.9,0.5-1.4,0.5C866.9,321.5,866.2,321.2,865.8,320.6z M820.5,320.6
							c-3.4-1.2-6.4-2.6-8.9-4.2c-1.1-0.7-1.4-2.1-0.7-3.2c0.7-1.1,2.1-1.4,3.2-0.7c2.2,1.4,4.9,2.7,8,3.8c1.2,0.4,1.8,1.8,1.4,3
							c-0.3,1-1.2,1.5-2.2,1.5C821.1,320.7,820.8,320.7,820.5,320.6z M1288.7,315.8l-8.2-4.5c-1.1-0.6-1.5-2-0.9-3.2
							c0.6-1.1,2.1-1.5,3.2-0.9l8.2,4.5c1.1,0.6,1.5,2,0.9,3.2c-0.4,0.8-1.2,1.2-2,1.2C1289.5,316,1289.1,315.9,1288.7,315.8z
							 M804.2,309.3c-1.6-2.5-2.4-5.3-2.4-8.2c0-0.2,0-0.3,0-0.5c0-0.6,0.1-1.3,0.2-1.9c0.2-1.3,1.4-2.1,2.7-1.9
							c1.3,0.2,2.1,1.4,1.9,2.7c-0.1,0.4-0.1,0.8-0.1,1.3l0,0.3c0,2,0.5,3.9,1.7,5.7c0.7,1.1,0.4,2.5-0.7,3.2
							c-0.4,0.2-0.8,0.4-1.2,0.4C805.4,310.4,804.7,310,804.2,309.3z M852.8,308.2c-2.4-1.7-5-3.4-7.7-4.8c-1.1-0.6-1.5-2-0.9-3.2
							c0.6-1.1,2-1.5,3.2-0.9c2.8,1.5,5.5,3.3,8.1,5.1c1.1,0.8,1.3,2.2,0.5,3.3c-0.5,0.6-1.2,1-1.9,1
							C853.7,308.7,853.2,308.5,852.8,308.2z M1272.4,306.7c-2.7-1.5-5.4-3-8.2-4.5c-1.1-0.6-1.5-2-0.9-3.2c0.6-1.1,2-1.5,3.2-0.9
							c2.7,1.5,5.4,3,8.2,4.5c1.1,0.6,1.5,2,0.9,3.2c-0.4,0.8-1.2,1.2-2,1.2C1273.2,307,1272.8,306.9,1272.4,306.7z M874.3,303.4
							c-1.3-0.1-2.2-1.2-2.1-2.5c0.1-1,0.1-2.1,0.1-3.2c0-2-0.1-4-0.3-5.8c-0.1-1.3,0.9-2.4,2.2-2.5c1.3-0.1,2.4,0.9,2.5,2.2
							c0.1,1.9,0.3,4,0.3,6.1c0,1.2,0,2.4-0.1,3.5c-0.1,1.2-1.1,2.2-2.3,2.2C874.5,303.4,874.4,303.4,874.3,303.4z M837,299.6
							c-2.9-1.2-5.8-2-8.5-2.6c-1.3-0.3-2.1-1.5-1.8-2.8c0.3-1.3,1.5-2.1,2.8-1.8c3,0.6,6.1,1.6,9.3,2.9c1.2,0.5,1.8,1.8,1.3,3
							c-0.4,0.9-1.2,1.5-2.2,1.5C837.6,299.7,837.3,299.7,837,299.6z M1256.1,297.7c-2.7-1.5-5.5-3-8.2-4.4c-1.1-0.6-1.6-2-0.9-3.2
							c0.6-1.1,2-1.6,3.2-0.9c2.7,1.5,5.5,3,8.2,4.5c1.1,0.6,1.5,2,0.9,3.2c-0.4,0.8-1.2,1.2-2.1,1.2
							C1256.8,298,1256.4,297.9,1256.1,297.7z M819.4,295.6c-1.6-0.2-3.8-0.5-5.7-0.5c-1.1,0-2,0.1-2.9,0.2
							c-1.3,0.2-2.5-0.6-2.7-1.9c-0.2-1.3,0.6-2.5,1.9-2.7c1.1-0.2,2.3-0.3,3.7-0.3c2.2,0,4.5,0.3,6.3,0.5c1.3,0.2,2.2,1.3,2,2.6
							c-0.2,1.2-1.2,2-2.3,2C819.6,295.6,819.5,295.6,819.4,295.6z M1239.7,288.9c-2.7-1.5-5.5-2.9-8.2-4.3c-1.1-0.6-1.6-2-1-3.2
							c0.6-1.1,2-1.6,3.2-1c2.8,1.4,5.5,2.9,8.3,4.4c1.1,0.6,1.6,2,1,3.2c-0.4,0.8-1.2,1.2-2.1,1.2
							C1240.4,289.2,1240,289.1,1239.7,288.9z M873.8,284.8c-1.3,0-2.3-1.1-2.3-2.4c0.1-3.6,0.6-6.8,1.7-9.9c0.4-1.2,1.7-1.9,3-1.5
							c1.2,0.4,1.9,1.8,1.4,3c-0.9,2.6-1.3,5.3-1.4,8.4C876.2,283.8,875.2,284.8,873.8,284.8C873.9,284.8,873.9,284.8,873.8,284.8z
							 M1223.2,280.3l-3.3-1.7c-1.7-0.8-3.3-1.7-5-2.5c-1.2-0.6-1.6-2-1.1-3.1c0.6-1.2,2-1.6,3.1-1.1c1.7,0.8,3.4,1.7,5.1,2.5
							l3.3,1.7c1.1,0.6,1.6,2,1,3.1c-0.4,0.8-1.2,1.3-2.1,1.3C1223.9,280.5,1223.5,280.5,1223.2,280.3z M1206.5,272.1
							c-2.8-1.3-5.6-2.6-8.4-3.8c-1.2-0.5-1.7-1.9-1.2-3.1c0.5-1.2,1.9-1.7,3.1-1.2c2.9,1.3,5.7,2.6,8.5,3.9
							c1.2,0.5,1.7,1.9,1.1,3.1c-0.4,0.9-1.2,1.4-2.1,1.4C1207.2,272.3,1206.9,272.3,1206.5,272.1z M878.4,267
							c-1.1-0.7-1.4-2.2-0.6-3.2c1.8-2.7,3.8-5.2,6.1-7.6c0.9-0.9,2.4-1,3.3-0.1c0.9,0.9,1,2.4,0.1,3.3c-2.1,2.2-3.9,4.5-5.6,7
							c-0.5,0.7-1.2,1-1.9,1C879.3,267.4,878.8,267.3,878.4,267z M1189.6,264.6c-2.9-1.2-5.7-2.4-8.6-3.5c-1.2-0.5-1.8-1.8-1.3-3
							c0.5-1.2,1.8-1.8,3-1.3c2.9,1.1,5.8,2.3,8.7,3.5c1.2,0.5,1.8,1.9,1.3,3.1c-0.4,0.9-1.2,1.4-2.2,1.4
							C1190.2,264.8,1189.9,264.8,1189.6,264.6z M1172.3,257.8c-2.9-1.1-5.8-2.1-8.7-3.1c-1.2-0.4-1.9-1.8-1.4-3
							c0.4-1.2,1.8-1.9,3-1.4c3,1,5.9,2.1,8.8,3.2c1.2,0.4,1.8,1.8,1.4,3c-0.3,0.9-1.2,1.5-2.2,1.5
							C1172.8,258,1172.6,257.9,1172.3,257.8z M890.6,253c-0.8-1-0.6-2.5,0.4-3.3c2.5-1.9,5.1-3.7,8-5.4c1.1-0.7,2.5-0.3,3.2,0.8
							c0.7,1.1,0.3,2.5-0.8,3.2c-2.7,1.6-5.2,3.3-7.5,5c-0.4,0.3-0.9,0.5-1.4,0.5C891.7,253.9,891.1,253.6,890.6,253z M1154.8,251.8
							c-2.9-1-5.9-1.9-8.9-2.8c-1.2-0.4-1.9-1.7-1.6-2.9c0.4-1.2,1.7-1.9,2.9-1.6c3,0.9,6,1.8,8.9,2.8c1.2,0.4,1.9,1.7,1.5,2.9
							c-0.3,1-1.2,1.6-2.2,1.6C1155.3,251.9,1155,251.8,1154.8,251.8z M1137,246.4c-3-0.8-6-1.6-9-2.4c-1.3-0.3-2-1.6-1.7-2.8
							c0.3-1.3,1.6-2,2.8-1.7c3,0.8,6,1.6,9,2.4c1.2,0.3,2,1.6,1.6,2.9c-0.3,1-1.2,1.7-2.2,1.7
							C1137.5,246.5,1137.2,246.4,1137,246.4z M906.3,243.1c-0.5-1.2,0-2.6,1.2-3.1c2.8-1.3,5.7-2.4,8.8-3.5c1.2-0.4,2.6,0.2,3,1.4
							c0.4,1.2-0.2,2.6-1.4,3c-3,1-5.8,2.2-8.5,3.4c-0.3,0.1-0.6,0.2-1,0.2C907.5,244.5,906.7,244,906.3,243.1z M1119.1,241.8
							c-3-0.7-6-1.4-9-2c-1.3-0.3-2.1-1.5-1.8-2.8c0.3-1.3,1.5-2.1,2.8-1.8c3.1,0.7,6.1,1.3,9.1,2.1c1.3,0.3,2,1.6,1.7,2.8
							c-0.3,1.1-1.2,1.8-2.3,1.8C1119.4,241.8,1119.3,241.8,1119.1,241.8z M923.7,236.5c-0.3-1.2,0.4-2.5,1.6-2.9
							c2.9-0.8,6-1.6,9.2-2.3c1.3-0.3,2.5,0.5,2.8,1.8c0.3,1.3-0.5,2.5-1.8,2.8c-3.1,0.7-6.1,1.4-8.9,2.2c-0.2,0.1-0.4,0.1-0.6,0.1
							C925,238.2,924,237.6,923.7,236.5z M1100.9,237.9c-3-0.6-6.1-1.1-9.1-1.7c-1.3-0.2-2.1-1.4-1.9-2.7c0.2-1.3,1.4-2.1,2.7-1.9
							c3.1,0.5,6.2,1.1,9.2,1.7c1.3,0.2,2.1,1.5,1.9,2.7c-0.2,1.1-1.2,1.9-2.3,1.9C1101.2,237.9,1101.1,237.9,1100.9,237.9z
							 M1082.7,234.8c-2.8-0.3-5.8-0.6-9.2-0.9c-1.3-0.1-2.2-1.2-2.1-2.5c0.1-1.3,1.2-2.3,2.5-2.1c3.4,0.3,6.5,0.6,9.4,0.9
							c1.3,0.2,2.2,1.3,2,2.6c-0.1,1.2-1.2,2.1-2.3,2.1C1082.9,234.8,1082.8,234.8,1082.7,234.8z M941.9,232.2
							c-0.2-1.3,0.6-2.5,1.9-2.7c2.8-0.5,5.9-1,9.3-1.6c1.3-0.2,2.5,0.7,2.7,1.9c0.2,1.3-0.7,2.5-1.9,2.7c-3.3,0.5-6.3,1-9.1,1.6
							c-0.1,0-0.3,0-0.4,0C943.1,234.1,942.1,233.3,941.9,232.2z M1064.3,233.3c-2-0.1-4-0.2-5.9-0.3l-3.4-0.2
							c-1.3-0.1-2.3-1.2-2.2-2.5c0.1-1.3,1.1-2.3,2.5-2.2l3.4,0.2c2,0.1,4,0.2,5.9,0.3c1.3,0.1,2.3,1.2,2.2,2.5
							c-0.1,1.2-1.1,2.2-2.3,2.2C1064.4,233.3,1064.3,233.3,1064.3,233.3z M1045.6,232.2c-3.4-0.3-6.5-0.5-9.4-0.8
							c-1.3-0.1-2.2-1.3-2.1-2.6c0.1-1.3,1.3-2.2,2.6-2.1c2.8,0.3,5.8,0.6,9.2,0.8c1.3,0.1,2.3,1.2,2.2,2.5
							c-0.1,1.2-1.1,2.2-2.3,2.2C1045.7,232.2,1045.7,232.2,1045.6,232.2z M960.3,229.2c-0.2-1.3,0.7-2.5,2-2.7l0.8-0.1
							c2.7-0.4,5.3-0.8,7.8-1.2l0.6-0.1c1.3-0.2,2.5,0.7,2.7,2c0.2,1.3-0.7,2.5-2,2.7l-0.6,0.1c-2.5,0.4-5.2,0.8-7.9,1.2l-0.8,0.1
							c-0.1,0-0.2,0-0.3,0C961.4,231.2,960.4,230.3,960.3,229.2z M1026.9,230.1c-2-0.3-4-0.7-6-1.1c-1.1-0.2-2.2-0.5-3.2-0.6
							c-1.3-0.2-2.1-1.4-1.9-2.7c0.2-1.3,1.5-2.1,2.7-1.9c1.1,0.2,2.2,0.4,3.4,0.7c1.8,0.4,3.8,0.8,5.7,1.1c1.3,0.2,2.1,1.4,1.9,2.7
							c-0.2,1.1-1.2,2-2.3,2C1027.2,230.1,1027,230.1,1026.9,230.1z M978.7,226.4c-0.2-1.3,0.7-2.5,2-2.6c3.6-0.5,6.5-0.8,9.4-1.1
							c1.3-0.1,2.4,0.8,2.5,2.1c0.1,1.3-0.8,2.4-2.1,2.5c-2.8,0.3-5.7,0.6-9.1,1.1c-0.1,0-0.2,0-0.3,0
							C979.9,228.4,978.9,227.6,978.7,226.4z M1008.7,227.1c-2.5-0.2-4.9-0.3-7.5-0.3c-0.5,0-1.1,0-1.6,0c-1.3,0-2.4-1-2.4-2.3
							c0-1.3,1-2.4,2.3-2.4c0.5,0,1.1,0,1.7,0c2.7,0,5.3,0.1,7.9,0.3c1.3,0.1,2.2,1.2,2.1,2.5c-0.1,1.2-1.1,2.1-2.3,2.1
							C1008.8,227.1,1008.8,227.1,1008.7,227.1z"/>
						</g>
						<g>
							<path class="st15" d="M1134.1,708.8c0.4,0,0.8-0.1,1.2-0.3c1.1-0.7,1.5-2.1,0.8-3.2c-0.8-1.3-1.6-2.7-2.3-4
							c-0.6-1.1-2.1-1.5-3.2-0.9c-1.1,0.6-1.5,2.1-0.9,3.2c0.8,1.4,1.6,2.7,2.4,4.1C1132.6,708.4,1133.3,708.8,1134.1,708.8z"/>
						</g>
					</g>
					<g>
						<polygon class="st15" points="1119.7,695.4 1144.3,674.2 1178.5,667.6 1079.4,605.3 1091.2,676.2 1104.5,677.1 					"/>
						<g class="st18">
							<polygon class="st19" points="1124.7,674.4 1079.4,605.3 1144.3,674.2 1119.4,695.4 						"/>
						</g>
						<g class="st18">
							<path class="st19" d="M1125.1,676c-5.6,0.1-18.1,0.4-20.6,1.1l15.3,18.2L1125.1,676z"/>
						</g>
						<g class="st18">
							<path class="st19" d="M1125.1,676c-5.6,0.1-18.1,0.4-20.6,1.1l15.3,18.2L1125.1,676z"/>
						</g>
					</g>
				</g>
			</g>
			<g>
				<polygon class="st20" points="1254.2,664.2 1267,674 1277.7,663.9 1272.8,663.6 1271.4,650.6 1260.3,650.6 1257.9,663.3 			"/>
				<path class="st21" d="M1219.8,679.6c0,0,6.2-20.7,10.9-18.8c4.8,1.8,8,7.8,3,11.5c-5,3.7-10.3,8.7-10.3,8.7L1219.8,679.6z"/>
				<path class="st22" d="M1252.4,668.6c0,0-7.1-0.6-12.3,11.3c-5.2,11.9-12.8,33.3-14.2,30.3s1.2-30.3,1.2-30.3l-9-3
				c0,0-17.9,59.1-0.3,61.2C1240.1,740.9,1278.8,702,1252.4,668.6z"/>
				<path class="st23" d="M1217.1,942.2c0,9.8,27.3,17.8,61,17.8c33.7,0,61-8,61-17.8c0-9.8-27.3-17.8-61-17.8
				C1244.4,924.4,1217.1,932.4,1217.1,942.2z"/>
				<g>
					<path class="st12" d="M1245.2,933c0,0-8.5,2.2-12,6.2s-3.8,6.2-3.8,6.2l30-1.8V933H1245.2z"/>
					<path class="st24" d="M1247.8,756.3c0,0-11,51.3-10.3,89.3c0.7,38,7.8,87.3,7.8,87.3h14.2c0,0-3.7-61,3-88.3
					c6.7-27.3,16.7-88.3,16.7-88.3H1247.8z"/>
				</g>
				<g>
					<path class="st12" d="M1319.9,933c0,0,2,3.7,0,4.9s-22.8,13.8-10.2,12.5c10.5-1.1,25-5,25-5l-4.8-15L1319.9,933z"/>
					<path class="st25" d="M1261.8,749.3c0,0-9,45,8.3,86.3c17.3,41.3,49.3,99.3,49.3,99.3l12-2.3c0,0-29.3-83.3-33.7-102
					c-4.3-18.7,2.2-73.3,2.2-73.3L1261.8,749.3z"/>
				</g>
				<path class="st26" d="M1277.1,663.6c0,0-5.3,6.6-12.7,4.9c-7.4-1.7-8.3-4.9-8.3-4.9s-7.7,0.7-10.3,15.3
				c-2.7,14.7-3.9,90.3-3.9,90.3l62.8-2.3C1304.7,767,1306.1,669,1277.1,663.6z"/>
				<g>
					<polygon class="st10" points="1224.4,703.5 1243.9,683 1237.4,677.9 1217,695.3 				"/>
					<path class="st27" d="M1209.6,672.5c0,0-6.8,5-2.4-2.9c3-5.4,18.4-27.7,18.7-20.9c0.4,6.8-12.5,23-15.6,23.6"/>
					<path class="st28" d="M1209.6,661.1c0,4.1,3.3,7.4,7.4,7.4c4.1,0,7.4-3.3,7.4-7.4c0-4.1-3.3-7.4-7.4-7.4
					C1212.9,653.8,1209.6,657.1,1209.6,661.1z"/>
					<path class="st10" d="M1246.6,684c0,0-10-11.8-14.3-20.9c-2.7-5.6-6.8-15.3-6.8-15.3s-6.4,16.7-19,26c0,0,24.3,8.7,33.6,17.5
					L1246.6,684z"/>
				</g>
				<path class="st21" d="M1240.1,706.3c0,0-4-18.9-9.4-17.3c-10.9,3.2,4.7,21.3,4.7,21.3L1240.1,706.3z"/>
				<path class="st16" d="M1277.1,671c6.2-6.5,23.2,7.3,27,33.7c3.2,22.6-6.4,39.5-42.7,28c-22-7-30.8-20.5-30.8-20.5l9.4-10.2
				c0,0,23,17,32.7,12.7C1282.4,710.3,1265.3,683.3,1277.1,671z"/>
				<g>
					<path class="st21" d="M1279.3,618.4c-10.2-4.7-22.4,3.2-24.4,13.7c-2,10.5-12.3,20.6,5.2,26.7
					C1277.5,664.9,1295,625.6,1279.3,618.4z"/>
					<path class="st29" d="M1260.5,608.6c0,0-7,15.7,0.5,19.6c7.4,3.9,18.7,6.6,16.6,10c-3.4,5.3-3.8,7.2-3.8,7.2l1.1,1l5.4-2.7
					l-5,9.9c0,0,27.2-11.8,10.1-34.2C1277.1,608.6,1260.9,618,1260.5,608.6z"/>
				</g>
			</g>
			<g>
				<path class="st23" d="M834.5,792.5c0,10.8,27.3,19.6,61,19.6c33.7,0,61-8.8,61-19.6c0-10.8-27.3-19.6-61-19.6
				C861.9,772.9,834.5,781.6,834.5,792.5z"/>
				<g>
					<path class="st30" d="M892.4,457.2c0,0,7.1,5.1,8.6,18.1c1.5,13.1-3.9,17.6-6,17.3c-2.1-0.3-2.1-0.3-2.1-0.3l0.6,11l-12.2-0.6
					C881.4,502.7,878.7,465.2,892.4,457.2z"/>
					<path class="st30" d="M929.3,655.3c0,0-3.3,43.1-4.8,55.9C923.1,724.1,912,788,912,788s26.5,9.8,21.1,12.2
					c-5.4,2.4-27.4,3.6-30.1-0.9c-2.7-4.5-1.5-39.6-2.7-58.9c-1.2-19.3,4.8-37.8,4.8-37.8l-4.8-31.8L929.3,655.3z"/>
					<path class="st30" d="M890,668.7c0,0,0.9,27.1,0.9,32.4c0,5.4-8.3,52.4-11.3,63.4c-3,11-7.4,19.9,2.7,23.8
					c10.1,3.9,20.2,10.1,11.3,11c-8.9,0.9-25.3,1.5-27.7-5.4c-2.4-6.8,0.3-53.9,0.3-73.2c0-19.3,3.6-23.5,3.6-23.5L856.4,661
					L890,668.7z"/>
					<path class="st31" d="M885.6,499.4c0,0,38.7-1.2,39.3,14.3c0.6,15.5-5.4,40.5-6.8,53c-1.5,12.5,1.5,26.5,6.8,44
					c5.4,17.6,16.4,47.9,13.1,51.8c-3.3,3.9-19.6,12.5-41.4,12.5c-21.7,0-50.9-14-50.9-14s-0.6-31.8,8-51.2
					c8.6-19.3,17-25.3,15.5-34.2c-1.5-8.9-7.1-25-13.1-36.9c-5.9-11.9-6.8-27.4,2.1-33.6C867.1,498.8,885.6,499.4,885.6,499.4z"/>
					<path class="st30" d="M943,523.8l0.6-4.8c0,0,1.2-7.7,2.4-10.7c1.2-3,3-6.8,3.3-3.9c0.3,3,2.4,4.2,3.3,2.4c0.9-1.8,6.5-11,6-5.4
					c-0.6,5.7-1.2,10.4-4.8,16.7c-3.6,6.2-6.8,8.9-6.8,8.9L943,523.8z"/>
					<path class="st29" d="M877.5,449.4c8.5-1.6,22.9,5.4,19.9,17.3c-3,11.9-15.8,16.7-11.9,25.6c3.9,8.9,20.8,26.8,16.1,41.1
					c-4.8,14.3-11,25.6-26.2,18.7c-15.2-6.8-22.9-19-21.7-31.8c1.2-12.8,8.9-19.3,6.2-29.8C857.3,480.1,851.9,454.2,877.5,449.4z"/>
					<path class="st32" d="M918.9,514c2.8-3.5,12.8,15.8,12.8,15.8l12.5-9.8l3.6,5.4c0,0-8.9,16.4-17.6,17
					C921.6,542.9,906.7,528.9,918.9,514z"/>
					<g>
						<polygon class="st16" points="993,486.9 956.5,465.5 945.5,499.4 980,522 					"/>
						<polygon class="st17" points="915.6,507.5 945.5,499.4 980,522 945.5,534 					"/>
						<polygon class="st16" points="947.8,519 938.2,511.7 929.5,514.6 938.5,521.8 					"/>
						<polygon class="st33" points="980,524.7 980,522 945.5,534 945.5,536.1 					"/>
						<polygon class="st34" points="915.6,510 915.6,507.5 945.5,534 945.5,536.1 					"/>
					</g>
					<g>
						<path class="st30" d="M965.3,538.7l0.6-4.8c0,0,1.2-7.7,2.4-10.7c1.2-3,3-6.8,3.3-3.9c0.3,3,2.4,4.2,3.3,2.4
						c0.9-1.8,6.6-11,6-5.4c-0.6,5.7-1.2,10.4-4.8,16.7c-3.6,6.2-6.8,8.9-6.8,8.9L965.3,538.7z"/>
						<path class="st32" d="M915.6,507.5c0,0,6-9.5,12.5,9.2c6.5,18.7,14,39.9,14,39.9l21.1-21.7l7.1,5.7c0,0-22,38.4-30.4,38.4
						c-8.3,0-19-21.1-22.9-32.4C913.2,535.1,910,512.2,915.6,507.5z"/>
					</g>
					<path class="st12" d="M915,795.8c4.3,0.5,10.2,0.8,11.4-1.7c5.2,2.5,9.2,5.1,6.8,6.1c-5.4,2.4-27.4,3.6-30.1-0.9
					c-0.8-1.3-1.3-5.4-1.5-11C904,790.2,911.1,795.3,915,795.8z"/>
					<path class="st12" d="M874.8,791.9c5.7,1.2,12.8,4.8,13.4,1.5c0.1-0.8,0.5-1.5,1-2c6.9,3.5,11.1,7.3,4.3,7.9
					c-8.9,0.9-25.3,1.5-27.7-5.4c-0.5-1.3-0.7-4.1-0.9-7.8C867.8,788.5,871.7,791.2,874.8,791.9z"/>
					<polygon class="st14" points="989,488.2 957.7,469.9 947.9,498.6 978.5,517.8 				"/>
				</g>
			</g>
			<g>
				<path class="st13" d="M652.3,664.7c0,13.9,27.1,25.2,60.6,25.2c33.4,0,60.6-11.3,60.6-25.2c0-13.9-27.1-25.2-60.6-25.2
				C679.4,639.5,652.3,650.8,652.3,664.7z"/>
				<g>
					<path class="st35" d="M734.4,501.7c0,0,5,16.9,6.2,28.5c1.2,11.6-2.3,59.1-2.9,74.1c-0.6,15-7.7,42.5-7.7,42.5
					s19.3,18.7,11.2,17.9c-8.1-0.8-26.8-11.7-26.8-11.7s0.4-57.4,1-65.8c0.6-8.5-6.5-64.9-6.5-64.9L734.4,501.7z"/>
					<path class="st35" d="M710.4,515.7c0,0,2.7,58.3,2.3,70.5c-0.4,12.1-7.5,49.3-9.2,61.4c-1.7,12.1-4.4,24.8-4.4,24.8
					s19.4,10,12.1,13.1c-7.3,3.1-20.4-6.4-24.1-8.3c-3.7-1.9-3.7-1.9-3.7-1.9l0.6-77.2c0,0-3.3-31-6.9-46.4
					c-3.7-15.4-3.3-33.3-3.3-33.3L710.4,515.7z"/>
					<path class="st16" d="M724,425.8c0,0,19.1,54.5,30.1,43.3c11-11.2,5.8-15.6,0.8-27.7c-5-12.1-11.7-26.2-11.7-26.2l-5.8,4
					C737.3,419.3,744.2,445.8,724,425.8z"/>
					<path class="st26" d="M716.3,402c0,0,19.8,4.8,22.5,19.6c2.7,14.8-3.1,26.4-5,37.7c-1.9,11.4,0.4,28.9,2.1,34.7
					c1.7,5.8,2.5,9,2.5,9s-4.3,7.5-16,14.8c-11.7,7.3-19.2,12.2-32.7,9.8c-13.5-2.3-16.9-8.7-16.9-8.7s6.4-23.9,6.4-30.6
					c0-6.7-5.8-15.2-6.5-31.6c-0.8-16.4-3.1-20.2,6.5-31C688.8,415.1,710.4,401.6,716.3,402z"/>
					<path class="st21" d="M742.1,417.4c0,0-0.8-13.9-4.4-18.5c-3.7-4.6-5-2.5-4.4-0.8c0.6,1.7,0.6,1.7,0.6,1.7s-6.2,2.7-4.6,7.5
					c1.5,4.8,9.4,12.1,9.4,12.1L742.1,417.4z"/>
					<g>
						<path class="st10" d="M786.7,554.4c13.5,3.6,26.5-16,28.9-43.7c2.4-27.7-6.5-53-20-56.5c-4.1-1.1-8.1,0-11.9,2.7l-72-124.2
						c0,0,8.3-23.9-3.1-59.5c-11.3-35.6-32.6-26.9-32.6-26.9c22.4,27.8,20.5,55.8,20.5,55.8s-8.1,32.1-17.2,40.5
						c-10.5,9.7-29.9-32.1-29.9-32.1s-1.5,29.8,12.5,51.9c14,22,33.5,4.6,33.5,4.6L767.1,494l0,0c-0.2,1.3-0.3,2.6-0.4,3.9
						C764.2,525.5,773.2,550.8,786.7,554.4z M787.8,541.6c-10.1-2.6-16.8-21.5-14.9-42.1c1.8-20.6,11.5-35.2,21.6-32.6
						c10.1,2.6,16.8,21.5,14.9,42.1C807.6,529.7,797.9,544.3,787.8,541.6z"/>
						<path class="st36" d="M806,525.2c1.7-4.7,2.8-10.1,3.4-16.1c1.8-20.6-4.9-39.5-14.9-42.1c-5.9-1.6-11.7,2.9-15.8,10.9
						l-89.1-153.7c4.2-10.9,7-22.2,7-22.2s1.9-27.9-20.5-55.8c0,0,21.3-8.6,32.6,26.9c11.3,35.6,3.1,59.5,3.1,59.5l72,124.2
						c3.7-2.8,7.8-3.8,11.9-2.7c13.5,3.5,22.5,28.9,20,56.5c-0.7,8.4-2.5,16.1-4.9,22.6L806,525.2z"/>
					</g>
					<path class="st20" d="M712.3,404.7c0,0,4,14.6-3.5,14.8c-7.5,0.2-12.3-2.7-12.9-6.9c-0.6-4.2,0.4-16.2,0.4-16.2L712.3,404.7z"/>
					<path class="st21" d="M717.9,381.2c0,0,2.3,7.7,1.5,15.4c-0.8,7.7-3.1,18.1-12.1,11.9c-9-6.2-12.7-15.8-7.3-22.7
					C705.4,378.9,715.6,380.6,717.9,381.2z"/>
					<path class="st29" d="M708.6,373.3c5.6-0.3,15,5.6,13.5,10c-1.5,4.4-4,1.7-12.1,3.1c-8.1,1.3-10.2,3.7-10,7.3
					c0.2,3.7-1.2,7.3-3.7,5c-2.5-2.3-6.2-15.2-1.2-20.6C700.2,372.7,704.4,373.5,708.6,373.3z"/>
					<g>
						<path class="st16" d="M682.5,440.8c5.9-2.2,14.1,8.1,18.9,23.1c4.8,15,5.8,15.2,5.8,15.2l34.7-13.7l2.1,10.8
						c0,0-34.7,28.5-47.7,24.6c-13.1-3.9-17.9-27-19.8-39.1S675.7,443.3,682.5,440.8z"/>
						<path class="st21" d="M739.1,468.4l5.2-4.6c0,0,2.1-12.7,4.4-12.3c2.3,0.4,1.2,9,1.2,9s7.1-10,9.6-7.3
						c2.5,2.7,1.3,11.9-4.8,14.8c-6.2,2.9-8.3,2.9-8.3,2.9l-4.2,5.4L739.1,468.4z"/>
					</g>
				</g>
			</g>
			<g>
				<path class="st13" d="M1457.2,1102.3c0,12.1,23.5,21.9,52.6,21.9c29,0,52.6-9.8,52.6-21.9s-23.5-21.9-52.6-21.9
				C1480.7,1080.3,1457.2,1090.2,1457.2,1102.3z"/>
				<g>
					<path class="st35" d="M1536.6,919.4c0,0,7.4,2.9,6,20.1c-1.3,17.2-6.5,41.2-6.5,49.3c0,8-2.2,57.3-2.9,74
					c-0.7,16.7-1.6,30.5-6,30.5s-20.7,0.7-16.3-2.5c4.5-3.1,11.6-6.5,11.6-6.5l-7.6-64l-3.3-86.7L1536.6,919.4z"/>
					<g>
						<path class="st37" d="M1474.2,801.3c0,0-3.1-1.3-3.1-2.9c0-1.6,0.2-8.2-1.3-6.9c-1.6,1.3-1.6,4-1.6,4s-5.8-3.3-7.4-1.6
						c-1.6,1.8,10.7,12,10.7,12L1474.2,801.3z"/>
						<path class="st32" d="M1500.5,824.1c-0.6,1.9-0.3,4.7-9.7-2.7c-9.4-7.4-22.1-15.4-22.1-15.4l5.7-6.4
						C1474.4,799.7,1503.8,813.1,1500.5,824.1z"/>
					</g>
					<polygon class="st17" points="1440.2,667.6 1390.5,688.4 1459.1,963.1 1503.7,937.7 				"/>
					<path class="st14" d="M1518.4,926.7c0,0,4.2,8.3,4.1,23.8c-0.1,17.1-8,18.9-6.4,52.5c1,21.8-0.7,54.4-1.1,59.1
					c-0.4,4.7-3.8,43.5-9.6,43.9c-5.8,0.4-24.1-2-18.9-5.1c5.1-3.1,14.7-4,14.7-4s-15.6-81.8-18.7-99.6c-3.1-17.8-6.7-50.8-5.8-57.7
					c0.9-6.9,0.9-6.9,0.9-6.9L1518.4,926.7z"/>
					<polygon class="st38" points="1496.8,816.1 1500.2,833.8 1506.5,831.8 1502.2,815.1 				"/>
					<path class="st39" d="M1490.8,779.3c0,0-6.7,6-6,12.4c0.7,6.4,4.7,28.4,11.7,28.4c7,0,7.7-3.7,7-10
					C1502.8,803.7,1490.8,779.3,1490.8,779.3z"/>
					<path class="st31" d="M1486.8,836.5c7.2-4.8,42.8-21.7,51.2-12c8.4,9.7,5.4,27.4-0.7,47.8c-6,20.4-10,28.4-5,36.4
					c5,8,8.4,12,8.4,12s-6.7,8.7-25.7,15c-19.1,6.4-33.8,6.7-37.4,0.3c-3.7-6.4,10.4-33.4,12-39.1c1.7-5.7,1.7-5.7,1.7-5.7
					s-14.7-6.7-15.7-15.4C1474.4,867.2,1482.8,839.2,1486.8,836.5z"/>
					<g>
						<path class="st37" d="M1429.8,827.9c0,0-13.1-7.8-7.3-17.2c2.3-3.8,5.7,7.1,5.7,7.1s-0.7-6.3,1-4.6c1.7,1.7,2.4,11.3,2.4,11.3
						L1429.8,827.9z"/>
						<path class="st32" d="M1488.8,840.5c4.2,2.2,1,20.7-14.4,19.1c-15.4-1.7-23.1-3.7-28.8-9c-5.7-5.3-18.1-24.1-18.1-24.1l4-5
						l23.1,19C1454.7,840.5,1482.4,837.2,1488.8,840.5z"/>
					</g>
					<path class="st29" d="M1494,774.3c7.5-4.5,24.5-5.8,27.2,6.7c2.7,12.5,1.3,19.2,4.9,25.9c3.6,6.7,18.3,44.6,13.4,56.2
					c-4.9,11.6-19.2,29-34.8,19.2c-15.6-9.8-10.7-15.2-5.8-34.3c4.9-19.2,7.1-21.8,1.3-30.8C1494.5,808.2,1474.9,785.9,1494,774.3z" />
				</g>
			</g>
			<g>
				<path class="st13" d="M1556.5,931.2c0,19.1,37.8,34.7,84.5,34.7c46.7,0,84.5-15.5,84.5-34.7s-37.8-34.7-84.5-34.7
				C1594.4,896.6,1556.5,912.1,1556.5,931.2z"/>
				<g>
					<g>
						<g>
							<path class="st17" d="M1595.8,818.1l68.9,23.1v86.7c0,17.6-23.4,31.8-52.2,31.8c-28.8,0-52.2-14.2-52.2-31.8v-86.7
							L1595.8,818.1z"/>
							<ellipse class="st40" cx="1612.5" cy="841.2" rx="52.2" ry="31.8"/>
							<path class="st41" d="M1656.9,857.9c-9.2,9.1-25.6,15.1-44.4,15.1c-18.8,0-35.2-6-44.4-15.1c-0.6-1.8-1-3.8-1-5.7
							c0-15.3,20.3-27.7,45.4-27.7c25.1,0,45.4,12.4,45.4,27.7C1657.9,854.1,1657.6,856,1656.9,857.9z"/>
						</g>
						<path class="st42" d="M1612.5,813.1c26.3,0,48.5,12.9,48.5,28.1c0,15.2-22.2,28.1-48.5,28.1s-48.5-12.9-48.5-28.1
						C1564,826,1586.2,813.1,1612.5,813.1 M1612.5,809.4c-28.8,0-52.2,14.2-52.2,31.8c0,17.6,23.4,31.8,52.2,31.8
						c28.8,0,52.2-14.2,52.2-31.8C1664.7,823.7,1641.3,809.4,1612.5,809.4L1612.5,809.4z"/>
					</g>
					<path class="st24" d="M1568.2,694.8c4.4,9.3,4.4,19.9,4.4,30.2c0,11.5-0.1,23-0.1,34.6c0,13.1,0,26.4,3.5,39.1
					c3.6,12.6,11.3,24.7,23,30.5c5.8,2.9,13.1,4,18.6,0.6c2.4-1.5,4.3-3.8,5.9-6.3c13.2-20.8,1-48.7-8.5-68.6
					C1604,731.7,1588,711,1568.2,694.8z"/>
					<path class="st25" d="M1667.2,789.5c3.3-43,1.1-86.9,11.6-128.8c-28.8,35-42.8,81.7-38,126.8c-9.5-29.8-19.2-60.1-19-91.4
					c0.1-14.9-9.1-50.2-9.1-50.2s-5.4,33.7-10.4,50.1c-3.4,11.2-4.1,23-4.7,34.7c-1,17-1.9,34.1-2.9,51.1
					c-14.2-42.8-52.1-101.8-52.1-101.8s14,112.5,21.4,138.2c8.4,29.2,35.7,49.1,67,42.1C1659.5,854.1,1665.4,813.2,1667.2,789.5z"/>
					<path class="st43" d="M1645,832c6-16.4,0.4-34.3-3.3-51.4c-4.4-20.3-6.2-41.5-1.7-61.8c-15,31.6-28.2,64.1-39.5,97.2
					c-2.9,8.6-5.7,17.9-3,26.5c2.6,8.1,17.3,22.5,27,20.1C1632.3,860.7,1642.4,839.1,1645,832z"/>
				</g>
			</g>
		</g>
		<text transform="matrix(1 0 0 1 31.2991 940.7051)" class="st12 st44 st45">Concentrate</text>
		<text transform="matrix(1 0 0 1 87.0204 1013.6191)" class="st12 st44 st46">Browser Add-on</text>
	</g>
</svg>
